<?xml version="1.0" encoding="UTF-8"?>
<!DOCTYPE svg  PUBLIC '-//W3C//DTD SVG 1.1//EN'  'http://www.w3.org/Graphics/SVG/1.1/DTD/svg11.dtd'>
<svg version="1.1" xmlns="http://www.w3.org/2000/svg">
<defs>
<font id="MiamaNueva" horiz-adv-x="1003">
<font-face font-family="Miama Nueva" font-style="italic" font-weight="400" ascent="800" bbox="-800 -991 1872 1208" cap-height="939" descent="-200" panose-1="2 0 6 3 0 0 0 0 0 0" slope="-28" underline-position="-128" underline-thickness="48" unicode-range="U+0020-0529" units-per-em="1000" x-height="448"/>
<missing-glyph/>
<glyph glyph-name="space" horiz-adv-x="420" unicode=" "/>
<glyph d="M291 213q-2 -9 -15 -16.5t-24 -7.5q-14 0 -14 17q0 12 15 49q97 238 240 458q40 60 61 83q18 18 49 18q15 0 48 -9.5t33 -17.5q0 -4 -4 -4l-4 1q-4 2 -9 2q-51 0 -139 -111q-185 -235 -237 -462zM157 36q0 28 25.5 51.5t56.5 23.5q16 0 26.5 -13t10.5 -31q0 -29 -29 -51 t-53 -22q-18 0 -27.5 11.5t-9.5 30.5z" glyph-name="exclam" horiz-adv-x="434" unicode="!"/>
<glyph d="M297 544q-12 0 -12 12q0 2 24 48l139 269q2 4 11 7.5t23.5 8t20.5 7.5q4 1 9 4t8.5 4.5t6.5 1.5q5 0 5 -8q0 -2 -15.5 -21t-65 -92.5t-114.5 -184.5q-21 -37 -27.5 -46.5t-12.5 -9.5zM436 550q-10 0 -10 10q0 6 20 44l145 278q2 4 11 8.5t26 11.5t20 8q25 10 27 10 q6 0 6 -6q0 -2 -19 -25t-71.5 -100.5t-116.5 -188.5q-19 -33 -25.5 -41.5t-12.5 -8.5z" glyph-name="quotedbl" horiz-adv-x="480" unicode='"'/>
<glyph d="M483 335q94 170 117 213q-92 0 -164 -3q-45 -80 -120 -221q56 3 167 11zM612 861q-5 -9 -64.5 -116t-77.5 -139q64 5 168 12q91 169 130 250q2 5 13 7q31 9 38 9q4 0 4 -2q0 -1 -1.5 -3t-4 -5.5t-4.5 -6.5q-7 -10 -134 -245q52 4 99 4q14 0 14 -6q0 -2 -2.5 -4.5t-8 -8.5 t-11.5 -15q-3 -4 -8.5 -12t-8.5 -12.5t-7.5 -9.5t-8 -7.5t-7.5 -2.5h-92q-45 -81 -115 -211q55 3 87 3q20 0 20 -7q0 -2 -2 -5t-7 -9.5t-9 -12.5q-18 -29 -28 -35.5t-35 -8.5q-20 -2 -67 -2q-23 -43 -68.5 -129t-59.5 -113q-4 -9 -30 -19q-31 -11 -34 -11t-3 3q0 1 7 13 q33 57 85.5 149t60.5 106q-121 -6 -164 -9q-27 -51 -124 -236q-4 -7 -30 -18q-34 -13 -36 -13q-3 0 -3 3q0 1 1.5 2.5t3.5 4.5l4 6q40 69 141 247q-13 -1 -39 -2.5t-45 -3t-23 -1.5q-6 0 -6 6q0 5 20 30q18 23 46 32t90 15q29 52 121 221q-14 -1 -40 -3.5t-46.5 -5 t-21.5 -2.5q-7 0 -7 6q0 3 13 20q1 1 4 5t4 5t3.5 4.5t4.5 4.5t5 3t6 3.5t7 2.5q40 12 101 17q89 161 142 261q2 4 11 6q4 1 20.5 6.5t17.5 5.5q4 0 4 -2q0 -1 -2 -3t-5 -6.5t-6 -9.5z" glyph-name="numbersign" horiz-adv-x="582" unicode="#"/>
<glyph d="M76 136q0 6 24 30q14 14 28.5 31.5t22 27t9.5 9.5q6 0 6 -4l-9 -14q-9 -15 -9 -26q0 -138 110 -172l224 432q-31 41 -47 63.5t-31.5 58t-15.5 66.5q0 65 53 123.5t127 91t142 33.5q61 116 70 135q2 4 12 6q17 5 24 5q6 0 6 -1t-1.5 -3l-3 -4t-2.5 -4q-7 -12 -73 -136 q26 -3 49 -13t37 -22t24 -25t14 -21.5t4 -12.5t-7 -10t-20 -15t-19 -13q-17 -12 -18 -12q-6 0 -6 6q0 26 -24 50t-62 36l-166 -320q76 -89 99 -129q29 -51 29 -97q0 -79 -65 -154.5t-159 -120t-182 -45.5l-104 -192q-2 -4 -6 -7t-12.5 -8.5t-11.5 -7.5q-33 -21 -36 -21t-3 3 q0 1 1 2.5l2 3t2 3.5l130 226q-85 15 -120.5 63t-35.5 105zM528 536l158 304q-10 2 -34 2q-90 0 -142 -49.5t-52 -112.5q0 -56 70 -144zM504 424l-212 -412q32 -4 42 -4q115 0 187.5 73t72.5 147q0 49 -23.5 94.5t-66.5 101.5z" glyph-name="dollar" horiz-adv-x="722" unicode="$"/>
<glyph d="M877 725q10 12 16 12q3 0 14 -6t11 -8t-22 -21q-91 -84 -294 -270.5t-286 -261.5q-15 -14 -17 -14q-4 0 -14 6t-10 8q0 3 13 13q379 329 589 542zM573 875q48 0 74.5 -29.5t26.5 -77.5q0 -97 -74.5 -169t-156.5 -72q-48 0 -74 29t-26 81q0 96 76.5 167t153.5 71zM396 654 q0 -43 22 -67.5t62 -24.5q63 0 99 60t36 126q0 98 -82 98q-61 0 -99 -62.5t-38 -129.5zM755 326q48 0 74.5 -29.5t26.5 -77.5q0 -97 -74.5 -169t-156.5 -72q-48 0 -74 29t-26 81q0 96 76.5 167t153.5 71zM578 106q0 -43 22.5 -68t61.5 -25q63 0 99 60t36 126 q0 45 -20.5 71.5t-62.5 26.5q-61 0 -98.5 -62t-37.5 -129z" glyph-name="percent" horiz-adv-x="886" unicode="%"/>
<glyph d="M666 546q0 -26 -27.5 -43t-64.5 -17q-34 0 -66.5 22t-49.5 54q-63 -10 -110.5 -40.5t-73 -72.5t-38 -84.5t-12.5 -84.5q0 -117 87 -191.5t199 -74.5q122 0 197.5 81t94.5 191q-19 12 -59 41.5t-67 43t-54 13.5q-19 0 -33.5 -16.5t-14.5 -37.5t23 -41.5t23 -22.5 q0 -6 -28 -6h-8q-66 0 -66 62q0 30 35 51t81 21q52 0 111.5 -24.5t103.5 -54.5t95.5 -54.5t89.5 -24.5q28 0 56 28q5 5 10.5 11.5t8 10.5t3.5 4q4 0 4 -4q0 -6 -20 -26q-46 -52 -82 -52q-69 0 -158 48q-14 -41 -51 -89t-90 -93t-126 -74.5t-147 -29.5q-114 0 -202 75.5 t-88 194.5q0 124 87 215t209 131q-8 21 -8 58q0 73 42.5 130t99 83.5t110.5 26.5q63 0 118.5 -27t55.5 -67q0 -4 -2.5 -9t-8 -12.5t-9.5 -14.5q-17 -32 -20 -32q-4 0 -4 4q0 48 -54.5 83t-107.5 35q-88 0 -141 -50t-53 -128q0 -35 16 -70q57 10 94 10q34 0 62 -15.5 t28 -44.5zM502 566q46 -60 86 -60q28 0 28 26q0 34 -114 34z" glyph-name="ampersand" horiz-adv-x="1016" unicode="&amp;"/>
<glyph d="M304 544q-12 0 -12 12q0 2 24 48l143 276q2 4 12 8.5t26 11t21 8.5q4 1 9 4t8.5 4.5t6.5 1.5q6 0 6 -6q0 -2 -17 -24t-69 -99.5t-118 -188.5q-5 -8 -10 -16.5t-8 -13t-6 -10t-5 -8t-4 -4.5t-3.5 -3t-3.5 -1z" glyph-name="quotesingle" horiz-adv-x="360" unicode="'"/>
<glyph d="M306 -122q-55 46 -81.5 125.5t-26.5 146.5q0 95 24 192.5t76.5 195.5t128 183.5t185 160t241.5 122.5q26 10 39 10q6 0 6 -6q0 -3 -4.5 -5.5t-16.5 -7t-18 -7.5q-140 -65 -248 -155t-170 -180t-101.5 -191t-52.5 -180t-13 -156q0 -164 49 -237q5 -8 11 -14t9 -8.5t3 -4.5 q0 -4 -4 -4q-13 0 -36 20z" glyph-name="parenleft" horiz-adv-x="482" unicode="("/>
<glyph d="M520 994q55 -46 81.5 -125.5t26.5 -146.5q0 -95 -24 -192.5t-76.5 -195.5t-128 -183.5t-185 -160t-241.5 -122.5q-26 -10 -39 -10q-6 0 -6 6q0 3 4.5 5.5t16.5 7t18 7.5q140 65 248 155t170 180t101.5 191t52.5 180t13 156q0 163 -49 237q-5 8 -11 14t-9 8.5t-3 4.5 q0 4 4 4q13 0 36 -20z" glyph-name="parenright" horiz-adv-x="482" unicode=")"/>
<glyph d="M364 540q-4 3 -17 11t-17 11q0 -48 8 -48q10 0 26 26zM472 706q22 37 44.5 81.5t32.5 61.5t19 17q6 0 14 -15t8 -23q0 -4 -2 -6q-35 -46 -96 -142q36 3 85.5 7.5t81.5 7.5t33 3q3 0 5.5 -3.5t2.5 -4.5q0 -3 -4 -7.5t-10 -11.5t-9 -13q-17 -28 -39 -28q-7 0 -50.5 4.5 t-81.5 6.5q68 -115 92 -151q2 -4 2 -8q0 -10 -10 -19t-20 -13l-10 -4q-45 0 -168 74q-5 -8 -13.5 -25.5t-15 -28t-11.5 -10.5q-7 0 -14.5 4t-15.5 21.5t-8 46.5q0 5 1 21t1 21q-40 26 -70 53t-30 37q0 12 14.5 23t39.5 11q9 0 27.5 -2.5t24.5 -3.5q1 16 2 40.5t1.5 39.5 t2.5 34t4.5 30.5t7 22.5t11.5 16t17 5q5 0 11 -6t15 -21.5t18 -33t26 -49t34 -60.5zM426 680q-10 17 -23 39.5t-20.5 35t-15.5 25.5t-13 18.5t-8 5.5q-7 0 -12 -118zM450 624q-30 -48 -52 -92q37 -26 74 -44t46 -18q6 0 6 8q0 15 -12.5 40t-33.5 58.5t-28 47.5zM436 644 l-106 2v-66q6 -5 13 -10t15.5 -11t13.5 -9q36 48 64 94zM318 586l2 60q-36 2 -46 2q-8 0 -8 -6q0 -17 52 -56z" glyph-name="asterisk" horiz-adv-x="430" unicode="*"/>
<glyph d="M508 347q231 3 254 3q4 0 4 -2t-9 -22q-1 -2 -3 -6.5t-3 -6.5q-3 -13 -7 -13h-1q-7 0 -47.5 1t-102 2.5t-107.5 2.5q-33 -64 -58 -112.5t-41 -80t-20 -39.5q-3 -5 -34 -12q-10 -2 -20.5 -4.5t-15.5 -4t-7 -1.5q-3 0 -3 2q0 1 1.5 2.5t3.5 4t3 4.5q25 35 135 242 q-10 1 -15 1q-35 0 -88.5 -1t-91.5 -2t-43 -1q-4 0 -4 2t3 6q5 7 13 20q2 4 4.5 8.5t3.5 6.5t2.5 4t2.5 2.5t3 0.5q13 0 49.5 -1t89 -2.5t93.5 -2.5q40 76 113 230q1 2 3.5 3.5t7 2.5t9.5 1.5t14 2t17 2.5t16.5 3.5t10.5 2.5q3 0 3 -3q0 -1 -22 -36q-30 -44 -116 -210z" glyph-name="plus" horiz-adv-x="800" unicode="+"/>
<glyph d="M160 84q40 0 40 -88q-1 -44 -33.5 -94.5t-73.5 -86t-74.5 -59.5t-40.5 -24q-6 0 -6 4v2t0.5 1.5l1.5 1.5l2.5 2.5t3.5 2.5t5 3.5t6.5 5t8.5 6t10 7.5q116 87 116 176q0 32 -11 67.5t-11 38.5q0 10 23.5 22t32.5 12z" glyph-name="comma" horiz-adv-x="320" unicode=","/>
<glyph d="M480 350q11 0 48.5 1t43.5 1q5 0 5 -2q0 -1 -0.5 -2.5t-3.5 -7t-6 -12.5q-13 -30 -20 -30q-4 0 -88 4t-141 4q-34 0 -88.5 -2t-57.5 -2q-4 0 -4 2q0 1 1 2.5l5 7.5t9 14q15 26 22 26q16 0 113 -2t162 -2z" glyph-name="hyphen" horiz-adv-x="576" unicode="-"/>
<glyph d="M112 28q0 33 24 61t57 28q17 0 27 -10.5t10 -28.5q0 -30 -26.5 -58t-51.5 -28q-40 0 -40 36z" glyph-name="period" horiz-adv-x="320" unicode="."/>
<glyph d="M640 859q-280 -503 -527 -975q-4 -8 -30 -20q-31 -14 -36 -14q-3 0 -3 3q0 1 1.5 2.5t3.5 4.5l4 6q280 486 546 995q16 31 42 80.5t29 55.5q2 4 11 6q28 4 37 4q4 0 4 -2q0 -1 -1 -2.5l-2 -3t-2 -3.5q-3 -6 -13 -23.5t-27.5 -48.5t-36.5 -65z" glyph-name="slash" horiz-adv-x="522" unicode="/"/>
<glyph d="M704 886q59 0 95.5 -55t36.5 -135q0 -124 -56 -257t-137.5 -232.5t-175 -164t-167.5 -64.5q-60 0 -97 54t-37 135q0 124 56 257t138 232.5t176 164.5t168 65zM753 671q0 79 -23.5 124.5t-67.5 45.5q-80 0 -171 -88q-98 -97 -168.5 -253t-70.5 -291q0 -80 26.5 -127.5 t70.5 -47.5q87 0 177 93q95 99 161 253.5t66 290.5z" glyph-name="zero" horiz-adv-x="760" unicode="0"/>
<glyph d="M628 674q0 1 -1 1q-2 0 -140 -118q-75 -64 -171 -132.5t-158 -103.5q-14 -8 -40 -8q-6 0 -6 5q0 4 18 14q200 119 348 239q115 94 176 155q7 8 32.5 60t49.5 66q64 34 78 34t14 -18q0 -17 -24 -50.5t-64 -67.5q-160 -285 -347 -673q-12 -24 -17.5 -34t-10.5 -20 t-11.5 -12t-11 -4.5t-19 -4.5t-25.5 -5q-19 -4 -30 -9t-15 -7t-7 -2q-7 0 -7 8q0 4 13.5 27t39.5 65t44 75q25 45 102.5 181t133.5 235.5t56 103.5z" glyph-name="one" horiz-adv-x="630" unicode="1"/>
<glyph d="M771 703q0 -49 -35 -104.5t-108.5 -117.5t-118.5 -96t-130 -92q-8 -6 -12 -8.5t-10 -7t-11 -7.5q-21 -15 -58.5 -41t-54 -37.5t-42 -30.5t-48.5 -39q95 -5 206 -24q128 -22 209 -22q34 0 57.5 13t33.5 28q2 2 4 7t4.5 7.5t5.5 2.5q6 0 6 -6q0 -2 -11 -21t-26 -45.5 t-22 -43.5q-12 -28 -94 -28q-27 0 -66.5 7.5t-85.5 19t-59 14.5q-115 23 -203 23q-48 0 -71 -21q-5 -5 -13.5 -16.5t-16 -17t-18.5 -5.5q-5 0 -9 5t-4 9q0 15 30 39q35 29 64 51.5t65 48t53.5 38.5t68.5 48t73 50q152 105 202 149q144 125 145 240q0 69 -36 106t-101 37 q-63 0 -121 -47q-31 -25 -40 -47q-9 -19 -14 -19q-9 0 -9 9q0 7 19.5 31t33.5 38q55 51 100.5 77.5t103.5 26.5q66 0 115 -45.5t49 -135.5z" glyph-name="two" horiz-adv-x="700" unicode="2"/>
<glyph d="M540 518q61 -19 100 -68.5t39 -128.5q0 -127 -128.5 -235t-301.5 -108q-122 0 -188 62q-29 27 -29 51q0 12 8 20q16 12 34 30t28.5 29.5t11.5 11.5q6 0 6 -8l-4 -4q-3 -4 -6.5 -14t-3.5 -23q0 -9 12 -28t33 -40.5t58.5 -37.5t79.5 -16q125 0 211.5 83t86.5 207 q0 75 -45 128.5t-115 53.5q-17 0 -32.5 -4.5t-21.5 -4.5q-7 0 -7 6q0 8 27.5 22.5t52.5 18.5q165 33 210 140q14 34 14 74q0 111 -123 111q-32 0 -60 -15t-47 -29.5t-29 -14.5h-1q-3 0 -3 7v1q0 6 29 27.5t76.5 42.5t86.5 21q83 0 124 -38.5t41 -102.5q0 -62 -66 -126.5 t-158 -100.5z" glyph-name="three" horiz-adv-x="710" unicode="3"/>
<glyph d="M152 281q-49 -33 -71 -33q-11 0 -11 11q0 7 32.5 27.5t55.5 28.5q227 230 421 530q7 12 35 25q35 16 36 16q2 0 2 -2q0 -1 -2 -3l-4.5 -4.5l-3.5 -3.5q-207 -316 -440 -546q40 8 62 8q23 0 43 -1t40 -3.5l32 -4t32.5 -6t26.5 -5.5t29 -7t26 -7q51 90 113 211 q16 32 29.5 46t46.5 30q14 7 31 17.5t27.5 16t16.5 5.5t6 -4q0 -3 -5 -7t-13.5 -12t-15.5 -19q-82 -137 -171 -299q57 -10 122 -10q107 0 162 24q6 3 10.5 6.5t7 5.5t3.5 2q2 0 2 -2q0 -1 -2 -3t-6.5 -7.5t-8.5 -10.5q-11 -14 -27 -21q-87 -34 -207 -34q-46 0 -82 3 q-42 -76 -97 -185q-2 -5 -5.5 -11.5t-5 -10t-4 -8.5t-4.5 -7.5t-4 -6t-4 -5t-4.5 -3t-5 -2t-5.5 -0.5q-28 0 -48 -5.5t-29.5 -11t-13.5 -5.5q-6 0 -6 6q0 1 2 4.5t8.5 13t15.5 23t26.5 40t37.5 58.5q53 83 78 127q-20 4 -70 18t-94 20.5t-102 6.5q-6 0 -32 -4z" glyph-name="four" horiz-adv-x="760" unicode="4"/>
<glyph d="M249 -22q-72 0 -128.5 40t-56.5 95q0 12 6.5 21t24.5 27l7 7q12 12 50 58q6 7 9 7l3 -4l-10 -16q-17 -24 -17 -70q0 -50 54 -85t133 -35q78 0 139.5 32.5t95 81.5t50 97t16.5 88q0 93 -49 139t-141 46q-49 0 -93 -29q-6 -4 -13 -11.5t-12.5 -11.5t-10.5 -4q-9 0 -9 8 q0 2 13.5 17.5t37.5 46t51 72t59 107.5t58 141q1 4 2.5 9t2.5 7.5t2 5.5t3 4t4 1q109 -16 222 -16q112 0 159 19q11 4 19 11t12 12t6 5q5 0 5 -5q0 -6 -35 -41q-32 -32 -57 -40q-79 -26 -236 -26q-38 0 -92 6q-56 -124 -137 -253q58 28 97 28q105 0 163 -57t58 -156 q0 -62 -37.5 -129t-98.5 -122.5t-149 -91.5t-180 -36z" glyph-name="five" horiz-adv-x="700" unicode="5"/>
<glyph d="M219 252q-14 -64 -14 -127q0 -51 31 -84.5t78 -33.5q124 0 220 89t96 187q0 58 -24.5 89.5t-95.5 31.5q-44 0 -128.5 -39t-162.5 -113zM225 276q108 95 167 133q93 60 161 60q72 0 114.5 -36.5t42.5 -99.5q0 -56 -36.5 -119t-96.5 -116t-145.5 -88t-173.5 -35 q-76 0 -114.5 40.5t-38.5 105.5q0 78 38 163.5t101 161.5t118 130.5t115 103.5q156 128 413 220q8 4 15 4q3 0 3 -3q0 -1 -3.5 -4.5t-10.5 -12.5t-14 -23q-11 -21 -40 -26q-67 -10 -170 -60t-171 -109q-220 -188 -274 -390z" glyph-name="six" horiz-adv-x="730" unicode="6"/>
<glyph d="M126 26q110 156 276 350q-82 -3 -123 -8q-8 -1 -15.5 -2t-11.5 -2t-7.5 -1.5t-5.5 -0.5q-3 0 -3 2q0 1 2 4l5 7.5l5 7.5q1 2 3 5.5t3 5t3.5 4t4 3.5t4 2t5.5 1h155q156 184 372 389l-1 1q-130 -31 -275 -31q-135 0 -194 16q-37 9 -37 24q0 2 19 32q6 9 14 23.5t13 22.5 t8 8l1 -1l-1 -3q-1 -3 -1 -5q0 -26 78.5 -39t134.5 -13q63 0 182 11t141 27q31 22 33 22q8 0 8 -8q0 -2 -2.5 -5.5t-10 -11.5t-17 -17t-29.5 -28.5t-40 -39.5l-35.5 -35.5l-40 -40l-37.5 -37.5t-41.5 -42.5t-37.5 -40t-41.5 -45t-37 -42t-39.5 -47t-35 -44.5h153q9 0 9 -5 t-41 -10q-54 -7 -141 -11q-109 -144 -209 -301q-18 -27 -40 -73q-3 -5 -14 -7t-27.5 -3t-23.5 -3q-16 -4 -24.5 -9t-12.5 -5t-4 4q0 9 24 45z" glyph-name="seven" horiz-adv-x="660" unicode="7"/>
<glyph d="M468 486l-72 -36q-222 -110 -222 -267q0 -64 43 -110t123 -46q99 0 173.5 58.5t74.5 159.5q0 62 -30.5 116.5t-89.5 124.5zM688 598q-64 -26 -154 -76q130 -126 130 -244q0 -59 -42 -117.5t-101 -97.5t-119.5 -63.5t-100.5 -24.5q-102 0 -157 54.5t-55 136.5 q0 50 26 97.5t70.5 85.5t93.5 67.5t106 53.5l71 30q-56 66 -56 149q0 69 51 125.5t119 84t130 27.5q58 0 97 -38t39 -82q0 -63 -56.5 -101.5t-119.5 -38.5q-14 0 -14 10q0 8 12 8q2 0 8 -2t12 -2q28 0 54 28.5t26 73.5q0 44 -28 78t-80 34q-79 0 -127.5 -49t-48.5 -131 q0 -84 48 -140q139 63 159 71q36 15 37 15q8 0 8 -7q0 -2 -3.5 -3.5t-14.5 -5t-20 -6.5z" glyph-name="eight" horiz-adv-x="700" unicode="8"/>
<glyph d="M658 851q-88 0 -169 -83t-81 -179q0 -61 24 -95.5t62 -34.5q21 0 40 4t32 8.5t31.5 16.5t26.5 18t28.5 22.5t26.5 21.5q74 159 74 229q0 11 -2 19.5t-9.5 22.5t-29 22t-54.5 8zM322 582q0 72 55 143t143.5 116t180.5 45q52 0 91.5 -30.5t39.5 -91.5q0 -20 -7.5 -49 t-21 -61.5t-24 -56.5t-24.5 -52.5t-16 -32.5q-64 -139 -102.5 -212t-80.5 -129q-147 -194 -324 -194q-70 0 -114 38t-44 105q0 60 28 96t68 42q17 3 42.5 12.5t33.5 9.5q14 0 14 -8q0 -6 -6 -6q-2 0 -8 1t-10 1q-32 0 -57 -43.5t-25 -96.5t35 -86t91 -33q129 0 231 163 q24 38 46 87t55.5 130.5t51.5 124.5q-2 -1 -15.5 -10.5t-17 -12t-17 -11t-20 -11.5t-20 -10.5t-22.5 -10.5t-23 -7.5t-26 -7t-26.5 -4t-28.5 -1.5q-53 0 -89.5 37.5t-36.5 116.5z" glyph-name="nine" horiz-adv-x="690" unicode="9"/>
<glyph d="M286 360q0 33 24 61t57 28q17 0 27 -10.5t10 -28.5q0 -30 -26.5 -58t-51.5 -28q-40 0 -40 36zM112 28q0 33 24 61t57 28q17 0 27 -10.5t10 -28.5q0 -30 -26.5 -58t-51.5 -28q-40 0 -40 36z" glyph-name="colon" horiz-adv-x="404" unicode=":"/>
<glyph d="M208 312q0 33 24 61t57 28q17 0 27 -10.5t10 -28.5q0 -30 -26.5 -58t-51.5 -28q-40 0 -40 36zM160 84q40 0 40 -88q-1 -44 -33.5 -94.5t-73.5 -86t-74.5 -59.5t-40.5 -24q-6 0 -6 4v2t0.5 1.5l1.5 1.5l2.5 2.5t3.5 2.5t5 3.5t6.5 5t8.5 6t10 7.5q116 87 116 176 q0 32 -11 67.5t-11 38.5q0 10 23.5 22t32.5 12z" glyph-name="semicolon" horiz-adv-x="454" unicode=";"/>
<glyph d="M266 320q0 -22 381 -159q16 -6 19 -9q1 -1 1 -4q0 -2 -2 -5.5t-6 -10t-8 -13.5q-13 -25 -15 -27q-3 -3 -26 6q-97 40 -259 114.5t-162 89.5q0 27 32 42q40 20 275 104t291 107q26 11 31 11t10.5 -12t5.5 -17q0 -7 -19 -12q-92 -23 -291.5 -93t-243.5 -97q-14 -8 -14 -15z " glyph-name="less" horiz-adv-x="800" unicode="&lt;"/>
<glyph d="M567 316q29 0 103 2t77 2q4 0 4 -2t-9 -22q-2 -4 -3.5 -8t-2.5 -6t-2 -4.5t-1.5 -3.5l-1 -2t-1.5 -1.5t-2 -0.5q-4 0 -161 4t-214 4q-34 0 -103.5 -2t-72.5 -2q-4 0 -4 2q0 1 1 3t5.5 8.5t9.5 14.5q2 4 4.5 8.5t3.5 6.5t2.5 4t2.5 2.5t3 0.5q16 0 156.5 -4t205.5 -4z M631 454q29 0 103 2t77 2q4 0 4 -2t-9 -22q-2 -4 -3.5 -8t-2.5 -6t-2 -4.5t-1.5 -3.5l-1 -2t-1.5 -1.5t-2 -0.5q-4 0 -161 4t-214 4q-34 0 -103.5 -2t-72.5 -2q-4 0 -4 2q0 1 1 3t5.5 8.5t9.5 14.5q2 4 4.5 8.5t3.5 6.5t2.5 4t2.5 2.5t3 0.5q16 0 156.5 -4t205.5 -4z" glyph-name="equal" horiz-adv-x="800" unicode="="/>
<glyph d="M702 314q0 22 -381 159q-16 6 -19 9q-1 1 -1 4q0 2 2 5.5t6 10t8 13.5q13 25 15 27q3 3 26 -6q97 -40 259 -114.5t162 -89.5q0 -27 -32 -42q-40 -20 -275 -104t-291 -107q-26 -11 -31 -11t-10.5 12t-5.5 17q0 7 19 12q92 23 291.5 93t243.5 97q14 8 14 15z" glyph-name="greater" horiz-adv-x="800" unicode="&gt;"/>
<glyph d="M568 838q-58 0 -138 -55q-8 -6 -19 -14l-16.5 -12t-8.5 -4q-7 0 -7 6t42 39q112 88 219 88q56 0 90 -31.5t34 -88.5q0 -26 -12.5 -51t-27.5 -42t-46 -38t-48 -30.5t-55 -28.5t-47 -24q-45 -24 -74.5 -42.5t-62 -45t-49 -57.5t-16.5 -65q0 -35 30.5 -60t67.5 -25 q15 0 19 5l1 1q4 0 4 -5q0 -6 -13.5 -25t-15.5 -22t-4 -7t-2.5 -5.5t-2 -3.5t-2.5 -2.5t-3 -1t-5 -0.5q-48 0 -94 35.5t-46 89.5q0 32 13 61t29.5 49.5t52.5 46t61 40.5t76 43q12 7 18 10q12 6 43.5 21.5t49 26.5t40 29t33 40.5t10.5 50.5q0 44 -33.5 74t-84.5 30zM157 38 q0 27 24.5 50t54.5 23q16 0 28 -14t12 -32q0 -31 -28 -51t-53 -20q-38 0 -38 44z" glyph-name="question" horiz-adv-x="640" unicode="?"/>
<glyph d="M712 230q47 0 88 22t69 56.5t48 75.5t29.5 78.5t9.5 67.5q0 114 -69 173t-168 59q-113 0 -210.5 -43.5t-160.5 -114t-98.5 -157t-35.5 -175.5q0 -113 75 -187.5t175 -74.5q247 0 388 130q11 9 29 18.5t27 9.5q4 0 4 -2q-7 -8 -20.5 -21t-60 -47t-98 -60t-134 -47 t-169.5 -21q-116 0 -199 78.5t-83 187.5q0 98 35.5 187t96 155t138 115.5t163.5 75t171 25.5q65 0 121 -23t95.5 -77.5t39.5 -133.5q0 -88 -46.5 -173.5t-127 -141t-170.5 -55.5q-31 0 -51.5 17t-20.5 43q0 2 1 7t1 7q-81 -56 -144 -56q-34 0 -57 24t-23 60q0 98 90 186 t184 88q83 0 98 -42q14 14 32 20q20 10 40 10q6 0 6 -6q0 -2 -14 -16q-46 -46 -88 -116q-52 -88 -52 -146q0 -17 13.5 -28.5t32.5 -11.5zM600 288q35 115 126 222q-16 48 -70 48q-72 0 -142 -89.5t-70 -168.5q0 -22 10.5 -42t31.5 -20q37 0 114 50z" glyph-name="at" horiz-adv-x="926" unicode="@"/>
<glyph d="M1020 98q-24 -20 -53.5 -39.5t-83.5 -43t-97 -23.5q-58 0 -77 37.5t-19 124.5q0 58 12 142q-90 -10 -120 -10q-41 0 -107 11t-83 11q-14 0 -20 -2q-192 -219 -270 -284q-29 -22 -86 -28q-5 -1 -15.5 -3t-20 -3t-18.5 -1q-12 0 -12 7q0 6 16 10q30 10 64 40 q151 132 315 297.5t401 442.5q16 18 26.5 30.5t21.5 22.5t16 14.5t15.5 10.5t13.5 7.5t17 7t20 7.5q3 1 20.5 9.5t23.5 8.5q8 0 8 -10q0 -8 -4.5 -20.5t-10.5 -26t-7 -15.5q-29 -74 -63 -220.5t-51 -277.5q31 9 65 28t55 33.5t24 14.5q6 0 6 -6q0 -5 -22 -21t-59 -35.5 t-71 -31.5q-10 -87 -10 -136q0 -83 15.5 -116t45.5 -33t78.5 23t92.5 56q62 48 136 140q4 6 8 6t4 -4q0 -2 -2 -6q-68 -92 -138 -146zM404 342h34q40 0 117 -12t111 -12q24 0 40 2q7 58 20 128.5t26.5 130t25.5 110.5t20 81.5t8 31.5q0 6 -3 6q-7 0 -33 -32z" glyph-name="A" horiz-adv-x="980" unicode="A"/>
<glyph d="M396 476q-113 -217 -219 -449q-6 -15 -16 -20.5t-40 -13.5q-24 -7 -40.5 -15t-23 -12t-11.5 -4q-7 0 -7 5q0 2 4 6.5t13 16.5t19 27q43 66 85.5 144t92 174.5t73.5 141.5q11 19 45.5 89.5t44.5 87.5q65 110 163 171t183 61q60 0 101 -40t41 -106q0 -157 -268 -259l1 -2 q23 1 32 1q68 0 119.5 -50.5t51.5 -113.5q0 -132 -124.5 -231.5t-292.5 -99.5q-85 0 -142 22t-57 45q0 5 15 25q3 4 8.5 13t9.5 15t6 6q3 0 3 -4q0 -32 48.5 -65t106.5 -33q127 0 229 103.5t102 227.5q0 59 -37.5 90t-82.5 31q-33 0 -54.5 -13t-37.5 -13q-5 0 -16.5 9 t-11.5 14q0 6 8 9t23.5 5t21.5 4q93 28 172.5 94.5t79.5 148.5q0 57 -34 91t-85 34q-49 0 -84 -22.5t-78 -89.5q-33 -52 -140 -256z" glyph-name="B" horiz-adv-x="850" unicode="B"/>
<glyph d="M944 744q-5 -8 -10 -8q-6 0 -6 8q0 34 -46 66t-98 32q-175 0 -300 -114q-221 -201 -221 -453q0 -102 52 -175q65 -91 185 -91q86 0 158.5 46.5t114.5 112.5q13 20 13 31q0 5 -1.5 8.5t-1.5 5.5q0 4 5 4q2 0 3.5 -1.5t7 -6.5t12.5 -10q5 -4 11 -7.5t9.5 -5.5t5.5 -4.5 t2 -5.5q0 -12 -17 -35q-54 -76 -153 -118.5t-209 -42.5q-72 0 -134.5 22t-99.5 68q-62 78 -62 185q0 138 80.5 265.5t215.5 226.5q189 139 388 139q29 0 54.5 -7t41.5 -17t27 -21.5t16 -20t5 -12.5q0 -10 -20.5 -31t-27.5 -33z" glyph-name="C" horiz-adv-x="860" unicode="C"/>
<glyph d="M430 122q40 -28 65.5 -43t67 -29.5t82.5 -14.5q119 0 225 74t165 184.5t59 221.5q0 149 -73 234.5t-203 105.5q-24 -127 -148 -382q-40 -82 -104.5 -179.5t-135.5 -171.5zM370 129q-52 54 -108 54q-39 0 -79 -37.5t-40 -86.5q0 -50 58 -53h3q67 0 166 123zM717 886 q200 0 319.5 -110t119.5 -308q0 -131 -65.5 -243t-182 -178.5t-256.5 -66.5q-49 0 -89 9.5t-70 28t-49 35t-42 41.5q-113 -106 -212 -106q-41 0 -72.5 27.5t-31.5 64.5q0 60 49.5 93t106.5 34q63 0 146 -56q86 114 190 319q124 247 157 391h-2q-130 0 -220.5 -67t-90.5 -129 q0 -6 1 -10.5t1.5 -7t1.5 -4.5t1 -3q0 -4 -5 -4q-2 0 -6 2.5t-10.5 6.5t-11.5 7q-30 17 -30 32q0 72 108 137t245 65z" glyph-name="D" horiz-adv-x="1140" unicode="D"/>
<glyph d="M430 -24q-100 0 -186 60t-86 154q0 68 29.5 126t73.5 93.5t96 64t96 43t73.5 24.5t29.5 13q0 8 -12 16q-61 42 -61 117q0 31 19 65t54.5 64.5t95 50t130.5 19.5q20 0 52 -4t69.5 -12.5t64 -25t26.5 -38.5q0 -9 -3.5 -16t-11 -19t-13.5 -25q-8 -16 -12 -16t-8 12 q-12 41 -61.5 80.5t-124.5 39.5q-55 0 -97.5 -13.5t-64 -34.5t-32 -41t-10.5 -37q0 -38 19.5 -77.5t52.5 -58.5q40 -19 40 -24q0 -17 -8 -27t-34 -13q-88 -10 -155 -36t-106.5 -58.5t-64.5 -74.5t-33.5 -81t-8.5 -82q0 -50 21.5 -88.5t56 -59t70.5 -31t72 -10.5 q137 0 215 72t78 163q0 7 -2 15.5t-2 10.5q0 6 4 6q7 0 28 -15t21 -26q0 -23 -16 -56t-49.5 -69.5t-78.5 -67.5t-110 -51.5t-136 -20.5z" glyph-name="E" horiz-adv-x="834" unicode="E"/>
<glyph d="M480 886q85 0 203.5 -11.5t208.5 -11.5q118 0 129 58q3 18 10 18q8 0 8 -9q0 -35 -69 -75t-151 -40q-58 0 -212 19q-7 -12 -195 -358h138q64 0 117 3t80.5 6t28.5 3q5 0 5 -4q0 -1 -1 -2t-3 -4t-5 -8q-2 -4 -4.5 -9.5t-3.5 -8t-3 -5.5t-4 -4t-5 -1q-75 0 -211.5 3.5 t-143.5 3.5q-142 -265 -201 -388q-20 -41 -31.5 -49t-45.5 -12q-25 -3 -43.5 -10t-22.5 -7q-7 0 -7 5q0 2 3.5 5.5t12 14.5t18.5 26q66 102 128 214q24 43 110 202q-21 -1 -25 -1q-13 0 -13 13q0 15 53 15q111 209 184 366q-59 2 -73 2q-125 0 -190 -63q-20 -20 -22 -20 q-6 0 -6 6t22 28q88 90 232 90z" glyph-name="F" horiz-adv-x="670" unicode="F"/>
<glyph d="M729 339l-24 2t-18 1t-11 0.5t-7 1.5t-2 3q0 15 47 15q49 0 106 -3.5t123 -3.5q14 0 14 -7q0 -2 -4.5 -3.5t-12.5 -5t-14 -9.5q-17 -15 -52 -72q-14 -24 -26.5 -49.5t-26.5 -55.5l-21 -45q-50 -104 -50 -193q0 -83 36 -136t119 -53q67 0 119 51q16 16 26 35.5t15 29.5 t11 10q14 0 14 -11q0 -9 -6 -18q-35 -51 -88 -84.5t-117 -33.5q-107 0 -156.5 60t-49.5 153q0 67 33 148q-122 -90 -275 -90q-122 0 -194.5 81.5t-72.5 197.5q0 138 80.5 265.5t215.5 226.5q189 139 368 139q88 0 152 -57.5t64 -111.5q0 -22 -13 -35q-1 -4 -6 -9.5 t-13.5 -13t-13.5 -14.5q-5 -6 -13 -17t-13 -16.5t-7 -5.5q-6 2 -6 4v2q1 3 5 12.5t6 15.5q4 6 4 18q0 22 -10.5 50.5t-32 60t-65.5 52.5t-102 21q-65 0 -141.5 -29t-138.5 -85q-221 -201 -221 -453q0 -117 65 -192t160 -75q152 0 262 185q41 68 41 101q0 20 -12.5 30.5 t-49.5 14.5z" glyph-name="G" horiz-adv-x="970" unicode="G"/>
<glyph d="M386 409q0 -1 -1.5 -3.5t-2.5 -3.5q-190 -367 -202 -392q-4 -7 -15.5 -10.5t-33 -5.5t-30.5 -4q-16 -3 -25.5 -11.5t-13.5 -8.5t-4 6t71 130q91 158 163 285q-3 19 -8.5 36.5t-5.5 22.5q0 10 6 10q22 0 46 -1q45 84 57 110q74 155 74 224q0 53 -50 53q-73 0 -137 -64 q-20 -20 -22 -20q-6 0 -6 6t22 28q44 46 97 68t89 22q39 0 67 -25.5t28 -69.5q0 -73 -91 -247q-6 -12 -47 -87q43 -1 172 -1q171 1 239 7q29 55 209 379q4 6 11 10t12.5 5.5t19.5 3.5t22 3q18 3 34.5 9t25 9.5t11.5 3.5q6 0 6 -6q0 -2 -2 -3.5t-7 -6t-11.5 -11.5t-18 -21.5 t-23.5 -33.5q-139 -210 -211 -355q-44 -87 -68 -137t-47.5 -113.5t-23.5 -95.5q0 -37 20.5 -58t55.5 -21q42 0 105.5 22.5t114.5 61.5q62 48 136 140q4 6 8 6t4 -4q0 -2 -2 -6q-68 -92 -138 -146q-163 -122 -300 -122q-51 0 -78 30t-27 78q0 17 3.5 36t12.5 43t16.5 43 t23 50.5t24.5 49.5t28.5 55.5t28.5 54.5q-27 13 -143 13q-233 0 -268 -20z" glyph-name="H" horiz-adv-x="1025" unicode="H"/>
<glyph d="M229 142q-28 -55 -63 -138q-4 -10 -17 -11.5t-36.5 -2t-42.5 -8.5q-10 -4 -17 -9t-11 -5q-10 0 -10 6q0 3 6.5 11t16.5 19.5t13 15.5q36 47 106 177q120 220 277 521q42 81 42 102q0 18 -19 23q-3 1 -9 2t-8.5 2t-2.5 4q0 13 16 13q44 0 103.5 4.5t68.5 4.5q4 0 7 -4 t3 -7q0 -4 -3.5 -4.5t-14 -4.5t-22.5 -14q-27 -22 -85 -129q-135 -249 -298 -568z" glyph-name="I" horiz-adv-x="400" unicode="I"/>
<glyph d="M506 886q19 0 75.5 -15.5t96.5 -15.5q60 0 96 9.5t52.5 18.5t28.5 9q8 0 8 -6q0 -3 -4.5 -6l-12 -8t-11.5 -10q-38 -45 -73 -97t-59 -91t-56 -103t-46.5 -94.5t-49.5 -107.5t-47 -103q-118 -256 -266 -432q-200 -237 -377 -237q-78 0 -121.5 40.5t-43.5 80.5q0 25 4 37 t18 33q3 4 6 10t5 9.5t4.5 6t5.5 2.5q6 0 6 -5q0 -3 -3.5 -10.5t-3.5 -12.5q0 -23 14 -51t52.5 -53.5t93.5 -25.5q87 0 140 32.5t124 117.5q62 74 237 425q20 40 70.5 147.5t91 185t80.5 138.5l77 116q-33 -5 -64 -5q-56 0 -107 16t-97 16q-59 0 -124 -65q-20 -20 -22 -20 q-6 0 -6 6t22 28q45 45 98 67.5t88 22.5z" glyph-name="J" horiz-adv-x="576" unicode="J"/>
<glyph d="M542 780q0 -58 -74 -200q-5 -9 -7 -14q138 62 297.5 142.5t212.5 119.5q19 14 50.5 31t41.5 17q4 0 4 -4q0 -7 -35 -37.5t-99.5 -72.5t-129.5 -68l-358 -160l-82 -150q16 -27 45.5 -78t47 -80.5t47.5 -78t62 -97.5q76 -115 115 -155q76 -79 163 -79q92 0 186 72q4 4 8 4 q2 0 2 -2q0 -29 -72.5 -62.5t-145.5 -33.5q-113 0 -179.5 43.5t-142.5 158.5q-99 152 -182 304q-111 -215 -168 -302q-5 -8 -12.5 -12.5t-36.5 -9t-80 -4.5q-14 0 -14 6q0 2 6.5 5t19.5 11t24 22q115 141 223 352q-16 27 -40 54.5t-36 27.5q-3 0 -10 -2t-10 -2q-8 0 -8 8 q0 9 194 74q82 150 82 230q0 44 -17.5 69t-51.5 25q-19 0 -54 -15.5t-74 -54.5q-20 -20 -22 -20q-6 0 -6 6t22 28q44 46 97 68t89 22q54 0 81 -31.5t27 -74.5zM325 448l26 46q-11 -3 -27.5 -9t-18.5 -7q7 -13 20 -30z" glyph-name="K" horiz-adv-x="770" unicode="K"/>
<glyph d="M276 124q-38 56 -76 56q-45 0 -87.5 -55.5t-42.5 -101.5q0 -21 11.5 -35t29.5 -14q30 0 64 27.5t51.5 51t43.5 62.5zM676 781q0 -122 -131 -356q-119 -211 -198 -309q80 -111 112 -147q89 -101 220.5 -162t256.5 -61q66 0 116.5 20.5t74.5 49.5q6 8 13 17.5t10 14 t6.5 7.5t7.5 3q5 0 5 -6q0 -16 -30 -48q-43 -46 -120.5 -76t-150.5 -30q-111 0 -228 49t-217 164q-59 67 -115 161q-122 -122 -231 -122q-26 0 -43 16t-17 43q0 57 78 127.5t133 70.5q26 0 41 -8t36 -30q117 184 168 283q56 110 86 191.5t30 114.5q0 44 -17.5 69t-51.5 25 q-19 0 -54 -15.5t-74 -54.5q-20 -20 -22 -20q-6 0 -6 6t22 28q44 46 97 68t89 22q54 0 79 -30.5t25 -74.5z" glyph-name="L" horiz-adv-x="680" unicode="L"/>
<glyph d="M542 780q0 -40 -16 -85q35 36 57 57t58.5 51.5t70.5 45.5t64 15q54 0 89.5 -32.5t35.5 -111.5q111 102 177 141t138 39q49 0 85 -28.5t36 -87.5q0 -43 -34.5 -101t-83.5 -123.5t-97.5 -141t-83 -177t-34.5 -207.5q0 -76 19 -133.5t51.5 -90t71 -48.5t80.5 -16 q115 0 204 110q6 7 10.5 14t6.5 9.5t3.5 5t2.5 3t3 0.5q4 0 4 -4q0 -15 -21 -45t-54.5 -62t-86 -55.5t-106.5 -23.5q-118 0 -194 76t-76 214q0 84 23.5 166.5t58.5 145.5t76.5 127t76.5 113.5t58.5 102t23.5 95.5q0 58 -28 86t-61 28q-100 0 -261 -182q-20 -48 -34 -68 q-10 -14 -45 -33t-49 -19q-8 0 -8 4q0 18 60 78q8 21 8 56q0 40 -10.5 67t-28 38.5t-31.5 15.5t-30 4q-38 0 -110.5 -68t-130.5 -162q-67 -106 -165 -305.5t-106 -213.5q-15 -28 -29 -40.5t-23 -15t-35 -5.5q-25 -3 -50 -12t-29 -9q-7 0 -7 5q0 2 6 6t18.5 14t23.5 25 q56 73 132 216q22 41 57.5 105.5t53 96.5t42 79t36 73t24.5 57.5t17.5 54t4.5 41.5q0 44 -17.5 70.5t-51.5 26.5q-19 0 -54 -15.5t-74 -54.5q-20 -20 -22 -20q-6 0 -6 6t22 28q44 46 97 68t89 22q54 0 81 -31.5t27 -74.5z" glyph-name="M" horiz-adv-x="1200" unicode="M"/>
<glyph d="M386 848q-18 3 -18 5q0 12 33 18.5t64 6.5q43 0 58 -29t21 -100q3 -32 9.5 -141t12.5 -177q17 -180 44 -341h2q29 58 90.5 191t90.5 193q81 165 201 362q5 8 9.5 14t8 11t8 9t7 7t8.5 5.5t8.5 4t9.5 3.5t10 3t13 3.5l14 3.5q61 16 120 16q8 0 8 -3q0 -2 -13 -3.5 t-29 -3.5t-21 -4q-43 -20 -104 -80q-101 -101 -230 -355q-146 -289 -214 -473q-4 -10 -7.5 -13.5t-15.5 -7.5q-7 -3 -14.5 -6.5t-11.5 -5.5t-8 -2q-16 0 -20 26q-11 69 -20 137.5t-13.5 108.5t-11 101t-8.5 84q-20 189 -35 369h-3q-100 -240 -134 -311q-14 -29 -56 -123.5 t-87.5 -188.5t-89.5 -174q-8 -14 -15.5 -19t-32.5 -9.5t-46 -10.5q-5 -1 -11.5 -4t-11 -4.5t-8.5 -1.5q-7 0 -7 7q0 1 10.5 9t28 24.5t31.5 33.5q112 139 274 475q124 254 124 331q0 27 -22 29z" glyph-name="N" horiz-adv-x="850" unicode="N"/>
<glyph d="M1029 620q0 -196 -182 -403q-101 -114 -226 -176.5t-248 -62.5q-133 0 -202 71t-69 185q0 117 64 237t139 202q78 91 198.5 152t224.5 61q64 0 104.5 -35t40.5 -79q0 -5 -4.5 -9.5t-13.5 -12.5t-16 -16t-14 -20t-11 -19t-7 -7q-5 0 -5 7q0 25 -7 51q-15 54 -51 77t-77 23 q-77 0 -167 -58t-152 -146q-145 -199 -145 -380q0 -108 58 -175.5t168 -67.5q108 0 210.5 62.5t174.5 177.5q47 75 84 174t37 200q0 94 -23 158t-86 88q-8 3 -8 6q0 2 4 2q22 0 65 -21.5t67 -47.5q75 -80 75 -198z" glyph-name="O" horiz-adv-x="960" unicode="O"/>
<glyph d="M90 34q71 116 152 278q114 228 144 311q25 71 25 110q0 6 -5 11.5t-5 7.5q0 4 5 5.5t33 5.5q20 3 37.5 8.5t27 9.5t10.5 4q14 0 14 -10q0 -7 -22 -65.5t-43 -102.5l2 -1q29 38 62.5 75t89 89t118.5 84t121 32q65 0 107.5 -47t42.5 -127q0 -99 -81 -193t-210 -151 t-263 -57q-71 0 -124 16q-27 -55 -53.5 -117t-54.5 -132t-30 -74q-4 -10 -17 -11.5t-36.5 -2.5t-42.5 -8q-10 -4 -17 -9t-11 -5q-10 0 -10 6q0 3 6.5 14t16 26.5t11.5 19.5zM351 374q78 -36 165 -36q102 0 199 53.5t155 134.5t58 161q0 63 -36 103t-92 40q-66 0 -136 -46.5 t-129.5 -121t-104.5 -146t-79 -142.5z" glyph-name="P" horiz-adv-x="820" unicode="P"/>
<glyph d="M446 817q0 30 95.5 59.5t151.5 29.5q141 0 218 -89.5t77 -250.5q0 -160 -108.5 -315.5t-270.5 -223.5q38 -131 109.5 -214t168.5 -83q73 0 133.5 46t120.5 127q5 8 13 8q5 0 5 -6q0 -4 -3 -8q-138 -196 -305 -196q-101 0 -181.5 82.5t-124.5 221.5q-62 -17 -123 -17h-2 q-135 0 -210 86.5t-75 214.5q0 141 88.5 272.5t277.5 216.5q37 17 48 17t11 -9q0 -3 -7 -5t-23.5 -7.5t-32.5 -13.5q-59 -30 -118 -95q-74 -80 -112 -178t-38 -191q0 -114 61.5 -190.5t174.5 -77.5q40 0 72 7q-34 122 -34 261q0 10 6 15t29 14q9 4 18 8.5l14 7t8 2.5 q6 0 6 -4q0 -1 -1 -5t-2 -7q-4 -31 -4 -69q0 -105 25 -204q133 52 217 184t84 282q0 103 -25 176t-68.5 109.5t-90 52t-102.5 15.5q-78 0 -141 -54q-16 -12 -20 -12q-10 0 -10 10z" glyph-name="Q" horiz-adv-x="919" unicode="Q"/>
<glyph d="M72 -32q-10 0 -10 6q0 3 8 15.5t18.5 28t13.5 20.5q67 123 109 208t67 132q-28 48 -28 55q0 3 1 5.5t3 4.5t4.5 3.5t6.5 2.5t7.5 2t9.5 2.5t11 2t13 2t14 2.5q68 129 112 194q67 106 182 169t214 63q55 0 95 -30t40 -80q0 -121 -132.5 -198.5t-434.5 -125.5l-55 -105 l233 -367q30 -47 45 -70t38 -53.5t38.5 -44.5t37 -28.5t44 -19.5t49.5 -5q64 0 99.5 21t64.5 62q9 14 32 14q14 0 14 -8q0 -23 -43.5 -50.5t-102 -45.5t-102.5 -18q-151 0 -224 108q-43 64 -131 237t-116 222q-23 -49 -47.5 -110t-45.5 -116t-28 -71q-4 -10 -17 -11.5 t-36.5 -2.5t-42.5 -8q-10 -4 -17 -9t-11 -5zM410 478q46 6 97 16.5t119.5 32.5t120.5 49.5t89 70t37 91.5q0 42 -30.5 75t-84.5 33q-36 0 -68.5 -12t-63 -38.5t-55.5 -54.5t-55 -76t-51.5 -86.5t-54.5 -100.5zM296 414l10 20l-20 -4q4 -6 10 -16z" glyph-name="R" horiz-adv-x="760" unicode="R"/>
<glyph d="M76 136q0 6 24 30q14 14 28.5 31.5t22 27t9.5 9.5q6 0 6 -4l-9 -14q-9 -15 -9 -26q0 -42 15.5 -75t39 -52.5t53.5 -32.5t56.5 -17.5t51.5 -4.5q115 0 187.5 73t72.5 147q0 44 -21 89t-51.5 84t-61 77t-51.5 80t-21 80q0 66 54.5 125t130 91t143.5 32q32 0 59 -9t44 -22 t29 -27t17 -24t5 -14t-7 -10t-20 -15t-19 -13q-17 -12 -18 -12q-6 0 -6 6q0 36 -42.5 66t-105.5 30q-90 0 -142 -49.5t-52 -112.5q0 -36 22.5 -76t54.5 -77t64 -75t54.5 -81.5t22.5 -84.5q0 -80 -66 -156t-161 -120t-183 -44q-58 0 -103 16.5t-69 43t-36 54.5t-12 56z" glyph-name="S" horiz-adv-x="752" unicode="S"/>
<glyph d="M480 886q85 0 208.5 -11.5t213.5 -11.5q68 0 109 16.5t46 41.5q3 18 10 18q8 0 8 -9q0 -35 -69.5 -74.5t-151.5 -39.5q-71 0 -171 10q-76 -132 -214 -392q-107 -201 -192 -373q-14 -29 -26 -41t-20 -14.5t-34 -5.5q-25 -3 -45 -10t-24 -7q-7 0 -7 5q0 3 3 6t12 13t19 25 q65 92 133 216q239 438 305 588q-92 8 -149 8q-126 0 -190 -62q-20 -20 -22 -20q-6 0 -6 6t22 28q88 90 232 90z" glyph-name="T" horiz-adv-x="695" unicode="T"/>
<glyph d="M561 778q0 -38 -43 -119.5t-94.5 -162.5t-94.5 -176.5t-43 -158.5q0 -66 31.5 -99.5t87.5 -33.5q97 0 206.5 93.5t209.5 238.5q49 108 117.5 247.5t73.5 149.5q13 28 26.5 41.5t39.5 21.5q75 24 87 24q8 0 8 -8q0 -3 -5.5 -6t-15.5 -10t-18 -19q-44 -66 -121.5 -204.5 t-118.5 -234.5q-53 -122 -69.5 -171.5t-16.5 -97.5q0 -28 13 -47.5t40 -19.5q65 0 174 82q62 48 136 140q4 6 8 6t4 -4q0 -2 -2 -6q-68 -92 -138 -146q-143 -108 -236 -108q-94 0 -94 97q0 19 8 46t16.5 46t22 47t15.5 33h-1q-49 -57 -94 -101t-99 -86.5t-110.5 -65.5 t-110.5 -23q-75 0 -120 39t-45 115q0 59 43.5 158.5t96 187.5t96 174t43.5 122q0 25 -13 46t-40 21q-63 0 -127 -64q-20 -20 -22 -20q-6 0 -6 6t22 28q87 90 176 90q39 0 68 -29t29 -79z" glyph-name="U" unicode="U"/>
<glyph d="M502 781q0 -114 -48.5 -307.5t-97.5 -311.5q200 291 456 514q178 156 306 210q20 8 26 8q4 0 12 -4.5t8 -10.5t-6.5 -12.5t-18.5 -9.5q-37 -8 -90 -37q-114 -63 -246 -185q-134 -124 -234.5 -246.5t-200.5 -270.5q-7 -11 -15 -23t-12 -17.5t-8.5 -12t-5.5 -8.5t-3.5 -6 t-3 -5t-2.5 -4.5t-3 -5.5l-3.5 -7l-5.5 -11q-2 -5 -9 -9.5t-13 -7.5t-17.5 -7t-15.5 -6q-5 -2 -17.5 -8t-21.5 -10t-13 -4q-14 0 -14 12q0 16 15.5 50.5t40 80.5t31.5 61q64 146 101.5 305.5t37.5 282.5q0 92 -69 92q-11 0 -26.5 -4t-45 -20.5t-56.5 -43.5q-20 -20 -22 -20 q-6 0 -6 6t22 28q87 90 180 90q55 0 84.5 -31.5t29.5 -73.5z" glyph-name="V" horiz-adv-x="798" unicode="V"/>
<glyph d="M542 780q0 -108 -61 -291t-126 -328h1q6 7 27 30.5t28 31.5t26.5 29.5t28.5 30l27 25.5t29 24.5t28 18.5t30 15.5t28 8.5t30 4q48 0 73.5 -71.5t25.5 -162.5h2q6 10 33.5 59t35 62t32.5 57t35.5 60.5t34 55t37.5 58t36 52t39.5 54t39 47t42.5 47.5q118 124 256 189 q18 8 24 8q11 0 19.5 -8t8.5 -19q0 -6 -1.5 -10t-6 -6.5t-7.5 -3.5t-11 -3q-123 -27 -259 -165q-108 -110 -201 -265t-153 -321q-27 -74 -34.5 -85.5t-34.5 -23.5q-42 -18 -52 -18q-18 0 -18 12q0 14 11.5 44t11.5 47q0 46 -4 86.5t-12.5 79t-26 61.5t-42.5 23 q-37 0 -83 -44t-138 -160q-21 -27 -28.5 -54t-16.5 -43q-3 -5 -9.5 -10t-12.5 -8t-15.5 -7.5t-14.5 -7.5q-44 -19 -52 -19q-18 0 -18 12q0 16 16.5 50.5t43.5 80.5t34 61q76 159 124.5 316t48.5 272q0 44 -17.5 69t-51.5 25q-19 0 -54 -15.5t-74 -54.5q-20 -20 -22 -20 q-6 0 -6 6t22 28q44 46 97 68t89 22q54 0 81 -31.5t27 -74.5z" glyph-name="W" horiz-adv-x="1019" unicode="W"/>
<glyph d="M1050 829q-196 -132 -465 -371q24 -267 56 -369q43 -144 127 -144q38 0 59 17q4 3 9 9t8 10t4 4q4 0 4 -5q0 -8 -12 -23.5t-39.5 -30t-61.5 -14.5q-138 0 -179 143q-17 59 -47 338q-271 -248 -410 -389q-13 -13 -38 -13q-30 0 -57 -8q-10 -3 -17 -7t-11 -6t-7 -2 q-8 0 -7 4v1l1 1q2 3 18 14t38.5 26t34.5 24q115 92 451 388q-13 125 -30 248q-11 81 -29 120.5t-51 39.5q-50 0 -102 -52q-20 -20 -22 -20q-6 0 -6 6t22 28q90 90 164 90q89 0 107 -160q4 -37 21 -235q199 178 370 325q47 41 90 50q26 6 71 6q6 0 11 -2t4 -5q0 -3 -3 -3h-2 q-2 1 -4 1q-19 0 -70 -34z" glyph-name="X" horiz-adv-x="796" unicode="X"/>
<glyph d="M499 432q-39 -54 -131 -234.5t-97 -187.5q-7 -10 -19.5 -12.5t-37 -5.5t-45.5 -10q-12 -4 -19.5 -9t-11.5 -5q-12 0 -12 6q0 2 8 11.5t21 25.5t22 29q166 250 238 413q44 99 44 211q0 70 -48.5 125t-114.5 55q-28 0 -69.5 -15.5t-72.5 -46.5q-20 -20 -22 -20q-6 0 -6 6 t22 28q46 47 97 68.5t93 21.5q96 0 150 -59t54 -142q0 -78 -25 -164h1q137 135 227.5 203t232.5 133q70 32 133 32q27 0 50 -12t23 -23q0 -4 -3 -4l-3 2q-4 2 -10 2q-34 0 -118 -20q-164 -39 -296.5 -135.5t-254.5 -266.5z" glyph-name="Y" horiz-adv-x="715" unicode="Y"/>
<glyph d="M503 842q-22 0 -35.5 -2t-39.5 -16t-54 -42q-20 -20 -22 -20q-6 0 -6 6t22 28q44 46 97 68t89 22t147 -21.5t154 -21.5q94 0 179.5 15.5t90.5 15.5q8 0 19 -14q15 -19 15 -20q0 -3 -9 -6q-20 -6 -76 -54q-46 -40 -180 -157t-213.5 -187t-198.5 -180t-215 -206v-1 q101 -7 203.5 -34t174.5 -54.5t179 -50t220 -22.5q41 0 74 21.5t33 53.5q0 10 6 10q1 0 3 -4.5t4.5 -11.5t4.5 -11q12 -26 12 -32q0 -36 -31.5 -63.5t-71.5 -27.5q-68 0 -146 18t-153.5 44t-156.5 52.5t-184.5 44.5t-209.5 18q-27 0 -71.5 -4.5t-72.5 -4.5q-29 0 -29 7 q0 12 15 13q29 4 106 70q394 333 824 741q-62 -13 -173 -13q-69 0 -161.5 16.5t-162.5 16.5z" glyph-name="Z" horiz-adv-x="940" unicode="Z"/>
<glyph d="M364 -126q20 0 20 -8t-20 -8h-317q-10 0 -10 8q0 3 55 100q317 559 537 1027q7 14 11 17.5t15 3.5h269q10 0 10 -6q0 -10 -20 -10q-122 0 -180 -6q-21 -2 -37 -35l-529 -1003q-25 -50 -25 -51q0 -14 24 -18q59 -11 197 -11z" glyph-name="bracketleft" horiz-adv-x="540" unicode="["/>
<glyph d="M254 859q-8 35 -15 65t-11 48t-5 23q0 2 -1.5 5.5t-1.5 4.5q0 2 5 2q9 0 37 -4q7 -2 8 -6q2 -18 26 -136q99 -497 225 -995l2 -6t2 -4.5t1 -2.5q0 -3 -4 -3q-6 0 -32 14q-23 14 -24 20q-94 468 -212 975z" glyph-name="backslash" horiz-adv-x="566" unicode="\"/>
<glyph d="M462 996q-20 0 -20 10q0 8 20 8h317q10 0 10 -8q0 -3 -55 -100q-317 -559 -537 -1027q-7 -14 -11 -17.5t-15 -3.5h-269q-10 0 -10 6q0 10 20 10q45 0 180 14q21 2 37 35l529 995q25 46 25 51q0 18 -20 21q-32 6 -201 6z" glyph-name="bracketright" horiz-adv-x="540" unicode="]"/>
<glyph d="M436 856q6 10 26.5 21t25.5 11q1 0 6 -12q36 -85 81 -158t71 -107t26 -35q0 -8 -23.5 -20t-29.5 -12q-5 0 -13 12q-92 131 -156 272q-99 -125 -178 -248q-3 -6 -24.5 -18t-27.5 -12q-2 0 -2 2q0 1 2 3q49 49 216 301z" glyph-name="asciicircum" horiz-adv-x="570" unicode="^"/>
<glyph d="M602 -100h-634q-8 0 -8 4q0 2 1 3t2.5 1.5t2.5 1.5q4 4 9 13t12.5 13t22.5 4h634q6 0 6 -4q0 -1 -3 -3.5t-8.5 -6.5t-9.5 -9q-15 -17 -27 -17z" glyph-name="underscore" horiz-adv-x="634" unicode="_"/>
<glyph d="M331 551q0 -5 -8 -5q-6 0 -11 14l-50 154q-10 27 -10 42q0 8 8 20t16 12q9 0 12 -15l39 -199q4 -20 4 -23z" glyph-name="grave" horiz-adv-x="300" unicode="`"/>
<glyph d="M652 98q-141 -110 -232 -110q-78 0 -78 82q-121 -75 -187 -75q-44 0 -66 30.5t-22 79.5q0 73 52 154.5t132.5 136.5t155.5 55q43 0 79.5 -24.5t49.5 -70.5q26 0 26 -22q0 -13 -2.5 -25t-9 -24.5t-11 -21t-15.5 -21.5t-15.5 -18t-18 -19t-16.5 -17q-6 -6 -22 -21t-24 -23 q-12 -31 -12 -66q0 -52 56 -52q63 0 172 82q62 48 136 140q4 6 8 6t4 -4q0 -2 -2 -6q-68 -92 -138 -146zM404 427q-63 0 -123.5 -52.5t-95.5 -127t-35 -140.5q0 -78 55 -78q62 0 139 61q27 96 76 162q60 85 100 100q-13 34 -45 54.5t-71 20.5zM435 166q101 101 101 138 q0 8 -8 8q-23 0 -93 -146z" glyph-name="a" horiz-adv-x="612" unicode="a"/>
<glyph d="M502 332q0 42 -27.5 60t-56.5 18q-35 0 -88.5 -29.5t-107.5 -85.5q-5 -11 -24 -47t-26 -51.5t-19 -42.5t-16.5 -47.5t-4.5 -38.5q0 -59 58 -59q83 0 157.5 56t114.5 130t40 137zM131 248q44 82 127.5 226.5t134 234t92.5 186t42 146.5q0 73 -53 73q-47 0 -100 -43 q-17 -14 -19 -14q-5 0 -5 5q0 3 19 19q41 33 80 51.5t61 18.5q39 0 64.5 -24.5t25.5 -66.5q0 -28 -14.5 -71.5t-44.5 -103.5t-52.5 -102t-63 -113.5t-51.5 -90.5l-133 -240q150 112 239 112q40 0 69 -28.5t29 -73.5q0 -58 -35.5 -122.5t-93 -118t-138.5 -89t-163 -35.5 q-96 0 -96 81q0 14 5.5 33t16 42t18.5 38t22 40t17 30z" glyph-name="b" horiz-adv-x="600" unicode="b"/>
<glyph d="M513 98q-80 -58 -147 -89t-145 -31q-66 0 -110.5 30.5t-44.5 100.5q0 61 38 125.5t92 111t112 76t99 29.5q24 0 38 -16t14 -42q0 -19 -6 -27.5t-32 -22.5q-20 -10 -28 -10q-4 0 -4 2q0 1 1 3.5t2 7.5t1 11q0 26 -15 40t-31 14q-40 0 -87.5 -50t-79.5 -121t-32 -128 q0 -108 109 -108q107 0 248 104q62 48 136 140q4 6 8 6t4 -4q0 -2 -2 -6q-68 -92 -138 -146z" glyph-name="c" horiz-adv-x="473" unicode="c"/>
<glyph d="M498 380q-12 20 -36 33.5t-50 13.5q-58 0 -121.5 -51t-104.5 -125t-41 -139q0 -80 51 -80q68 0 190 102q4 15 9 29t9 25t10 25t9.5 22.5t11 23.5t10.5 22t12 23.5t12.5 22.5t14 26t14.5 27zM674 98q-140 -110 -233 -110q-63 0 -63 90q0 18 4 34q-143 -118 -236 -118 q-43 0 -63.5 30.5t-20.5 77.5q0 72 56 155t138 138.5t151 55.5q63 0 102 -51q19 35 58.5 105.5t56.5 100.5q118 212 155 304q35 86 35 133q0 32 -18.5 57t-44.5 25q-48 0 -115 -54q-18 -14 -19 -14q-5 0 -5 5q0 3 19 19q89 70 162 70q52 0 74 -33.5t22 -76.5 q0 -40 -32.5 -117t-71 -147.5t-111.5 -197.5q-71 -125 -133 -239q5 -20 5 -24q0 -5 -4 -5q-2 0 -9 14q-27 -55 -40.5 -83.5t-27 -74.5t-13.5 -83q0 -59 46 -59q60 0 168 83q61 46 136 140q4 6 8 6t4 -4q0 -2 -2 -6q-68 -92 -138 -146z" glyph-name="d" horiz-adv-x="632" unicode="d"/>
<glyph d="M180 252q198 48 198 144q0 11 -6.5 19.5t-19.5 8.5q-42 0 -88 -49t-84 -123zM193 -16q-57 0 -96 31t-39 88q0 53 25.5 106.5t65 95.5t85.5 76t89.5 52t74.5 18q21 0 36.5 -13.5t15.5 -36.5q0 -9 -8 -24.5t-28.5 -36.5t-50.5 -41t-80.5 -39t-111.5 -29q-32 -64 -32 -127 q0 -46 27 -70t70 -24q49 0 118 29t122 69q62 48 136 140q4 6 8 6t4 -4q0 -2 -2 -6q-68 -92 -138 -146q-140 -114 -291 -114z" glyph-name="e" horiz-adv-x="444" unicode="e"/>
<glyph d="M-733 -700q0 -89 44.5 -152t121.5 -63q47 0 96 31t91 82.5t74 101.5t60 105q164 325 244 492q-25 -9 -77 -28q-243 -89 -353 -149q-251 -137 -292 -333q-9 -42 -9 -87zM440 98q-22 -17 -47.5 -33t-56 -31t-51.5 -25.5t-57 -24.5t-48 -18.5t-49 -17.5l-37 -14 q-44 -89 -113.5 -219t-116.5 -215l-47 -86q-35 -65 -80 -126.5t-101 -116.5t-122.5 -88.5t-130.5 -33.5q-72 0 -127.5 64.5t-55.5 157.5q0 263 324 448q139 79 419 180q65 23 68 24q16 34 70.5 147t86.5 178q14 29 82.5 171t110 225.5t71.5 135.5q98 171 181 247.5t166 76.5 q32 0 54 -20.5t29.5 -41t7.5 -35.5q0 -34 -9 -59t-31 -59q-9 -15 -37 -27q-13 -6 -20 -6q-3 0 -3 2t1 3q22 33 29.5 56t7.5 58q0 37 -25 63t-57 26q-61 0 -113.5 -67t-130.5 -223q-41 -82 -83.5 -174.5t-98.5 -220.5t-79 -179q-68 -148 -114 -242q66 22 101.5 35t106.5 46.5 t117 68.5q62 48 136 140q4 6 8 6t4 -4q0 -2 -2 -6q-68 -92 -138 -146z" glyph-name="f" horiz-adv-x="400" unicode="f"/>
<glyph d="M-341 -856q-84 0 -151 61.5t-67 156.5q0 62 25.5 119t64 101.5t98.5 87t114.5 72t127 59t122 46.5t111.5 37q48 14 51 14q9 0 9 -7q0 -3 -2 -5.5t-6.5 -5t-8 -3.5t-11 -3.5l-10.5 -3.5q-192 -62 -254 -87q-295 -121 -347 -306q-11 -41 -11 -86q0 -89 58.5 -148t145.5 -59 q95 0 176.5 79.5t164.5 222.5q302 526 400 690h-1q-69 -73 -156 -124.5t-160 -51.5q-42 0 -63.5 28.5t-21.5 75.5q0 71 52.5 156t131.5 144.5t147 59.5q102 0 162 -132l6 12q6 13 10 17.5t13 5.5t10 1t6.5 2t7.5 2q1 0 3.5 -2t2.5 -4q0 -6 -6 -12q-4 -4 -9 -13.5 t-12.5 -23.5t-12.5 -23q6 -12 6 -20t-6 -8q-1 0 -8 14l-423 -787q-31 -57 -81 -116.5t-112.5 -112.5t-138.5 -86.5t-147 -33.5zM542 320q-60 108 -152 108q-49 0 -107.5 -47.5t-100.5 -125.5t-42 -153q0 -24 16.5 -45t39.5 -21q101 0 278 177q25 25 68 107z" glyph-name="g" horiz-adv-x="580" unicode="g"/>
<glyph d="M847 -267q4 6 8 6t4 -4q0 -2 -2 -6q-46 -70 -111 -103.5t-131 -33.5q-104 0 -182 77t-78 195q0 74 30 157.5t66.5 142t66.5 114.5t30 83q0 20 -14.5 32.5t-41.5 12.5q-48 0 -113.5 -44t-115.5 -98q-52 -56 -142 -258q-3 -8 -16 -8q-23 0 -53 -7t-31 -7q-4 0 -4 4 q0 1 4 6.5t12 18t15 25.5q95 166 120 210q30 58 89 163t93 168q5 10 33.5 62.5t45 83.5t43 85t41.5 91t27 77t12 65q0 32 -18.5 57t-44.5 25q-48 0 -115 -54q-17 -14 -19 -14q-5 0 -5 5q0 3 19 19q41 33 87 51.5t75 18.5q52 0 74 -33.5t22 -76.5q0 -24 -13 -63t-40 -92.5 t-50 -96.5t-60.5 -111t-54.5 -99q-35 -65 -85 -160.5t-73 -137.5q92 81 143 112q85 52 159 52q38 0 58.5 -24.5t20.5 -57.5q0 -25 -21.5 -66t-52 -89.5t-61.5 -104t-52.5 -125t-21.5 -136.5q0 -101 55 -163t169 -62q53 0 106.5 28t93.5 88z" glyph-name="h" horiz-adv-x="650" unicode="h"/>
<glyph d="M400 734q17 0 26 -13t9 -30q0 -24 -17.5 -42.5t-39.5 -18.5q-16 0 -26.5 13t-10.5 32t19 39t40 20zM305 411q0 -42 -76 -165t-76 -165q0 -55 75 -55q59 0 168 82q62 48 136 140q4 6 8 6t4 -4q0 -2 -2 -6q-68 -92 -138 -146q-51 -41 -114.5 -73.5t-119.5 -32.5 q-44 0 -70.5 19.5t-26.5 57.5q0 43 38.5 114t77.5 133t39 84q0 32 -20 32q-23 0 -74 -34q-9 -6 -10 -6q-4 0 -4 4t6 8q75 56 120 56q29 0 44 -13.5t15 -35.5z" glyph-name="i" horiz-adv-x="364" unicode="i"/>
<glyph d="M416 734q17 0 26.5 -12.5t9.5 -28.5q0 -25 -18 -44t-40 -19q-16 0 -26 13t-10 33q0 19 18.5 38.5t39.5 19.5zM7 -44q-173 -32 -251 -57q-66 -21 -124.5 -47.5t-117.5 -65t-101 -82.5t-68 -103t-26 -124q0 -75 46.5 -131.5t124.5 -56.5q45 0 90.5 25t84 67t67 82.5 t52.5 84.5zM388 98q-45 -39 -133.5 -75t-165.5 -54l-244 -414q-31 -53 -71.5 -102t-91.5 -94t-113.5 -72.5t-124.5 -27.5q-72 0 -130 57t-58 135q0 76 32.5 144t82 116.5t117.5 90t131 67t131 44.5q92 26 265 57q210 381 210 431q0 19 -23 19q-35 0 -68 -22q-9 -6 -10 -6 q-4 0 -4 4t6 8q63 42 172 42q24 0 24 -20q0 -24 -87.5 -190.5t-137.5 -251.5q32 8 73 21t103.5 41.5t106.5 61.5q62 48 136 140q4 6 8 6t4 -4q0 -2 -2 -6q-68 -92 -138 -146z" glyph-name="j" horiz-adv-x="348" unicode="j"/>
<glyph d="M251 274q77 81 176.5 128.5t157.5 47.5q32 0 32 -10q0 -5 -18 -29t-22 -24t-5.5 3.5t-4 7t-16.5 7t-39 3.5q-52 0 -113.5 -34t-106.5 -92t-45 -118q0 -22 4 -42.5t16 -47t41.5 -42.5t72.5 -16q101 0 221 92q62 48 136 140q4 6 8 6t4 -4q0 -2 -2 -6q-68 -92 -138 -146 q-136 -116 -269 -116q-81 0 -121.5 39t-40.5 107l1 12h-1q-45 -88 -63 -129q-2 -5 -11.5 -7t-24.5 -3t-24 -5q-32 -12 -34 -12q-8 0 -8 7q0 2 5.5 10t15.5 22.5t17 26.5l116 198q24 40 200 358q40 71 58.5 105t57 109.5t57 130.5t18.5 92q0 32 -18.5 57t-44.5 25 q-48 0 -115 -54q-18 -14 -19 -14q-5 0 -5 5q0 3 19 19q89 70 162 70q52 0 74 -33.5t22 -76.5q0 -58 -53.5 -166.5t-161.5 -295.5q-90 -156 -168 -305z" glyph-name="k" horiz-adv-x="570" unicode="k"/>
<glyph d="M254 278q-62 -121 -72 -155q-8 -28 -8 -55q0 -25 16 -43t42 -18q52 0 99.5 19.5t94.5 63t68.5 67.5t65.5 79q7 8 10 12q4 6 8 6t4 -4q0 -2 -2 -6q-42 -57 -79 -98t-86.5 -83t-107 -64t-119.5 -22q-44 0 -69.5 20.5t-25.5 58.5q0 37 17 78t58 114q56 99 200 358 q40 71 58.5 105t57 109.5t57 130.5t18.5 92q0 32 -18.5 57t-44.5 25q-48 0 -115 -54q-18 -14 -19 -14q-5 0 -5 5q0 3 19 19q89 70 162 70q52 0 74 -33.5t22 -76.5q0 -40 -33.5 -118.5t-69.5 -145t-112 -198.5q-80 -139 -165 -301z" glyph-name="l" horiz-adv-x="402" unicode="l"/>
<glyph d="M305 411q0 -38 -29 -92q1 1 31 28.5t49.5 43.5t48.5 33t49 17q17 0 27 -13t10 -34q0 -17 -5.5 -38.5t-10.5 -34.5l-5 -13l15.5 15.5t38 33.5t55.5 42.5t61.5 33.5t61.5 15q25 0 42 -14t17 -36q0 -26 -35 -80.5t-76.5 -113t-76.5 -149t-35 -179.5q0 -76 41 -134.5 t119 -58.5q77 0 169 66t143 141q4 6 8 6t4 -4q0 -2 -2 -6q-70 -95 -169.5 -163.5t-188.5 -68.5q-83 0 -137.5 59t-54.5 151q0 81 30 168t66 145.5t66 113t30 79.5q0 26 -24 26q-66 0 -190 -129q-1 -2 -7.5 -8.5l-8.5 -8.5t-8 -7.5t-9 -8t-8.5 -7t-10 -6t-10 -4t-11 -3.5 t-11.5 -1q-3 0 -3 3q0 6 8 11.5t10 11.5q41 90 41 122q0 28 -23 28q-26 0 -63.5 -32.5t-71.5 -78.5q-49 -64 -150 -269q-3 -7 -12.5 -8.5t-23.5 -1.5t-23 -3l-33 -12q-5 0 -5 5q0 1 1 2.5t3.5 4t4.5 5.5q44 64 144 247q60 107 60 152q0 32 -20 32q-23 0 -74 -34 q-9 -6 -10 -6q-4 0 -4 4t6 8q75 56 120 56q29 0 44 -13.5t15 -35.5z" glyph-name="m" horiz-adv-x="750" unicode="m"/>
<glyph d="M305 411q0 -39 -32 -97q52 50 122.5 94t116.5 44q31 0 54 -22t23 -52q0 -43 -74.5 -164t-74.5 -156q0 -16 9 -27t23 -11q40 0 94 27.5t96 60.5q62 48 136 140q4 6 8 6t4 -4q0 -2 -2 -6q-68 -92 -138 -146q-71 -57 -141.5 -87.5t-111.5 -30.5q-26 0 -43 15.5t-17 41.5 q0 41 37 108t74 129.5t37 94.5q0 21 -12.5 33t-27.5 12q-76 0 -209 -144l-148 -262q-3 -5 -9.5 -7t-19.5 -2.5t-22 -2.5q-12 -3 -24 -7t-16 -4t-4 4q0 1 1.5 2.5l4.5 4.5t6 7q13 18 51 83q63 109 92 162q16 31 38 83t22 69q0 32 -20 32q-23 0 -74 -34q-9 -6 -10 -6 q-4 0 -4 4t6 8q75 56 120 56q29 0 44 -13.5t15 -35.5z" glyph-name="n" horiz-adv-x="630" unicode="n"/>
<glyph d="M414 451q57 0 90.5 -36t33.5 -96q0 -66 -32.5 -129t-82.5 -107.5t-111.5 -71.5t-117.5 -27t-92 36.5t-36 92.5q0 82 55.5 162t136.5 128t156 48zM385 429q-53 0 -108 -48t-90.5 -119.5t-35.5 -137.5q0 -49 21 -81.5t53 -32.5q81 0 156.5 102.5t75.5 205.5q0 49 -19.5 80 t-52.5 31z" glyph-name="o" horiz-adv-x="560" unicode="o"/>
<glyph d="M432 122q-60 -55 -136 -97.5t-143 -42.5q-33 0 -33 14q0 5 15 26q2 4 6 11.5t7 12t5 4.5q1 0 2 -2.5t2.5 -6.5t3.5 -7q15 -22 48 -22q50 0 120 58t120 134.5t50 127.5q0 33 -16.5 45.5t-36.5 12.5q-47 0 -124 -64t-148 -150q-55 -97 -89 -160q-56 -105 -195.5 -376.5 t-251.5 -471.5q-16 -29 -41 -51.5t-48 -34.5t-46.5 -19t-36 -9t-17.5 -2q-9 0 -9 4q0 3 2 4.5t6 3t10 3.5t15 7t19 13q20 15 71 91t178.5 294.5t308.5 551.5q74 136 103 201.5t29 96.5q0 50 -20 65q-8 6 -8 7q0 2 2.5 4t7.5 5t8 5q7 6 13.5 11.5t9 8.5t7 4.5t10.5 1.5 q15 0 24.5 -18t9.5 -52q0 -52 -32 -112q202 199 316 199q21 0 39 -16t18 -54q0 -54 -40 -122.5t-115 -136.5z" glyph-name="p" horiz-adv-x="560" unicode="p"/>
<glyph d="M800 248q4 6 8 6t4 -4q0 -2 -2 -6q-8 -14 -27 -34.5t-46.5 -47.5t-50.5 -48t-55.5 -50.5t-44.5 -40.5q-108 -101 -266.5 -278.5t-205.5 -244.5q-25 -36 -92 -152.5t-121.5 -207t-64.5 -90.5q-9 0 -20.5 14.5t-11.5 23.5q0 42 60 133t110 151q82 98 123 175 q38 71 189 329.5t190 333.5q-14 -21 -45.5 -53.5t-74.5 -69.5t-95 -63t-96 -26q-45 0 -74.5 27t-29.5 73q0 74 55 158t135 139.5t148 55.5q43 0 64 -22.5t21 -53.5q0 -25 -9.5 -50t-28.5 -25q-12 0 -12 10q0 12 17 29.5t17 42.5q0 24 -17 35.5t-42 11.5q-35 0 -81 -30 t-86 -75.5t-67.5 -106.5t-27.5 -117q0 -66 53 -66q64 0 148.5 70t131.5 168q4 8 9.5 23.5t9 26.5t5.5 12q16 8 44 8q21 0 35.5 -6t14.5 -16q0 -7 -21.5 -35t-53 -70t-49.5 -73l-294 -514q12 13 72.5 78.5t103 111t107 109.5t114.5 108q7 6 29.5 26t37 33t37.5 33.5t39 36 t33.5 32t29 30t17.5 22.5z" glyph-name="q" horiz-adv-x="632" unicode="q"/>
<glyph d="M456 397q-33 0 -70.5 -22t-76 -63.5t-59.5 -67t-50 -64.5q-85 -172 -104 -192q-5 -6 -9 -6q-11 0 -30 24q-18 20 -18 26q0 12 17 34q5 7 56 76q73 138 94 184.5t21 69.5q0 31 -28 31q-21 0 -65 -29q-9 -6 -10 -6q-4 0 -4 4t6 8q75 56 113 56q28 0 42.5 -16.5t14.5 -39.5 q0 -36 -50 -136q38 43 56.5 63t56 55.5t71.5 51.5t66 16q37 0 55 -18.5t18 -37.5q0 -13 -19 -36q-8 -9 -14.5 -20t-9.5 -16.5t-4 -5.5q-5 0 -5 3q0 1 1 5t1 7q0 25 -15.5 43.5t-47.5 18.5z" glyph-name="r" horiz-adv-x="500" unicode="r"/>
<glyph d="M340 420q-33 0 -49 -18t-16 -47q0 -23 14 -47t31.5 -41.5t31.5 -45.5t14 -59q0 -71 -59.5 -124t-134.5 -53q-71 0 -107 34.5t-36 72.5q0 10 8 18q16 12 31.5 26.5t23 22.5t8.5 8q6 0 6 -6q0 -2 -2 -4.5t-5.5 -7.5t-6.5 -11q-7 -16 -7 -32q0 -37 28 -67t77 -30 q43 0 73 31.5t30 75.5q0 36 -11.5 64.5t-26 43.5t-26 38t-11.5 48q0 61 48 101t107 40q37 0 56 -20t19 -40q0 -7 -20 -30q-3 -3 -6.5 -9t-5.5 -9.5t-3 -3.5q-4 0 -4 4q0 1 0.5 4t0.5 6q-1 24 -22 45.5t-48 21.5z" glyph-name="s" horiz-adv-x="430" unicode="s"/>
<glyph d="M366 471q156 25 167 25q6 0 6 -2q0 -6 -14.5 -15t-21.5 -9q-9 0 -32 -4t-59.5 -10.5t-59.5 -10.5l-121 -221q-24 -44 -31.5 -72t-7.5 -64q0 -35 19.5 -53.5t52.5 -18.5q114 0 228 92q62 48 136 140q4 6 8 6t4 -4q0 -2 -2 -6q-68 -92 -138 -146q-143 -116 -276 -116 q-49 0 -82 23t-33 75q0 69 59 168l112 182q-141 -28 -146 -32q-9 -6 -10 -6q-4 0 -4 4t6 8l30 22q15 11 140 32l75 124q74 123 74 163q0 34 -28 34q-18 0 -33 -8q-7 -4 -13 -10t-10 -9.5t-7 -3.5q-5 0 -5 6t28 25q52 32 81 32q22 0 37.5 -16t15.5 -39q0 -22 -17 -61t-36 -71 t-49.5 -82.5t-42.5 -70.5z" glyph-name="t" horiz-adv-x="460" unicode="t"/>
<glyph d="M690 98q-56 -47 -125.5 -78t-115.5 -31q-29 0 -46 16t-17 40q0 31 14 67q-1 -1 -12.5 -12t-16 -15.5t-18 -16t-21.5 -17.5t-22.5 -16.5t-25.5 -16.5t-26.5 -13.5t-29 -11.5t-29.5 -7t-31 -3q-38 0 -68 21.5t-30 67.5q0 41 39.5 108.5t79 130t39.5 89.5q0 32 -20 32 q-7 0 -14 -1.5t-12 -3.5t-13 -6.5t-11 -6.5l-12 -8l-12 -8q-9 -6 -10 -6q-4 0 -4 4t6 8q81 56 120 56q58 0 58 -56q0 -25 -38.5 -89t-77 -130t-38.5 -99q0 -60 64 -60q77 0 202 121q62 131 127 239q35 59 50 59q12 0 29.5 -9t17.5 -23q0 -13 -21 -41.5t-52.5 -69 t-47.5 -69.5q-2 -4 -11 -19.5t-12.5 -22t-11 -21t-11 -24.5t-7.5 -23t-6 -25.5t-2 -24.5q0 -21 12.5 -34.5t35.5 -13.5q32 0 83 24t93 59q62 48 136 140q4 6 8 6t4 -4q0 -2 -2 -6q-68 -92 -138 -146z" glyph-name="u" horiz-adv-x="650" unicode="u"/>
<glyph d="M476 395q-79 -67 -145.5 -143t-100.5 -127.5t-59 -92t-29 -44.5q-1 -1 -28 -8q-24 -4 -25 -4q-9 0 -9 21q0 43 88 251q54 125 54 152q0 26 -22 26q-24 0 -66 -28q-9 -6 -10 -6q-4 0 -4 4t6 8q64 48 118 48q25 0 36.5 -16.5t11.5 -39.5q0 -28 -21 -82t-53 -123t-44 -101 q139 177 206 251q26 28 55 59q29 30 64.5 56t48.5 26l32 -8q4 -1 10.5 -2t10 -2t3.5 -3q0 -1 -4 -1.5t-11.5 -2.5t-13.5 -5q-52 -22 -99 -63z" glyph-name="v" horiz-adv-x="445" unicode="v"/>
<glyph d="M394 -5q-12 -12 -30 -12q-43 0 -43 65q0 16 10.5 74t10.5 83q0 17 -8 17q-33 0 -166 -154q-6 -7 -17.5 -21t-19 -22.5t-17 -18t-17 -14.5t-12.5 -5q-16 0 -16 24q0 58 91 237q71 137 71 159q0 29 -21 29q-19 0 -76 -38q-9 -6 -10 -6q-4 0 -4 4t6 8q4 4 21.5 17t46.5 29 t48 16q27 0 43.5 -15.5t16.5 -44.5q0 -15 -18.5 -55.5t-59.5 -124t-70 -149.5q7 6 60 64t93.5 92.5t65.5 34.5q37 0 37 -46q0 -18 -9.5 -72.5t-9.5 -98.5q72 108 114 169q28 40 65.5 90.5t92.5 111t78 60.5q3 0 8 -1.5t12.5 -3.5t14.5 -4q19 -4 19 -5t-3 -1.5t-9.5 -2.5 t-12.5 -5q-45 -20 -106 -79q-66 -65 -142 -172q-35 -50 -64.5 -101t-44.5 -79.5t-19 -32.5z" glyph-name="w" horiz-adv-x="635" unicode="w"/>
<glyph d="M208 432q-23 0 -74 -34q-9 -6 -10 -6q-4 0 -4 4t6 8q75 56 120 56q79 0 79 -120q0 -11 -5 -86q31 25 92 73t98.5 79t58.5 54q1 1 2.5 3t2 4t2 3t2.5 1q3 0 3 -6q0 -1 -1.5 -8t-3 -16t-1.5 -15q-1 -6 -50 -40q-112 -75 -206 -156q-3 -63 -3 -64q0 -147 84 -147q37 0 94 29 t97 60q62 48 136 140q4 6 8 6t4 -4q0 -2 -2 -6q-68 -92 -138 -146q-70 -57 -146 -92.5t-109 -35.5q-97 0 -97 188v20q-182 -165 -272 -281q-14 -17 -17 -17q-4 0 -4 4q0 3 2.5 9t6 15t4.5 13q4 10 6 19.5t3 13.5t5 10.5t12 15.5q79 82 256 227q7 103 7 127q0 43 -12 70.5 t-36 27.5z" glyph-name="x" horiz-adv-x="559" unicode="x"/>
<glyph d="M298 -85q-35 -12 -122 -39t-129 -42q-110 -39 -199.5 -92t-150.5 -127t-61 -151q0 -122 119 -122q100 0 205.5 81t193.5 238q80 140 144 254zM670 98q-103 -87 -298 -157l-171 -275q-101 -163 -231.5 -261.5t-257.5 -98.5q-75 0 -113 45t-38 100q0 46 18 89.5t45.5 77 t70 66t82 55.5t92 46.5t89.5 37.5t84 30q58 20 157 51t112 35l81 145q-116 -93 -235 -93q-30 0 -54.5 17.5t-24.5 47.5q0 40 24.5 90t53.5 90t53.5 85.5t24.5 76.5q0 26 -28 26q-33 0 -72 -26q-9 -6 -10 -6q-4 0 -4 4t6 8q64 44 110 44q32 0 51 -16t19 -48t-75.5 -151 t-75.5 -158q0 -51 50 -51q41 0 102 28t101 62l108 208q8 15 17.5 34l14 28t11 19t13.5 14t16 5q40 4 56 4q6 0 6 -6q0 -4 -15 -30t-39.5 -66.5t-35.5 -59.5q-108 -192 -173 -300q156 55 275 144q62 48 136 140q4 6 8 6t4 -4q0 -2 -2 -6q-68 -92 -138 -146z" glyph-name="y" horiz-adv-x="630" unicode="y"/>
<glyph d="M289 -25q12 45 12 83q0 82 -85 82q-65 -60 -102 -60q-10 0 -10 6q0 20 33 37.5t61 24.5q8 8 42.5 38t53.5 48t48.5 47t51.5 56t38 53q-151 -58 -218 -58q-46 0 -72 21.5t-26 40.5q0 5 44 32q10 6 18.5 11.5t12 8t5.5 2.5l2 -2q0 -2 -6 -8t-6 -14q0 -7 9 -15t38.5 -16.5 t74.5 -8.5q64 0 150 36q12 5 25 11t19 8.5t10 2.5t4 -4q0 -16 -44 -66q-64 -72 -244 -220q51 0 94 -30t43 -91l-1 -16q93 49 146 93q71 59 136 140q4 6 8 6t4 -4q0 -2 -2 -6q-52 -71 -138 -146q-45 -39 -155 -99q-14 -109 -103 -251t-194 -260q-91 -103 -216 -184.5 t-218 -81.5q-57 0 -95 34.5t-38 94.5q0 46 16 90.5t41.5 81.5t66.5 74.5t82 67t97.5 63t103 58.5t107.5 57q5 3 8 4q46 24 140 67.5t128 60.5zM284 -42q-42 -21 -132 -62.5t-122 -59.5q-79 -43 -139 -79.5t-123 -83.5t-104 -91.5t-67 -98.5t-26 -108q0 -118 112 -118 q140 0 350 258q72 88 146 213.5t105 229.5z" glyph-name="z" horiz-adv-x="478" unicode="z"/>
<glyph d="M364 -126q20 0 20 -8t-20 -8q-242 0 -242 122q0 44 18.5 84.5t44.5 72.5t52 63t44.5 69t18.5 79q0 19 -16 43.5t-30 24.5q-4 0 -21 -3t-41 -3q-12 0 -12 18q0 4 8.5 12.5t23.5 17t30 8.5q14 0 36 -4t28 -4q16 0 47.5 22.5t54.5 49.5q31 38 54 86.5t38.5 91.5t35 87.5 t54.5 86.5t86 76q91 56 248 56q10 0 10 -6q0 -5 -5.5 -9t-14.5 -4q-75 0 -119.5 -8.5t-88.5 -39.5q-40 -28 -68 -73t-45.5 -93t-35.5 -97t-48.5 -96.5t-72.5 -79.5q-30 -22 -106 -60q34 -22 34 -76q0 -41 -27 -86t-59 -80.5t-59 -90t-27 -111.5q0 -130 172 -130z" glyph-name="braceleft" horiz-adv-x="540" unicode="{"/>
<glyph d="M324 -100v1062q0 2 0.5 3t2.5 2l4 2t6 2.5t7 2.5q6 3 9 5.5t4 3.5t3 1t2 -4v-1062q0 -3 -2 -4.5t-9 -3.5t-11 -4q-9 -4 -11 -8q-1 -2 -3 -2t-2 4z" glyph-name="bar" horiz-adv-x="524" unicode="|"/>
<glyph d="M462 998q-20 0 -20 8t20 8q242 0 242 -122q0 -44 -18.5 -84.5t-44.5 -72.5t-52 -63t-44.5 -69t-18.5 -79q0 -19 16 -43.5t30 -24.5q4 0 21 3t41 3q12 0 12 -18q0 -4 -8.5 -12.5t-23.5 -17t-30 -8.5q-14 0 -36 4t-28 4q-16 0 -47.5 -22.5t-54.5 -49.5q-31 -38 -54 -86.5 t-38.5 -91.5t-35 -87.5t-54.5 -86.5t-86 -76q-91 -56 -248 -56q-10 0 -10 6q0 5 5.5 9t14.5 4q75 0 119.5 8.5t88.5 39.5q40 28 68 73t45.5 93t35.5 97t48.5 96.5t72.5 79.5q30 22 106 60q-34 22 -34 76q0 41 27 86t59 80.5t59 90t27 111.5q0 130 -172 130z" glyph-name="braceright" horiz-adv-x="540" unicode="}"/>
<glyph d="M206 300q-1 -2 -19 -11q-9 -5 -15 -9.5t-8.5 -6t-5.5 -1.5q-2 0 -2 2q0 6 18 30q33 46 80 82t90 36q25 0 47.5 -14t40 -33.5t34.5 -39t39 -33.5t47 -14q32 0 52 33.5t20 70.5q0 5 18 15q28 13 30 13q4 0 4 -6q-5 -57 -58 -105.5t-116 -48.5q-30 0 -57 20.5t-44 44.5 t-44 44.5t-57 20.5q-27 0 -52 -27.5t-42 -62.5z" glyph-name="asciitilde" horiz-adv-x="640" unicode="~"/>
<glyph glyph-name="uni00A0" horiz-adv-x="420" unicode=""/>
<glyph d="M326 272q0 -12 -19 -31q-74 -83 -143 -209q-38 -68 -71.5 -157t-33.5 -142q0 -41 32 -41q5 0 10.5 3t6.5 3q5 0 5 -4q0 -8 -34.5 -21t-58.5 -13q-17 0 -30 9.5t-13 24.5q0 30 20.5 81t40 88.5t72.5 135.5q133 242 161 273q15 17 32 17q8 0 15.5 -5.5t7.5 -11.5zM450 437 q0 -30 -26 -53t-60 -23q-35 0 -35 39q0 29 27.5 52.5t50.5 23.5q18 0 30.5 -10.5t12.5 -28.5z" glyph-name="exclamdown" horiz-adv-x="436" unicode=""/>
<glyph d="M294 84l-196 -356q-11 -20 -15 -20t-14 2t-10 5q0 4 7 15q45 75 118 205t84 149q-53 3 -93.5 42.5t-40.5 99.5q0 79 43 166.5t111 158.5t159.5 118.5t180.5 48.5l120 207q29 49 94 63q6 0 6 -3q0 -5 -7.5 -10t-23.5 -20t-31 -39l-130 -200q41 -8 72.5 -33.5t31.5 -54.5 q0 -10 -2.5 -15t-4 -7t-12 -6t-15.5 -6q-8 -4 -19 -10t-17.5 -9t-10.5 -3q-5 0 -5 5q0 1 2 4t3.5 10t1.5 19q0 18 -13.5 38t-35.5 28q-162 -265 -318 -552q21 -8 56 -8q71 0 146.5 39.5t114.5 93.5q13 18 26 43t20.5 38t12.5 13q11 0 11 -11q0 -18 -35 -66.5t-68 -75.5 q-123 -103 -304 -106zM294 132l314 552q-14 4 -42 4q-57 0 -118.5 -45t-107 -111.5t-75 -143.5t-29.5 -139q0 -37 16 -70.5t42 -46.5z" glyph-name="cent" horiz-adv-x="618" unicode=""/>
<glyph d="M260 135q-33 46 -69 46q-47 0 -84 -38t-37 -87q0 -39 37 -39q45 0 112 69q20 21 41 49zM543 458q-100 -184 -160 -257q-34 -42 -56 -64q5 -8 29 -44t45.5 -65t47.5 -59q72 -83 168.5 -131t190.5 -48q123 0 198 75q10 10 17.5 20.5t11.5 15t7 4.5q4 0 4 -6q0 -13 -28 -49 q-94 -117 -257 -117q-92 0 -183 44t-167 131q-17 20 -32.5 40.5t-30 43t-23 36t-22.5 38l-18 31.5q-12 -11 -44 -35q-107 -79 -176 -79q-24 0 -37.5 13.5t-13.5 34.5q0 57 72.5 119t130.5 62q44 0 77 -33q84 110 171 275q-155 -10 -158 -10q-6 0 -6 6q0 3 21.5 14.5 t26.5 11.5q82 0 126 2q1 1 21.5 43.5t36 69.5t45 75.5t59.5 81.5t68.5 67t83.5 51.5t92 17.5q48 0 78 -32t30 -66q0 -4 -5.5 -8t-15.5 -8.5t-15 -7.5q-6 -4 -15.5 -11t-15.5 -11t-9 -4q-4 0 -4 4l1 6q1 6 1 10q0 26 -30.5 53t-71.5 27q-29 0 -51.5 -10.5t-38.5 -26.5 t-34.5 -50t-33 -66.5t-42.5 -92t-54 -110.5q122 5 276 24q4 0 4 -4q0 -6 -18.5 -19.5t-37.5 -14.5q-163 -5 -236 -8z" glyph-name="sterling" horiz-adv-x="830" unicode=""/>
<glyph d="M284 456q0 110 76 200q-15 19 -36 41t-33.5 35t-12.5 16q0 2 22 20q20 16 32 16q6 0 14.5 -10.5t25 -32.5t34.5 -41q42 34 101.5 58t110.5 24q109 0 198 -82q23 20 46 42t32.5 31t13.5 9t11 -2.5t7 -5.5q0 -4 -12.5 -15t-39 -32.5t-46.5 -40.5q78 -84 78 -196 q0 -114 -78 -202q4 -4 28.5 -30t42.5 -46t18 -24q0 -10 -17.5 -21t-28.5 -11q-4 0 -9.5 3.5t-12.5 10t-13.5 13t-15 16.5t-14 16t-13.5 16t-11 13q-99 -80 -220 -80q-106 0 -182 67q-16 -14 -35.5 -33.5l-30.5 -30.5t-14 -11q-8 0 -8 10q0 6 30 36.5t44 40.5q-82 82 -82 213 zM343 488q0 -119 74.5 -204.5t206.5 -85.5q96 0 160.5 75t64.5 183q0 122 -77.5 207t-193.5 85q-101 0 -168 -80t-67 -180z" glyph-name="currency" horiz-adv-x="880" unicode=""/>
<glyph d="M367 844q-26 0 -63.5 -15.5t-68.5 -46.5q-20 -20 -22 -20q-6 0 -6 6t22 28q87 90 177 90q75 0 114.5 -44.5t39.5 -123.5q0 -11 -1 -22.5t-2 -21t-3.5 -22l-4 -20t-5.5 -20.5t-5.5 -18.5t-6.5 -20t-6.5 -18t-6.5 -18t-6 -16.5h1q129 134 212 202.5t208 133.5q61 32 114 32 q21 0 39 -13t18 -24q0 -7 -3 -7l-4 3q-5 3 -10 3q-33 0 -97 -18q-124 -35 -226 -114t-209 -219q49 0 140 1t94 1q6 0 6 -6q0 -15 -16 -22.5t-34 -7.5q-31 0 -102.5 2t-110.5 2q-29 -38 -63 -94q68 0 162 1t100 1q8 0 8 -6q0 -3 -2 -5t-6.5 -5t-7.5 -6q-14 -14 -40 -14l-76 4 q-75 3 -154 3q-31 -53 -74 -133t-74 -137.5t-38 -68.5q-6 -10 -21.5 -12.5t-40 -5.5t-43.5 -10q-8 -3 -14 -7t-8.5 -5.5t-5.5 -1.5q-9 0 -9 6q0 2 8 11.5t20.5 25.5t21.5 29q116 177 190 308q-196 -4 -206 -4t-10 6q0 2 -0.5 6t-1.5 8t-1 7.5t2 6t5 2.5q6 0 34.5 -2t99.5 -2 h94q37 71 48 96h-82q-25 0 -84 -2t-84 -2q-8 0 -8 4q0 2 1.5 3t5 3t5.5 4q4 4 7.5 9.5t5.5 8t7 4.5t14 2q5 0 86.5 -3t136.5 -3q34 96 34 190q0 72 -28.5 113t-79.5 41z" glyph-name="yen" horiz-adv-x="715" unicode=""/>
<glyph d="M324 374q0 2 0.5 3t2.5 2l4 2t6 2.5t7 2.5q6 3 9 5.5t4 3.5t3 1t2 -4v-474q0 -3 -2 -4.5t-9 -3.5t-11 -4q-9 -4 -11 -8q-1 -2 -3 -2t-2 4v474zM324 502v460q0 2 0.5 3t2.5 2l4 2t6 2.5t7 2.5q6 3 9 5.5t4 3.5t3 1t2 -4v-460q0 -3 -2 -4.5t-9 -3.5t-11 -4q-9 -4 -11 -8 q-1 -2 -3 -2t-2 4z" glyph-name="brokenbar" horiz-adv-x="524" unicode=""/>
<glyph d="M487 224q0 -29 -21 -70.5t-55.5 -81.5t-87 -68t-107.5 -28q-86 0 -129 43t-43 89q0 12 8 20q16 12 33 29t26.5 27t10.5 10q6 0 6 -6l-4 -5q-4 -5 -8 -13t-4 -16q0 -18 9 -40.5t26.5 -45t50 -37.5t74.5 -15q38 0 70 18.5t49.5 44.5t26.5 50.5t9 40.5q0 41 -17.5 79 t-42.5 66.5t-50 55t-42.5 56.5t-17.5 59q0 41 32 82.5t76 67.5q-4 20 -4 36q0 74 66.5 143t164.5 69q51 0 88.5 -31.5t37.5 -76.5q0 -8 -24 -32t-31 -24q-4 0 -4 5q0 50 -27.5 88.5t-79.5 38.5q-62 0 -103.5 -41.5t-41.5 -105.5q0 -31 17.5 -62.5t43 -58.5t51 -55.5t43 -65 t17.5 -75.5q0 -40 -26.5 -85t-65.5 -79zM487 240q25 20 38.5 55.5t13.5 68.5q0 32 -22.5 66t-50.5 59.5t-58 62.5t-41 72q-54 -32 -54 -88q0 -35 17 -64t41 -51t49 -45.5t44.5 -58.5t22.5 -77z" glyph-name="section" horiz-adv-x="576" unicode=""/>
<glyph d="M256 692q18 0 30 -11.5t12 -26.5q0 -24 -19 -42t-41 -18q-33 0 -33 44q0 19 15 36.5t36 17.5zM451 687q34 0 34 -37q0 -24 -16 -40.5t-38 -16.5q-33 0 -33 42q0 18 16.5 35t36.5 17z" glyph-name="dieresis" horiz-adv-x="300" unicode=""/>
<glyph d="M739 682q-106 0 -181.5 -100t-75.5 -220q0 -92 47 -142t105 -50q42 0 83 19t65.5 41t43.5 41t22 19q10 0 10 -38q0 -12 -35.5 -37t-96 -47t-116.5 -22q-93 0 -146.5 52.5t-53.5 135.5q0 102 59 192t145.5 140t173.5 50q46 0 84.5 -17t55 -34t16.5 -25q0 -6 -2.5 -11 t-6 -8.5l-10.5 -10.5t-13 -14q-1 -1 -3.5 -4.5t-4.5 -5.5t-4 -2q-4 0 -6 10q-16 43 -58.5 65.5t-96.5 22.5zM796 886q161 0 260.5 -95t99.5 -243q0 -109 -50.5 -214.5t-132.5 -183.5t-192 -126t-225 -48q-160 0 -255 95t-95 245q0 141 82 273t219.5 214.5t288.5 82.5z M290 328q0 -133 81 -226.5t225 -93.5q127 0 238 70.5t175.5 189t64.5 254.5q0 157 -79.5 247.5t-228.5 90.5q-128 0 -238.5 -78.5t-173.5 -200.5t-64 -253z" glyph-name="copyright" horiz-adv-x="1072" unicode=""/>
<glyph d="M382 464q-21 0 -35 12t-14 35q-65 -45 -106 -45q-31 0 -50.5 18.5t-19.5 49.5q0 76 69.5 139.5t144.5 63.5q55 0 69 -38q20 10 48 10q4 0 4 -2q0 -4 -24 -37.5t-48 -77t-24 -71.5q0 -35 27 -35q21 0 51 16l8 4q4 0 4 -4t-7 -7q-54 -31 -97 -31zM335 534q20 70 94 155 q-11 35 -51 35q-52 0 -104 -63.5t-52 -119.5q0 -22 8.5 -37t25.5 -15q41 0 79 45z" glyph-name="ordfeminine" horiz-adv-x="410" unicode=""/>
<glyph d="M558 479q2 0 5 -3t3 -6t-5 -9.5t-8 -8.5q-94 -75 -201 -159q-66 -51 -77 -61.5t-11 -19.5q0 -18 41 -129t41 -119q0 -2 -0.5 -3t-0.5 -2t-2 -1.5t-3.5 -0.5t-5 -0.5t-6.5 -1.5q-15 -2 -28.5 -5.5t-16.5 -3.5q-5 0 -7 4q-12 24 -40 128.5t-28 115.5q0 12 6 18 q44 30 128.5 98t146.5 118.5t69 50.5zM678 455q10 0 10 -12q0 -5 -12 -14q-42 -34 -106 -85q-95 -76 -113.5 -93t-18.5 -29q0 -19 24 -77.5t48.5 -110.5t24.5 -54q0 -5 -27.5 -10.5t-34.5 -5.5q-6 0 -8 4q-6 9 -43.5 112t-37.5 124q0 16 14 28q58 46 130.5 105.5t108 88.5 t41.5 29z" glyph-name="guillemotleft" horiz-adv-x="625" unicode=""/>
<glyph d="M705 349q11 0 77.5 1t72.5 1q12 0 12 -8q0 -2 -14.5 -28.5t-37 -67t-35.5 -67.5q-1 -3 -40 -9q-8 -1 -16.5 -3.5t-14 -4t-6.5 -1.5q-9 0 -9 6q0 1 4 11q5 9 32.5 57.5t43.5 79.5q-104 0 -269.5 -1.5t-210.5 -1.5q-4 0 -4 2q0 1 1.5 3t5 6t5.5 8q15 21 20 21 q12 0 156.5 -2t226.5 -2z" glyph-name="logicalnot" horiz-adv-x="800" unicode=""/>
<glyph d="M440 346q11 0 48.5 1t43.5 1q4 0 4 -2t-1 -4t-4 -7t-5 -11q-2 -4 -4 -11t-3.5 -9t-4.5 -2q-4 0 -81.5 4t-134.5 4q-37 0 -80.5 -2t-45.5 -2q-4 0 -4 2t2.5 4.5l7 7t6.5 8.5q3 4 6 11.5t5 10t5 2.5q16 0 95.5 -3t144.5 -3z" glyph-name="uni00AD" horiz-adv-x="496" unicode=""/>
<glyph d="M862 734q40 0 70 -21t30 -51q0 -120 -386 -200q99 -156 164.5 -246t113.5 -124q101 72 160.5 186t59.5 244q0 157 -79.5 247.5t-228.5 90.5q-128 0 -238.5 -78.5t-173.5 -200.5t-64 -253q0 -133 81 -226.5t225 -93.5q112 0 212 56q-11 6 -24 17.5t-28 29t-28.5 34t-32 42 t-31 43t-32 47t-30 45t-30 46t-26.5 40.5q-22 -44 -48 -102.5t-39 -85t-17 -26.5q-22 0 -46.5 -4t-27.5 -4q-14 0 -14 8l228 400q33 58 120.5 99t159.5 41zM796 886q161 0 260.5 -95t99.5 -243q0 -138 -75.5 -263t-200.5 -207q37 -20 88 -20q33 0 63.5 14t50 28t26.5 14 q8 0 8 -6q0 -25 -57 -53.5t-113 -28.5t-110 24q-138 -74 -280 -74q-160 0 -255 95t-95 245q0 141 82 273t219.5 214.5t288.5 82.5zM584 490q62 14 106.5 27t92 31.5t72.5 41t25 48.5q0 28 -16.5 50t-55.5 22q-103 0 -224 -220z" glyph-name="registered" horiz-adv-x="1072" unicode=""/>
<glyph d="M234 672q17 0 50.5 -1t51.5 -1q46 0 123.5 1t98.5 1q16 0 16 -12q0 -18 -38 -18q-13 0 -44.5 1t-57.5 1q-16 0 -84 -1t-110 -1q-14 0 -14 18q0 12 8 12z" glyph-name="macron" horiz-adv-x="330" unicode=""/>
<glyph d="M258 738q0 58 54 102t112 44q39 0 72.5 -31t33.5 -87q0 -58 -50 -102t-114 -44q-42 0 -75 33.5t-33 84.5zM306 766q0 -55 27.5 -86.5t74.5 -31.5q33 0 52.5 31t19.5 63q0 43 -28 76.5t-76 33.5q-33 0 -51.5 -26t-18.5 -60z" glyph-name="degree" horiz-adv-x="334" unicode=""/>
<glyph d="M546 421q231 3 254 3q4 0 4 -2t-9 -22q-1 -2 -3 -6.5t-3 -6.5q-3 -13 -7 -13h-1q-7 0 -47.5 1t-102 2.5t-107.5 2.5q-33 -64 -58 -112.5t-41 -80t-20 -39.5q-3 -5 -34 -12q-10 -2 -20.5 -4.5t-15.5 -4t-7 -1.5q-3 0 -3 2q0 1 1.5 2.5t3.5 4t3 4.5q25 35 135 242 q-10 1 -15 1q-35 0 -88.5 -1t-91.5 -2t-43 -1q-4 0 -4 2t3 6q5 7 13 20q2 4 4.5 8.5t3.5 6.5t2.5 4t2.5 2.5t3 0.5q13 0 49.5 -1t89 -2.5t93.5 -2.5q40 76 113 230q1 2 3.5 3.5t7 2.5t9.5 1.5t14 2t17 2.5t16.5 3.5t10.5 2.5q3 0 3 -3q0 -1 -22 -36q-30 -44 -116 -210z M448 98q30 0 104 2t76 2q4 0 4 -2t-9 -22q-2 -4 -3.5 -8t-2.5 -6t-2 -4.5t-1.5 -3.5l-1 -2t-1.5 -1.5t-2 -0.5q-4 0 -161 4t-214 4q-34 0 -103.5 -2t-72.5 -2q-4 0 -4 2q0 1 1 3t5.5 8.5t9.5 14.5q2 4 4.5 8.5t3.5 6.5t2.5 4t2.5 2.5t3 0.5q16 0 156.5 -4t205.5 -4z" glyph-name="plusminus" horiz-adv-x="842" unicode=""/>
<glyph d="M505 531q0 -6 -15 -20.5t-44 -28t-59 -13.5q-33 0 -87.5 22t-81.5 22t-46.5 -10.5t-31.5 -21t-21 -10.5q-11 0 -11 9q0 10 17 21q21 14 189 132q92 65 116 90q29 32 29 61t-19.5 45.5t-55.5 16.5q-40 0 -81 -24q-8 -4 -16.5 -11t-14 -11.5t-6.5 -4.5q-4 0 -4 4t8 12 q14 14 32 29t52.5 30.5t67.5 15.5q49 0 79 -27t30 -64q0 -41 -49.5 -84t-140 -95t-109.5 -66q43 0 116.5 -22.5t102.5 -22.5q16 0 25.5 4.5t12.5 10.5t5.5 10.5t6.5 4.5t4 -4z" glyph-name="two.superior" horiz-adv-x="400" unicode=""/>
<glyph d="M449 887q42 0 64.5 -22.5t22.5 -49.5q0 -64 -118 -108q24 -9 46 -33t22 -52q0 -56 -73.5 -108t-156.5 -52q-45 0 -80 26t-35 52q0 2 1.5 4t4.5 4l6 4l7.5 5l7.5 5l25 18q2 0 2 -2q0 -1 -1 -2.5t-1 -3.5q0 -23 30 -49t84 -26q53 0 88.5 31.5t35.5 68.5t-23 62.5t-63 25.5 q-4 0 -11 -2t-9 -2q-6 0 -6 5q0 7 13 11q24 9 40 14q96 26 96 93q0 51 -62 51q-32 0 -67 -20q-23 -14 -26 -14q-5 0 -5 4q0 6 17 19q59 43 124 43z" glyph-name="three.superior" horiz-adv-x="410" unicode=""/>
<glyph d="M290 573l186 189q24 24 28 24t9.5 -11t5.5 -16q0 -12 -10 -19l-211 -180q-13 -13 -20 -13q-5 0 -5 5q0 4 17 21z" glyph-name="acute" horiz-adv-x="300" unicode=""/>
<glyph d="M436 348q89 160 190 377q-41 -8 -79.5 -20t-81 -33.5t-73.5 -48.5t-51 -67.5t-20 -87.5q0 -33 12 -57t32 -36.5t37 -18.5t34 -8zM295 3q-3 -6 -10.5 -7.5t-22.5 -2t-27 -4.5q-7 -3 -11.5 -6t-6.5 -3q-6 0 -6 4q0 2 5.5 9.5t15.5 20t16 21.5q49 69 177 293q-47 3 -91 18.5 t-78 48t-34 76.5q0 84 62.5 149t156 97t197.5 32l55 123q3 6 22 13t27 7q13 0 13 -6t-6 -16l-64 -121h34q80 0 80 -4q0 -5 -29 -7q-62 -6 -96 -10l-208 -382q53 0 87 17q7 3 15 9t12.5 9.5t5.5 3.5q2 0 2 -2l-13 -18q-1 -2 -4.5 -7t-5 -7l-4.5 -6t-5.5 -5.5t-5.5 -4t-6 -3.5 t-7 -2q-28 -4 -82 -4q-139 -272 -160 -323z" glyph-name="paragraph" horiz-adv-x="546" unicode=""/>
<glyph d="M334 327q-18 0 -32 12t-14 27q0 23 17.5 41.5t39.5 18.5q17 0 29.5 -11t12.5 -29q0 -19 -16 -39t-37 -20z" glyph-name="periodcentered" horiz-adv-x="438" unicode=""/>
<glyph d="M163 -6q-35 -29 -35 -48q0 -14 13 -33t13 -39q0 -33 -40.5 -71t-84.5 -38q-19 0 -33.5 9.5t-14.5 17.5q0 3 9 15q4 6 8.5 14.5t7.5 14.5l2 5q4 0 4 -2v-8q0 -5 2.5 -14t13.5 -20.5t28 -11.5q16 0 30 11t14 34q0 18 -13 38t-13 35q0 8 4 17.5t13.5 20.5t15.5 17.5t20 20 t17 16.5l5 5q2 2 14 2q8 0 8 -1l-1 -1z" glyph-name="cedilla" horiz-adv-x="300" unicode=""/>
<glyph d="M230 778q39 3 59.5 6t64 18t77.5 42q4 4 8 11t9 12t13 9q23 14 37 14q8 0 8 -10q0 -7 -5 -16.5t-15.5 -25.5t-16.5 -27q-143 -256 -143 -286q0 -19 18 -22q12 -2 41.5 -2.5t38.5 -1.5q12 -1 12 -10q0 -12 -19 -12q-12 0 -66 4.5t-82 4.5q-30 0 -77.5 -7t-55.5 -7 q-12 0 -12 12q0 9 14 10q92 9 111 34q12 16 30 46t32 55.5t42 78.5t44 83q-62 -31 -172 -31q-11 0 -11 9q0 8 16 9z" glyph-name="one.superior" horiz-adv-x="366" unicode=""/>
<glyph d="M254 464q-42 0 -70.5 23.5t-28.5 68.5q0 69 61.5 125t134.5 56q44 0 70.5 -23.5t26.5 -65.5q0 -76 -59.5 -130t-134.5 -54zM386 637q0 32 -17.5 57t-41.5 25q-43 0 -76.5 -48t-33.5 -107q0 -36 18 -59t43 -23q44 0 76 48.5t32 106.5z" glyph-name="ordmasculine" horiz-adv-x="375" unicode=""/>
<glyph d="M197 -56q-2 0 -5 3t-3 6t5 9.5t8 8.5q94 75 201 159q66 51 77 61.5t11 19.5q0 18 -41 129t-41 119q0 2 0.5 3t0.5 2t2 1.5t3.5 0.5t5 0.5t6.5 1.5q15 2 28.5 5.5t16.5 3.5q5 0 7 -4q12 -24 40 -128.5t28 -115.5q0 -12 -6 -18q-44 -30 -128.5 -98t-146.5 -118.5t-69 -50.5 zM77 -32q-10 0 -10 12q0 5 12 14q42 34 106 85q95 76 113.5 93t18.5 29q0 19 -24.5 78t-48.5 110.5t-24 53.5q0 5 27 10.5t35 5.5q6 0 8 -4q6 -9 43.5 -112t37.5 -124q0 -16 -14 -28q-58 -46 -130.5 -105.5t-108 -88.5t-41.5 -29z" glyph-name="guillemotright" horiz-adv-x="625" unicode=""/>
<glyph d="M718 117q-26 0 -26 17q0 8 28 22q111 111 182 237q2 4 9.5 6.5t17.5 4.5t11 2q6 2 17 7t18.5 9t8.5 4q3 0 3 -3q0 -6 -6 -12q-106 -149 -203 -245q18 3 29 3q54 0 116 -15q24 42 52 98l4 6t3.5 5.5t5 5t5 3.5t6.5 4t6.5 3.5t8 3.5t7.5 4q36 18 51 18q3 0 3 -3 q0 -2 -2.5 -3.5t-6.5 -5t-7 -8.5q-34 -57 -79 -138q27 -5 56 -5q47 0 73 11q2 1 4 2.5t3 2t2 0.5q2 0 2 -2q0 -3 -6 -8q-18 -12 -30 -15q-37 -10 -78 -10q-17 0 -39 2q-16 -29 -48 -99q-10 -21 -21 -21q-18 0 -43 -7l-25 -7q-2 0 -2 3q0 1 3 5t14 20.5t25 39.5q6 10 40 71 q-7 1 -24.5 5.5t-30 6t-30.5 1.5q-27 0 -65.5 -13t-41.5 -13zM397 778q39 3 59.5 6t64 18t77.5 42q4 4 8 11t9 12t13 9q23 14 37 14q8 0 8 -10q0 -7 -5 -16.5t-15.5 -25.5t-16.5 -27q-143 -256 -143 -286q0 -19 18 -22q12 -2 41.5 -2.5t38.5 -1.5q12 -1 12 -10 q0 -12 -19 -12q-12 0 -66 4.5t-82 4.5q-30 0 -77.5 -7t-55.5 -7q-12 0 -12 12q0 9 14 10q92 9 111 34q12 16 30 46t32 55.5t42 78.5t44 83q-62 -31 -172 -31q-11 0 -11 9q0 8 16 9zM214 -74q393 396 936 1007q12 13 21 13q8 0 19 -3t11 -6q0 -2 -30 -34q-432 -445 -918 -993 q-12 -13 -19 -13q-8 0 -22 3t-14 5q0 5 16 21z" glyph-name="onequarter" horiz-adv-x="1200" unicode=""/>
<glyph d="M1035 61q0 -6 -15 -20.5t-44 -28t-59 -13.5q-33 0 -87.5 22t-81.5 22t-46.5 -10.5t-31.5 -21t-21 -10.5q-11 0 -11 9q0 10 17 21q21 14 189 132q92 65 116 90q29 32 29 61t-19.5 45.5t-55.5 16.5q-40 0 -81 -24q-8 -4 -16.5 -11t-14 -11.5t-6.5 -4.5q-4 0 -4 4t8 12 q14 14 32 29t52.5 30.5t67.5 15.5q49 0 79 -27t30 -64q0 -41 -49.5 -84t-140 -95t-109.5 -66q43 0 116.5 -22.5t102.5 -22.5q16 0 25.5 4.5t12.5 10.5t5.5 10.5t6.5 4.5t4 -4zM397 778q39 3 59.5 6t64 18t77.5 42q4 4 8 11t9 12t13 9q23 14 37 14q8 0 8 -10q0 -7 -5 -16.5 t-15.5 -25.5t-16.5 -27q-143 -256 -143 -286q0 -19 18 -22q12 -2 41.5 -2.5t38.5 -1.5q12 -1 12 -10q0 -12 -19 -12q-12 0 -66 4.5t-82 4.5q-30 0 -77.5 -7t-55.5 -7q-12 0 -12 12q0 9 14 10q92 9 111 34q12 16 30 46t32 55.5t42 78.5t44 83q-62 -31 -172 -31q-11 0 -11 9 q0 8 16 9zM214 -74q393 396 936 1007q12 13 21 13q8 0 19 -3t11 -6q0 -2 -30 -34q-432 -445 -918 -993q-12 -13 -19 -13q-8 0 -22 3t-14 5q0 5 16 21z" glyph-name="onehalf" horiz-adv-x="1200" unicode=""/>
<glyph d="M616 887q42 0 64.5 -22.5t22.5 -49.5q0 -64 -118 -108q24 -9 46 -33t22 -52q0 -56 -73.5 -108t-156.5 -52q-45 0 -80 26t-35 52q0 2 1.5 4t4.5 4l6 4l7.5 5l7.5 5l25 18q2 0 2 -2q0 -1 -1 -2.5t-1 -3.5q0 -23 30 -49t84 -26q53 0 88.5 31.5t35.5 68.5t-23 62.5t-63 25.5 q-4 0 -11 -2t-9 -2q-6 0 -6 5q0 7 13 11q24 9 40 14q96 26 96 93q0 51 -62 51q-32 0 -67 -20q-23 -14 -26 -14q-5 0 -5 4q0 6 17 19q59 43 124 43zM718 117q-26 0 -26 17q0 8 28 22q111 111 182 237q2 4 9.5 6.5t17.5 4.5t11 2q6 2 17 7t18.5 9t8.5 4q3 0 3 -3q0 -6 -6 -12 q-106 -149 -203 -245q18 3 29 3q54 0 116 -15q24 42 52 98l4 6t3.5 5.5t5 5t5 3.5t6.5 4t6.5 3.5t8 3.5t7.5 4q36 18 51 18q3 0 3 -3q0 -2 -2.5 -3.5t-6.5 -5t-7 -8.5q-34 -57 -79 -138q27 -5 56 -5q47 0 73 11q2 1 4 2.5t3 2t2 0.5q2 0 2 -2q0 -3 -6 -8q-18 -12 -30 -15 q-37 -10 -78 -10q-17 0 -39 2q-16 -29 -48 -99q-10 -21 -21 -21q-18 0 -43 -7l-25 -7q-2 0 -2 3q0 1 3 5t14 20.5t25 39.5q6 10 40 71q-7 1 -24.5 5.5t-30 6t-30.5 1.5q-27 0 -65.5 -13t-41.5 -13zM214 -74q393 396 936 1007q12 13 21 13q8 0 19 -3t11 -6q0 -2 -30 -34 q-432 -445 -918 -993q-12 -13 -19 -13q-8 0 -22 3t-14 5q0 5 16 21z" glyph-name="threequarters" horiz-adv-x="1200" unicode=""/>
<glyph d="M129 -184q58 0 138 55q8 6 19 14l16.5 12t8.5 4q7 0 7 -6t-42 -39q-112 -88 -219 -88q-56 0 -90 31.5t-34 88.5q0 26 12.5 51t27.5 42t46 38t48 30.5t55 28.5t47 24q45 24 74.5 42.5t62 45t49 57.5t16.5 65q0 35 -30.5 60t-67.5 25q-14 0 -20 -6q-4 0 -4 5q0 6 13.5 25 t15.5 22t4 7t2.5 5.5t2 3.5t2.5 2.5t3 1t5 0.5q48 0 94 -35.5t46 -89.5q0 -32 -13 -61t-29.5 -49.5t-52.5 -46t-61 -40.5t-76 -43q-12 -7 -18 -10q-12 -6 -43.5 -21.5t-49 -26.5t-40 -29t-33 -40.5t-10.5 -50.5q0 -44 33.5 -74t84.5 -30zM540 616q0 -27 -24.5 -50t-54.5 -23 q-16 0 -28 14t-12 32q0 31 28 51t53 20q38 0 38 -44z" glyph-name="questiondown" horiz-adv-x="468" unicode=""/>
<glyph d="M954 971q0 -5 -8 -5q-6 0 -11 14l-50 154q-10 27 -10 42q0 8 8 20t16 12q9 0 12 -15l39 -199q4 -20 4 -23zM1020 98q-24 -20 -53.5 -39.5t-83.5 -43t-97 -23.5q-58 0 -77 37.5t-19 124.5q0 58 12 142q-90 -10 -120 -10q-41 0 -107 11t-83 11q-14 0 -20 -2 q-192 -219 -270 -284q-29 -22 -86 -28q-5 -1 -15.5 -3t-20 -3t-18.5 -1q-12 0 -12 7q0 6 16 10q30 10 64 40q151 132 315 297.5t401 442.5q16 18 26.5 30.5t21.5 22.5t16 14.5t15.5 10.5t13.5 7.5t17 7t20 7.5q3 1 20.5 9.5t23.5 8.5q8 0 8 -10q0 -8 -4.5 -20.5t-10.5 -26 t-7 -15.5q-29 -74 -63 -220.5t-51 -277.5q31 9 65 28t55 33.5t24 14.5q6 0 6 -6q0 -5 -22 -21t-59 -35.5t-71 -31.5q-10 -87 -10 -136q0 -83 15.5 -116t45.5 -33t78.5 23t92.5 56q62 48 136 140q4 6 8 6t4 -4q0 -2 -2 -6q-68 -92 -138 -146zM404 342h34q40 0 117 -12 t111 -12q24 0 40 2q7 58 20 128.5t26.5 130t25.5 110.5t20 81.5t8 31.5q0 6 -3 6q-7 0 -33 -32z" glyph-name="Agrave" horiz-adv-x="980" unicode=""/>
<glyph d="M878 993l186 189q24 24 28 24t9.5 -11t5.5 -16q0 -12 -10 -19l-211 -180q-13 -13 -20 -13q-5 0 -5 5q0 4 17 21zM1020 98q-24 -20 -53.5 -39.5t-83.5 -43t-97 -23.5q-58 0 -77 37.5t-19 124.5q0 58 12 142q-90 -10 -120 -10q-41 0 -107 11t-83 11q-14 0 -20 -2 q-192 -219 -270 -284q-29 -22 -86 -28q-5 -1 -15.5 -3t-20 -3t-18.5 -1q-12 0 -12 7q0 6 16 10q30 10 64 40q151 132 315 297.5t401 442.5q16 18 26.5 30.5t21.5 22.5t16 14.5t15.5 10.5t13.5 7.5t17 7t20 7.5q3 1 20.5 9.5t23.5 8.5q8 0 8 -10q0 -8 -4.5 -20.5t-10.5 -26 t-7 -15.5q-29 -74 -63 -220.5t-51 -277.5q31 9 65 28t55 33.5t24 14.5q6 0 6 -6q0 -5 -22 -21t-59 -35.5t-71 -31.5q-10 -87 -10 -136q0 -83 15.5 -116t45.5 -33t78.5 23t92.5 56q62 48 136 140q4 6 8 6t4 -4q0 -2 -2 -6q-68 -92 -138 -146zM404 342h34q40 0 117 -12 t111 -12q24 0 40 2q7 58 20 128.5t26.5 130t25.5 110.5t20 81.5t8 31.5q0 6 -3 6q-7 0 -33 -32z" glyph-name="Aacute" horiz-adv-x="980" unicode=""/>
<glyph d="M1039 1208q6 0 6 -8q0 -22 5 -105t5 -107q0 -9 -4 -14.5t-17 -14.5q-15 -11 -22 -11t-9 48q-1 22 -1.5 52.5t-1.5 65t-1 46.5h-2q-76 -71 -189 -184q-10 -10 -21 -10q-9 0 -9 10q0 8 20 25q129 108 209 190q2 2 18 10l5 2.5t5.5 3t3.5 1.5zM1020 98q-24 -20 -53.5 -39.5 t-83.5 -43t-97 -23.5q-58 0 -77 37.5t-19 124.5q0 58 12 142q-90 -10 -120 -10q-41 0 -107 11t-83 11q-14 0 -20 -2q-192 -219 -270 -284q-29 -22 -86 -28q-5 -1 -15.5 -3t-20 -3t-18.5 -1q-12 0 -12 7q0 6 16 10q30 10 64 40q151 132 315 297.5t401 442.5q16 18 26.5 30.5 t21.5 22.5t16 14.5t15.5 10.5t13.5 7.5t17 7t20 7.5q3 1 20.5 9.5t23.5 8.5q8 0 8 -10q0 -8 -4.5 -20.5t-10.5 -26t-7 -15.5q-29 -74 -63 -220.5t-51 -277.5q31 9 65 28t55 33.5t24 14.5q6 0 6 -6q0 -5 -22 -21t-59 -35.5t-71 -31.5q-10 -87 -10 -136q0 -83 15.5 -116 t45.5 -33t78.5 23t92.5 56q62 48 136 140q4 6 8 6t4 -4q0 -2 -2 -6q-68 -92 -138 -146zM404 342h34q40 0 117 -12t111 -12q24 0 40 2q7 58 20 128.5t26.5 130t25.5 110.5t20 81.5t8 31.5q0 6 -3 6q-7 0 -33 -32z" glyph-name="Acircumflex" horiz-adv-x="980" unicode=""/>
<glyph d="M908 1149q21 0 39.5 -15t30.5 -33t30 -33t38 -15q32 0 52.5 14.5t38.5 56.5q2 3 5 10.5t5 10.5t5 3q7 0 7 -5q0 -27 -45 -75.5t-91 -48.5q-25 0 -46 15t-32.5 33t-29 33t-35.5 15q-25 0 -50.5 -20.5t-42.5 -56.5q-8 -17 -16 -17q-4 0 -4 4q0 22 49 73t92 51zM1020 98 q-24 -20 -53.5 -39.5t-83.5 -43t-97 -23.5q-58 0 -77 37.5t-19 124.5q0 58 12 142q-90 -10 -120 -10q-41 0 -107 11t-83 11q-14 0 -20 -2q-192 -219 -270 -284q-29 -22 -86 -28q-5 -1 -15.5 -3t-20 -3t-18.5 -1q-12 0 -12 7q0 6 16 10q30 10 64 40q151 132 315 297.5 t401 442.5q16 18 26.5 30.5t21.5 22.5t16 14.5t15.5 10.5t13.5 7.5t17 7t20 7.5q3 1 20.5 9.5t23.5 8.5q8 0 8 -10q0 -8 -4.5 -20.5t-10.5 -26t-7 -15.5q-29 -74 -63 -220.5t-51 -277.5q31 9 65 28t55 33.5t24 14.5q6 0 6 -6q0 -5 -22 -21t-59 -35.5t-71 -31.5 q-10 -87 -10 -136q0 -83 15.5 -116t45.5 -33t78.5 23t92.5 56q62 48 136 140q4 6 8 6t4 -4q0 -2 -2 -6q-68 -92 -138 -146zM404 342h34q40 0 117 -12t111 -12q24 0 40 2q7 58 20 128.5t26.5 130t25.5 110.5t20 81.5t8 31.5q0 6 -3 6q-7 0 -33 -32z" glyph-name="Atilde" horiz-adv-x="980" unicode=""/>
<glyph d="M865 1112q18 0 30 -11.5t12 -26.5q0 -24 -19 -42t-41 -18q-33 0 -33 44q0 19 15 36.5t36 17.5zM1060 1107q34 0 34 -37q0 -24 -16 -40.5t-38 -16.5q-33 0 -33 42q0 18 16.5 35t36.5 17zM1020 98q-24 -20 -53.5 -39.5t-83.5 -43t-97 -23.5q-58 0 -77 37.5t-19 124.5 q0 58 12 142q-90 -10 -120 -10q-41 0 -107 11t-83 11q-14 0 -20 -2q-192 -219 -270 -284q-29 -22 -86 -28q-5 -1 -15.5 -3t-20 -3t-18.5 -1q-12 0 -12 7q0 6 16 10q30 10 64 40q151 132 315 297.5t401 442.5q16 18 26.5 30.5t21.5 22.5t16 14.5t15.5 10.5t13.5 7.5t17 7 t20 7.5q3 1 20.5 9.5t23.5 8.5q8 0 8 -10q0 -8 -4.5 -20.5t-10.5 -26t-7 -15.5q-29 -74 -63 -220.5t-51 -277.5q31 9 65 28t55 33.5t24 14.5q6 0 6 -6q0 -5 -22 -21t-59 -35.5t-71 -31.5q-10 -87 -10 -136q0 -83 15.5 -116t45.5 -33t78.5 23t92.5 56q62 48 136 140q4 6 8 6 t4 -4q0 -2 -2 -6q-68 -92 -138 -146zM404 342h34q40 0 117 -12t111 -12q24 0 40 2q7 58 20 128.5t26.5 130t25.5 110.5t20 81.5t8 31.5q0 6 -3 6q-7 0 -33 -32z" glyph-name="Adieresis" horiz-adv-x="980" unicode=""/>
<glyph d="M404 342h34q40 0 117 -12t111 -12q24 0 40 2q7 58 20 128.5t26.5 130t25.5 110.5t20 81.5t8 31.5q0 6 -3 6q-7 0 -33 -32zM895 1012q-29 0 -47.5 -23.5t-18.5 -54.5q0 -22 17.5 -40t38.5 -18q28 0 48 21t20 53q0 22 -16.5 42t-41.5 20zM795 922q0 46 36 80t84 34 q32 0 53 -19t21 -49q0 -51 -53 -90q-18 -13 -30 -48q-29 -74 -63 -220.5t-51 -277.5q31 9 65 28t55 33.5t24 14.5q6 0 6 -6q0 -5 -22 -21t-59 -35.5t-71 -31.5q-10 -87 -10 -136q0 -83 15.5 -116t45.5 -33t78.5 23t92.5 56q62 48 136 140q4 6 8 6t4 -4q0 -2 -2 -6 q-68 -92 -138 -146q-24 -20 -53.5 -39.5t-83.5 -43t-97 -23.5q-58 0 -77 37.5t-19 124.5q0 58 12 142q-90 -10 -120 -10q-41 0 -107 11t-83 11q-14 0 -20 -2q-192 -219 -270 -284q-29 -22 -86 -28q-5 -1 -15.5 -3t-20 -3t-18.5 -1q-12 0 -12 7q0 6 16 10q30 10 64 40 q158 137 320.5 301t395.5 439q10 12 23.5 27t19 21.5t11.5 14.5t8 13t2 9q0 12 -7.5 27.5t-7.5 25.5z" glyph-name="Aring" horiz-adv-x="980" unicode=""/>
<glyph d="M404 342h34q40 0 117 -12t111 -12q24 0 40 2q7 58 20 128.5t26.5 130t25.5 110.5t20 81.5t8 31.5q0 6 -2 6q-8 0 -28 -28zM956 -24q-139 0 -200.5 60.5t-61.5 174.5q0 25 8 85q-90 -10 -120 -10q-41 0 -107 11t-83 11q-14 0 -20 -2q-192 -219 -270 -284q-29 -22 -86 -28 q-3 0 -22.5 -4t-31.5 -4t-12 8q0 10 16 14q38 13 64 36q151 132 315 297.5t401 442.5q16 18 26.5 30.5t21.5 22.5t16 14.5t15.5 10.5t13.5 7.5t17 7t20 7.5q3 1 20.5 9.5t23.5 8.5q8 0 8 -8v-2q0 -11 -11 -35.5t-11 -26.5q-54 -144 -100 -404q51 40 120 69.5t112.5 42 t43.5 16.5q0 8 -12 16q-61 42 -61 117q0 31 19 65t54.5 64.5t95 50t130.5 19.5q20 0 52 -4t69.5 -12.5t64 -25t26.5 -38.5q0 -9 -3.5 -16t-11 -19t-13.5 -25q-8 -16 -12 -16t-8 12q-12 41 -61.5 80.5t-124.5 39.5q-55 0 -97.5 -13.5t-64 -34.5t-32 -41t-10.5 -37 q0 -38 19.5 -77.5t52.5 -58.5q40 -19 40 -24q0 -17 -8 -27t-34 -13q-88 -10 -155 -36t-106.5 -58.5t-64.5 -74.5t-33.5 -81t-8.5 -82q0 -50 21.5 -88.5t56 -59t70.5 -31t72 -10.5q137 0 215 72t78 163q0 7 -2 15.5t-2 10.5q0 6 4 6q7 0 28 -15t21 -26q0 -23 -16 -56 t-49.5 -69.5t-78.5 -67.5t-110 -51.5t-136 -20.5z" glyph-name="AE" horiz-adv-x="1360" unicode=""/>
<glyph d="M944 744q-5 -8 -10 -8q-6 0 -6 8q0 34 -46 66t-98 32q-175 0 -300 -114q-221 -201 -221 -453q0 -102 52 -175q65 -91 185 -91q86 0 158.5 46.5t114.5 112.5q13 20 13 31q0 5 -1.5 8.5t-1.5 5.5q0 4 5 4q2 0 3.5 -1.5t7 -6.5t12.5 -10q5 -4 11 -7.5t9.5 -5.5t5.5 -4.5 t2 -5.5q0 -12 -17 -35q-54 -76 -153 -118.5t-209 -42.5q-13 0 -39 2q-20 -19 -20 -35q0 -13 13 -33t13 -39q0 -33 -40.5 -71t-84.5 -38q-19 0 -33.5 9.5t-14.5 17.5q0 3 9 15q4 6 8.5 14.5t6.5 13.5l3 6q4 0 4 -2v-8q0 -5 2.5 -14t13.5 -20.5t28 -11.5q16 0 30 11t14 34 q0 18 -13 38t-13 35q0 25 57 80q-121 16 -178 86q-62 78 -62 185q0 138 80.5 265.5t215.5 226.5q189 139 388 139q29 0 54.5 -7t41.5 -17t27 -21.5t16 -20t5 -12.5q0 -10 -20.5 -31t-27.5 -33z" glyph-name="Ccedilla" horiz-adv-x="860" unicode=""/>
<glyph d="M845 970q0 -5 -8 -5q-6 0 -11 14l-50 154q-10 27 -10 42q0 8 8 20t16 12q9 0 12 -15l39 -199q4 -20 4 -23zM430 -24q-100 0 -186 60t-86 154q0 68 29.5 126t73.5 93.5t96 64t96 43t73.5 24.5t29.5 13q0 8 -12 16q-61 42 -61 117q0 31 19 65t54.5 64.5t95 50t130.5 19.5 q20 0 52 -4t69.5 -12.5t64 -25t26.5 -38.5q0 -9 -3.5 -16t-11 -19t-13.5 -25q-8 -16 -12 -16t-8 12q-12 41 -61.5 80.5t-124.5 39.5q-55 0 -97.5 -13.5t-64 -34.5t-32 -41t-10.5 -37q0 -38 19.5 -77.5t52.5 -58.5q40 -19 40 -24q0 -17 -8 -27t-34 -13q-88 -10 -155 -36 t-106.5 -58.5t-64.5 -74.5t-33.5 -81t-8.5 -82q0 -50 21.5 -88.5t56 -59t70.5 -31t72 -10.5q137 0 215 72t78 163q0 7 -2 15.5t-2 10.5q0 6 4 6q7 0 28 -15t21 -26q0 -23 -16 -56t-49.5 -69.5t-78.5 -67.5t-110 -51.5t-136 -20.5z" glyph-name="Egrave" horiz-adv-x="834" unicode=""/>
<glyph d="M769 992l186 189q24 24 28 24t9.5 -11t5.5 -16q0 -12 -10 -19l-211 -180q-13 -13 -20 -13q-5 0 -5 5q0 4 17 21zM430 -24q-100 0 -186 60t-86 154q0 68 29.5 126t73.5 93.5t96 64t96 43t73.5 24.5t29.5 13q0 8 -12 16q-61 42 -61 117q0 31 19 65t54.5 64.5t95 50 t130.5 19.5q20 0 52 -4t69.5 -12.5t64 -25t26.5 -38.5q0 -9 -3.5 -16t-11 -19t-13.5 -25q-8 -16 -12 -16t-8 12q-12 41 -61.5 80.5t-124.5 39.5q-55 0 -97.5 -13.5t-64 -34.5t-32 -41t-10.5 -37q0 -38 19.5 -77.5t52.5 -58.5q40 -19 40 -24q0 -17 -8 -27t-34 -13 q-88 -10 -155 -36t-106.5 -58.5t-64.5 -74.5t-33.5 -81t-8.5 -82q0 -50 21.5 -88.5t56 -59t70.5 -31t72 -10.5q137 0 215 72t78 163q0 7 -2 15.5t-2 10.5q0 6 4 6q7 0 28 -15t21 -26q0 -23 -16 -56t-49.5 -69.5t-78.5 -67.5t-110 -51.5t-136 -20.5z" glyph-name="Eacute" horiz-adv-x="834" unicode=""/>
<glyph d="M930 1207q6 0 6 -8q0 -22 5 -105t5 -107q0 -9 -4 -14.5t-17 -14.5q-15 -11 -22 -11t-9 48q-1 22 -1.5 52.5t-1.5 65t-1 46.5h-2q-76 -71 -189 -184q-10 -10 -21 -10q-9 0 -9 10q0 8 20 25q129 108 209 190q2 2 18 10l5 2.5t5.5 3t3.5 1.5zM430 -24q-100 0 -186 60 t-86 154q0 68 29.5 126t73.5 93.5t96 64t96 43t73.5 24.5t29.5 13q0 8 -12 16q-61 42 -61 117q0 31 19 65t54.5 64.5t95 50t130.5 19.5q20 0 52 -4t69.5 -12.5t64 -25t26.5 -38.5q0 -9 -3.5 -16t-11 -19t-13.5 -25q-8 -16 -12 -16t-8 12q-12 41 -61.5 80.5t-124.5 39.5 q-55 0 -97.5 -13.5t-64 -34.5t-32 -41t-10.5 -37q0 -38 19.5 -77.5t52.5 -58.5q40 -19 40 -24q0 -17 -8 -27t-34 -13q-88 -10 -155 -36t-106.5 -58.5t-64.5 -74.5t-33.5 -81t-8.5 -82q0 -50 21.5 -88.5t56 -59t70.5 -31t72 -10.5q137 0 215 72t78 163q0 7 -2 15.5t-2 10.5 q0 6 4 6q7 0 28 -15t21 -26q0 -23 -16 -56t-49.5 -69.5t-78.5 -67.5t-110 -51.5t-136 -20.5z" glyph-name="Ecircumflex" horiz-adv-x="834" unicode=""/>
<glyph d="M756 1111q18 0 30 -11.5t12 -26.5q0 -24 -19 -42t-41 -18q-33 0 -33 44q0 19 15 36.5t36 17.5zM951 1106q34 0 34 -37q0 -24 -16 -40.5t-38 -16.5q-33 0 -33 42q0 18 16.5 35t36.5 17zM430 -24q-100 0 -186 60t-86 154q0 68 29.5 126t73.5 93.5t96 64t96 43t73.5 24.5 t29.5 13q0 8 -12 16q-61 42 -61 117q0 31 19 65t54.5 64.5t95 50t130.5 19.5q20 0 52 -4t69.5 -12.5t64 -25t26.5 -38.5q0 -9 -3.5 -16t-11 -19t-13.5 -25q-8 -16 -12 -16t-8 12q-12 41 -61.5 80.5t-124.5 39.5q-55 0 -97.5 -13.5t-64 -34.5t-32 -41t-10.5 -37 q0 -38 19.5 -77.5t52.5 -58.5q40 -19 40 -24q0 -17 -8 -27t-34 -13q-88 -10 -155 -36t-106.5 -58.5t-64.5 -74.5t-33.5 -81t-8.5 -82q0 -50 21.5 -88.5t56 -59t70.5 -31t72 -10.5q137 0 215 72t78 163q0 7 -2 15.5t-2 10.5q0 6 4 6q7 0 28 -15t21 -26q0 -23 -16 -56 t-49.5 -69.5t-78.5 -67.5t-110 -51.5t-136 -20.5z" glyph-name="Edieresis" horiz-adv-x="834" unicode=""/>
<glyph d="M645 971q0 -5 -8 -5q-6 0 -11 14l-50 154q-10 27 -10 42q0 8 8 20t16 12q9 0 12 -15l39 -199q4 -20 4 -23zM229 142q-28 -55 -63 -138q-4 -10 -17 -11.5t-36.5 -2t-42.5 -8.5q-10 -4 -17 -9t-11 -5q-10 0 -10 6q0 3 6.5 11t16.5 19.5t13 15.5q36 47 106 177 q120 220 277 521q42 81 42 102q0 18 -19 23q-3 1 -9 2t-8.5 2t-2.5 4q0 13 16 13q44 0 103.5 4.5t68.5 4.5q4 0 7 -4t3 -7q0 -4 -3.5 -4.5t-14 -4.5t-22.5 -14q-27 -22 -85 -129q-135 -249 -298 -568z" glyph-name="Igrave" horiz-adv-x="400" unicode=""/>
<glyph d="M569 993l186 189q24 24 28 24t9.5 -11t5.5 -16q0 -12 -10 -19l-211 -180q-13 -13 -20 -13q-5 0 -5 5q0 4 17 21zM229 142q-28 -55 -63 -138q-4 -10 -17 -11.5t-36.5 -2t-42.5 -8.5q-10 -4 -17 -9t-11 -5q-10 0 -10 6q0 3 6.5 11t16.5 19.5t13 15.5q36 47 106 177 q120 220 277 521q42 81 42 102q0 18 -19 23q-3 1 -9 2t-8.5 2t-2.5 4q0 13 16 13q44 0 103.5 4.5t68.5 4.5q4 0 7 -4t3 -7q0 -4 -3.5 -4.5t-14 -4.5t-22.5 -14q-27 -22 -85 -129q-135 -249 -298 -568z" glyph-name="Iacute" horiz-adv-x="400" unicode=""/>
<glyph d="M730 1208q6 0 6 -8q0 -22 5 -105t5 -107q0 -9 -4 -14.5t-17 -14.5q-15 -11 -22 -11t-9 48l-4 164h-2q-76 -71 -189 -184q-10 -10 -21 -10q-9 0 -9 10q0 8 20 25q129 108 209 190q2 2 18 10l5 2.5t5.5 3t3.5 1.5zM229 142q-28 -55 -63 -138q-4 -10 -17 -11.5t-36.5 -2 t-42.5 -8.5q-10 -4 -17 -9t-11 -5q-10 0 -10 6q0 3 6.5 11t16.5 19.5t13 15.5q36 47 106 177q120 220 277 521q42 81 42 102q0 18 -19 23q-3 1 -9 2t-8.5 2t-2.5 4q0 13 16 13q44 0 103.5 4.5t68.5 4.5q4 0 7 -4t3 -7q0 -4 -3.5 -4.5t-14 -4.5t-22.5 -14q-27 -22 -85 -129 q-135 -249 -298 -568z" glyph-name="Icircumflex" horiz-adv-x="400" unicode=""/>
<glyph d="M556 1112q18 0 30 -11.5t12 -26.5q0 -24 -19 -42t-41 -18q-33 0 -33 44q0 19 15 36.5t36 17.5zM751 1107q34 0 34 -37q0 -24 -16 -40.5t-38 -16.5q-33 0 -33 42q0 18 16.5 35t36.5 17zM229 142q-28 -55 -63 -138q-4 -10 -17 -11.5t-36.5 -2t-42.5 -8.5q-10 -4 -17 -9 t-11 -5q-10 0 -10 6q0 3 6.5 11t16.5 19.5t13 15.5q36 47 106 177q120 220 277 521q42 81 42 102q0 18 -19 23q-3 1 -9 2t-8.5 2t-2.5 4q0 13 16 13q44 0 103.5 4.5t68.5 4.5q4 0 7 -4t3 -7q0 -4 -3.5 -4.5t-14 -4.5t-22.5 -14q-27 -22 -85 -129q-135 -249 -298 -568z" glyph-name="Idieresis" horiz-adv-x="400" unicode=""/>
<glyph d="M717 886q200 0 319.5 -110t119.5 -308q0 -131 -65.5 -243t-182 -178.5t-256.5 -66.5q-49 0 -89 9.5t-70 28t-49 35t-42 41.5q-113 -106 -212 -106q-41 0 -72.5 27.5t-31.5 64.5q0 60 49.5 93t106.5 34q63 0 146 -56q76 100 162 264q-56 2 -84 2q-24 0 -46 -6l-22 -6 q-3 0 -3 3q0 2 15 21q17 21 36 21q46 0 119 -5q137 267 170 416h-2q-130 0 -220.5 -67t-90.5 -129q0 -6 1 -10.5t1.5 -7t1.5 -4.5t1 -3q0 -4 -5 -4q-2 0 -6 2.5t-10.5 6.5t-11.5 7q-30 17 -30 32q0 72 108 137t245 65zM370 129q-52 54 -108 54q-39 0 -79 -37.5t-40 -86.5 q0 -50 58 -53h3q67 0 166 123zM430 122q40 -28 65.5 -43t67 -29.5t82.5 -14.5q119 0 225 74t165 184.5t59 221.5q0 149 -73 234.5t-203 105.5q-13 -65 -61.5 -187.5t-103.5 -227.5q48 -1 139 -1q30 0 53.5 3.5t34.5 7.5t12 4q3 0 3 -3q0 -1 -15 -21q-18 -22 -44 -22 q-25 0 -100 3t-96 4q-96 -174 -210 -293z" glyph-name="Eth" horiz-adv-x="1140" unicode=""/>
<glyph d="M783 1149q21 0 39.5 -15t30.5 -33t30 -33t38 -15q32 0 52.5 14.5t38.5 56.5q2 3 5 10.5t5 10.5t5 3q7 0 7 -5q0 -27 -45 -75.5t-91 -48.5q-25 0 -46 15t-32.5 33t-29 33t-35.5 15q-25 0 -50.5 -20.5t-42.5 -56.5q-8 -17 -16 -17q-4 0 -4 4q0 22 49 73t92 51zM386 848 q-18 3 -18 5q0 12 33 18.5t64 6.5q43 0 58 -29t21 -100q3 -32 9.5 -141t12.5 -177q17 -180 44 -341h2q29 58 90.5 191t90.5 193q81 165 201 362q5 8 9.5 14t8 11t8 9t7 7t8.5 5.5t8.5 4t9.5 3.5t10 3t13 3.5l14 3.5q61 16 120 16q8 0 8 -3q0 -2 -13 -3.5t-29 -3.5t-21 -4 q-43 -20 -104 -80q-101 -101 -230 -355q-146 -289 -214 -473q-4 -10 -7.5 -13.5t-15.5 -7.5q-7 -3 -14.5 -6.5t-11.5 -5.5t-8 -2q-16 0 -20 26q-11 69 -20 137.5t-13.5 108.5t-11 101t-8.5 84q-20 189 -35 369h-3q-100 -240 -134 -311q-14 -29 -56 -123.5t-87.5 -188.5 t-89.5 -174q-8 -14 -15.5 -19t-32.5 -9.5t-46 -10.5q-5 -1 -11.5 -4t-11 -4.5t-8.5 -1.5q-7 0 -7 7q0 1 10.5 9t28 24.5t31.5 33.5q112 139 274 475q124 254 124 331q0 27 -22 29z" glyph-name="Ntilde" horiz-adv-x="850" unicode=""/>
<glyph d="M865 971q0 -5 -8 -5q-6 0 -11 14l-50 154q-10 27 -10 42q0 8 8 20t16 12q9 0 12 -15l39 -199q4 -20 4 -23zM1029 620q0 -196 -182 -403q-101 -114 -226 -176.5t-248 -62.5q-133 0 -202 71t-69 185q0 117 64 237t139 202q78 91 198.5 152t224.5 61q64 0 104.5 -35 t40.5 -79q0 -5 -4.5 -9.5t-13.5 -12.5t-16 -16t-14 -20t-11 -19t-7 -7q-5 0 -5 7q0 25 -7 51q-15 54 -51 77t-77 23q-77 0 -167 -58t-152 -146q-145 -199 -145 -380q0 -108 58 -175.5t168 -67.5q108 0 210.5 62.5t174.5 177.5q47 75 84 174t37 200q0 94 -23 158t-86 88 q-8 3 -8 6q0 2 4 2q22 0 65 -21.5t67 -47.5q75 -80 75 -198z" glyph-name="Ograve" horiz-adv-x="960" unicode=""/>
<glyph d="M789 993l186 189q24 24 28 24t9.5 -11t5.5 -16q0 -12 -10 -19l-211 -180q-13 -13 -20 -13q-5 0 -5 5q0 4 17 21zM1029 620q0 -196 -182 -403q-101 -114 -226 -176.5t-248 -62.5q-133 0 -202 71t-69 185q0 117 64 237t139 202q78 91 198.5 152t224.5 61q64 0 104.5 -35 t40.5 -79q0 -5 -4.5 -9.5t-13.5 -12.5t-16 -16t-14 -20t-11 -19t-7 -7q-5 0 -5 7q0 25 -7 51q-15 54 -51 77t-77 23q-77 0 -167 -58t-152 -146q-145 -199 -145 -380q0 -108 58 -175.5t168 -67.5q108 0 210.5 62.5t174.5 177.5q47 75 84 174t37 200q0 94 -23 158t-86 88 q-8 3 -8 6q0 2 4 2q22 0 65 -21.5t67 -47.5q75 -80 75 -198z" glyph-name="Oacute" horiz-adv-x="960" unicode=""/>
<glyph d="M950 1208q6 0 6 -8q0 -22 5 -105t5 -107q0 -9 -4 -14.5t-17 -14.5q-15 -11 -22 -11t-9 48l-4 164h-2q-76 -71 -189 -184q-10 -10 -21 -10q-9 0 -9 10q0 8 20 25q129 108 209 190q2 2 18 10l5 2.5t5.5 3t3.5 1.5zM1029 620q0 -196 -182 -403q-101 -114 -226 -176.5 t-248 -62.5q-133 0 -202 71t-69 185q0 117 64 237t139 202q78 91 198.5 152t224.5 61q64 0 104.5 -35t40.5 -79q0 -5 -4.5 -9.5t-13.5 -12.5t-16 -16t-14 -20t-11 -19t-7 -7q-5 0 -5 7q0 25 -7 51q-15 54 -51 77t-77 23q-77 0 -167 -58t-152 -146q-145 -199 -145 -380 q0 -108 58 -175.5t168 -67.5q108 0 210.5 62.5t174.5 177.5q47 75 84 174t37 200q0 94 -23 158t-86 88q-8 3 -8 6q0 2 4 2q22 0 65 -21.5t67 -47.5q75 -80 75 -198z" glyph-name="Ocircumflex" horiz-adv-x="960" unicode=""/>
<glyph d="M819 1149q21 0 39.5 -15t30.5 -33t30 -33t38 -15q32 0 52.5 14.5t38.5 56.5q2 3 5 10.5t5 10.5t5 3q7 0 7 -5q0 -27 -45 -75.5t-91 -48.5q-25 0 -46 15t-32.5 33t-29 33t-35.5 15q-25 0 -50.5 -20.5t-42.5 -56.5q-8 -17 -16 -17q-4 0 -4 4q0 22 49 73t92 51zM1029 620 q0 -196 -182 -403q-101 -114 -226 -176.5t-248 -62.5q-133 0 -202 71t-69 185q0 117 64 237t139 202q78 91 198.5 152t224.5 61q64 0 104.5 -35t40.5 -79q0 -5 -4.5 -9.5t-13.5 -12.5t-16 -16t-14 -20t-11 -19t-7 -7q-5 0 -5 7q0 25 -7 51q-15 54 -51 77t-77 23 q-77 0 -167 -58t-152 -146q-145 -199 -145 -380q0 -108 58 -175.5t168 -67.5q108 0 210.5 62.5t174.5 177.5q47 75 84 174t37 200q0 94 -23 158t-86 88q-8 3 -8 6q0 2 4 2q22 0 65 -21.5t67 -47.5q75 -80 75 -198z" glyph-name="Otilde" horiz-adv-x="960" unicode=""/>
<glyph d="M776 1112q18 0 30 -11.5t12 -26.5q0 -24 -19 -42t-41 -18q-33 0 -33 44q0 19 15 36.5t36 17.5zM971 1107q34 0 34 -37q0 -24 -16 -40.5t-38 -16.5q-33 0 -33 42q0 18 16.5 35t36.5 17zM1029 620q0 -196 -182 -403q-101 -114 -226 -176.5t-248 -62.5q-133 0 -202 71 t-69 185q0 117 64 237t139 202q78 91 198.5 152t224.5 61q64 0 104.5 -35t40.5 -79q0 -5 -4.5 -9.5t-13.5 -12.5t-16 -16t-14 -20t-11 -19t-7 -7q-5 0 -5 7q0 25 -7 51q-15 54 -51 77t-77 23q-77 0 -167 -58t-152 -146q-145 -199 -145 -380q0 -108 58 -175.5t168 -67.5 q108 0 210.5 62.5t174.5 177.5q47 75 84 174t37 200q0 94 -23 158t-86 88q-8 3 -8 6q0 2 4 2q22 0 65 -21.5t67 -47.5q75 -80 75 -198z" glyph-name="Odieresis" horiz-adv-x="960" unicode=""/>
<glyph d="M167 94q-22 -22 -32 -22q-4 0 -7 1t-10 4t-17 6q-6 1 -12.5 2t-8.5 2t-2 3q0 3 60 46q123 86 299 196q-45 80 -91 153q-18 28 -32 45.5t-18.5 22t-4.5 7.5q0 7 18 14t43 7q20 0 51 -62q41 -83 82 -158q31 20 130.5 81.5t152.5 95.5q65 41 80 41q6 0 21 -13q5 -4 9 -7.5 t7 -5.5t5 -3.5t3.5 -2.5t2 -2t0.5 -2q0 -3 -18 -11t-46 -19.5t-40 -17.5q-147 -69 -293 -160q55 -102 119 -210q5 -9 11 -16l9 -10.5t3 -5.5q0 -4 -36 -23q-3 -1 -8 -4.5t-8.5 -5.5t-6.5 -2q-6 0 -29 48q-51 110 -101 199q-179 -115 -285 -211z" glyph-name="multiply" horiz-adv-x="800" unicode=""/>
<glyph d="M1029 620q0 -196 -182 -403q-101 -114 -226 -176.5t-248 -62.5q-101 0 -165 41.5t-90 114.5q-92 -58 -108 -58q-12 0 -12 10q0 4 3 6t21 12q12 6 20.5 11t28.5 16t41 24q-10 42 -10 79q0 117 64 237t139 202q78 91 198.5 152t224.5 61q64 0 104.5 -35t40.5 -79 q0 -5 -4.5 -9.5t-13.5 -12.5t-16 -16t-14 -20t-11 -19t-7 -7q-5 0 -5 7q0 25 -7 51q-15 54 -51 77t-77 23q-77 0 -167 -58t-152 -146q-145 -199 -145 -380q0 -25 3 -49l728 454q-7 174 -108 212q-8 3 -8 6q0 2 4 2q22 0 65 -21.5t67 -47.5q42 -44 61 -100q98 62 125 62 q8 0 8 -6q0 -7 -30 -23q-13 -8 -22.5 -13.5t-31 -17.5t-43.5 -26q8 -35 8 -74zM935 641l-725 -449q17 -80 72.5 -126.5t146.5 -46.5q108 0 210.5 62.5t174.5 177.5q47 75 84 174t37 200v8z" glyph-name="Oslash" horiz-adv-x="960" unicode=""/>
<glyph d="M874 971q0 -5 -8 -5q-6 0 -11 14l-50 154q-10 27 -10 42q0 8 8 20t16 12q9 0 12 -15l39 -199q4 -20 4 -23zM561 778q0 -38 -43 -119.5t-94.5 -162.5t-94.5 -176.5t-43 -158.5q0 -66 31.5 -99.5t87.5 -33.5q97 0 206.5 93.5t209.5 238.5q49 108 117.5 247.5t73.5 149.5 q13 28 26.5 41.5t39.5 21.5q75 24 87 24q8 0 8 -8q0 -3 -5.5 -6t-15.5 -10t-18 -19q-44 -66 -121.5 -204.5t-118.5 -234.5q-53 -122 -69.5 -171.5t-16.5 -97.5q0 -28 13 -47.5t40 -19.5q65 0 174 82q62 48 136 140q4 6 8 6t4 -4q0 -2 -2 -6q-68 -92 -138 -146 q-143 -108 -236 -108q-94 0 -94 97q0 19 8 46t16.5 46t22 47t15.5 33h-1q-49 -57 -94 -101t-99 -86.5t-110.5 -65.5t-110.5 -23q-75 0 -120 39t-45 115q0 59 43.5 158.5t96 187.5t96 174t43.5 122q0 25 -13 46t-40 21q-63 0 -127 -64q-20 -20 -22 -20q-6 0 -6 6t22 28 q87 90 176 90q39 0 68 -29t29 -79z" glyph-name="Ugrave" unicode=""/>
<glyph d="M798 993l186 189q24 24 28 24t9.5 -11t5.5 -16q0 -12 -10 -19l-211 -180q-13 -13 -20 -13q-5 0 -5 5q0 4 17 21zM561 778q0 -38 -43 -119.5t-94.5 -162.5t-94.5 -176.5t-43 -158.5q0 -66 31.5 -99.5t87.5 -33.5q97 0 206.5 93.5t209.5 238.5q49 108 117.5 247.5 t73.5 149.5q13 28 26.5 41.5t39.5 21.5q75 24 87 24q8 0 8 -8q0 -3 -5.5 -6t-15.5 -10t-18 -19q-44 -66 -121.5 -204.5t-118.5 -234.5q-53 -122 -69.5 -171.5t-16.5 -97.5q0 -28 13 -47.5t40 -19.5q65 0 174 82q62 48 136 140q4 6 8 6t4 -4q0 -2 -2 -6q-68 -92 -138 -146 q-143 -108 -236 -108q-94 0 -94 97q0 19 8 46t16.5 46t22 47t15.5 33h-1q-49 -57 -94 -101t-99 -86.5t-110.5 -65.5t-110.5 -23q-75 0 -120 39t-45 115q0 59 43.5 158.5t96 187.5t96 174t43.5 122q0 25 -13 46t-40 21q-63 0 -127 -64q-20 -20 -22 -20q-6 0 -6 6t22 28 q87 90 176 90q39 0 68 -29t29 -79z" glyph-name="Uacute" unicode=""/>
<glyph d="M959 1208q6 0 6 -8q0 -22 5 -105t5 -107q0 -9 -4 -14.5t-17 -14.5q-15 -11 -22 -11t-9 48l-4 164h-2q-76 -71 -189 -184q-10 -10 -21 -10q-9 0 -9 10q0 8 20 25q129 108 209 190q2 2 18 10l5 2.5t5.5 3t3.5 1.5zM561 778q0 -38 -43 -119.5t-94.5 -162.5t-94.5 -176.5 t-43 -158.5q0 -66 31.5 -99.5t87.5 -33.5q97 0 206.5 93.5t209.5 238.5q49 108 117.5 247.5t73.5 149.5q13 28 26.5 41.5t39.5 21.5q75 24 87 24q8 0 8 -8q0 -3 -5.5 -6t-15.5 -10t-18 -19q-44 -66 -121.5 -204.5t-118.5 -234.5q-53 -122 -69.5 -171.5t-16.5 -97.5 q0 -28 13 -47.5t40 -19.5q65 0 174 82q62 48 136 140q4 6 8 6t4 -4q0 -2 -2 -6q-68 -92 -138 -146q-143 -108 -236 -108q-94 0 -94 97q0 19 8 46t16.5 46t22 47t15.5 33h-1q-49 -57 -94 -101t-99 -86.5t-110.5 -65.5t-110.5 -23q-75 0 -120 39t-45 115q0 59 43.5 158.5 t96 187.5t96 174t43.5 122q0 25 -13 46t-40 21q-63 0 -127 -64q-20 -20 -22 -20q-6 0 -6 6t22 28q87 90 176 90q39 0 68 -29t29 -79z" glyph-name="Ucircumflex" unicode=""/>
<glyph d="M785 1112q18 0 30 -11.5t12 -26.5q0 -24 -19 -42t-41 -18q-33 0 -33 44q0 19 15 36.5t36 17.5zM980 1107q34 0 34 -37q0 -24 -16 -40.5t-38 -16.5q-33 0 -33 42q0 18 16.5 35t36.5 17zM561 778q0 -38 -43 -119.5t-94.5 -162.5t-94.5 -176.5t-43 -158.5q0 -66 31.5 -99.5 t87.5 -33.5q97 0 206.5 93.5t209.5 238.5q49 108 117.5 247.5t73.5 149.5q13 28 26.5 41.5t39.5 21.5q75 24 87 24q8 0 8 -8q0 -3 -5.5 -6t-15.5 -10t-18 -19q-44 -66 -121.5 -204.5t-118.5 -234.5q-53 -122 -69.5 -171.5t-16.5 -97.5q0 -28 13 -47.5t40 -19.5q65 0 174 82 q62 48 136 140q4 6 8 6t4 -4q0 -2 -2 -6q-68 -92 -138 -146q-143 -108 -236 -108q-94 0 -94 97q0 19 8 46t16.5 46t22 47t15.5 33h-1q-49 -57 -94 -101t-99 -86.5t-110.5 -65.5t-110.5 -23q-75 0 -120 39t-45 115q0 59 43.5 158.5t96 187.5t96 174t43.5 122q0 25 -13 46 t-40 21q-63 0 -127 -64q-20 -20 -22 -20q-6 0 -6 6t22 28q87 90 176 90q39 0 68 -29t29 -79z" glyph-name="Udieresis" unicode=""/>
<glyph d="M698 993l186 189q24 24 28 24t9.5 -11t5.5 -16q0 -12 -10 -19l-211 -180q-13 -13 -20 -13q-5 0 -5 5q0 4 17 21zM499 432q-39 -54 -131 -234.5t-97 -187.5q-7 -10 -19.5 -12.5t-37 -5.5t-45.5 -10q-12 -4 -19.5 -9t-11.5 -5q-12 0 -12 6q0 2 8 11.5t21 25.5t22 29 q166 250 238 413q44 99 44 211q0 70 -48.5 125t-114.5 55q-28 0 -69.5 -15.5t-72.5 -46.5q-20 -20 -22 -20q-6 0 -6 6t22 28q46 47 97 68.5t93 21.5q96 0 150 -59t54 -142q0 -78 -25 -164h1q137 135 227.5 203t232.5 133q70 32 133 32q27 0 50 -12t23 -23q0 -4 -3 -4l-3 2 q-4 2 -10 2q-34 0 -118 -20q-164 -39 -296.5 -135.5t-254.5 -266.5z" glyph-name="Yacute" horiz-adv-x="715" unicode=""/>
<glyph d="M289 242q70 -36 141 -36q146 0 261.5 88.5t115.5 208.5q0 52 -31 86.5t-85 34.5q-50 0 -100 -24.5t-90.5 -61t-81.5 -91t-70 -101t-60 -104.5zM535 781q0 -17 -3 -36t-6.5 -34.5t-12 -37t-13.5 -34t-17 -36.5l-16.5 -33t-18.5 -35t-17 -31l2 -1q32 42 71 77.5t106 67.5 t137 32q59 0 101.5 -42.5t42.5 -104.5q0 -91 -69.5 -173t-178.5 -129.5t-224 -47.5q-78 0 -148 16q-66 -125 -95 -195q-4 -10 -13.5 -11.5t-29.5 -2.5t-39 -8q-10 -4 -17 -9t-11 -5q-10 0 -10 6q0 3 7 14.5t16.5 26t12.5 19.5q61 100 124 214q10 17 33.5 60.5t36 65.5 t34.5 63t34.5 66t30 60.5t27.5 59.5t20 50.5t14.5 46.5t4.5 35q0 44 -17.5 70.5t-51.5 26.5q-19 0 -54 -15.5t-74 -54.5q-20 -20 -22 -20q-6 0 -6 6t22 28q44 46 97 68t89 22q54 0 77.5 -30.5t23.5 -74.5z" glyph-name="Thorn" horiz-adv-x="820" unicode=""/>
<glyph d="M-570 -610q4 0 9.5 -23t27.5 -46t65 -23q34 0 70 19t74 58.5t73.5 85t77 115t76 131t79.5 151t78 155.5t81 164.5t79 160.5l40 80q-28 8 -48 8q-36 0 -78 -28q-9 -6 -10 -6q-4 0 -4 4t6 8q70 48 116 48q14 0 34 -4q30 55 90.5 173.5t96 184.5t88.5 140t101 109 q68 49 127 49q20 0 33 -21.5t13 -50.5q0 -144 -172 -328q-76 -82 -76 -166q0 -23 14.5 -37.5t34.5 -24t40.5 -23t35 -44t14.5 -75.5q0 -57 -39 -122t-96 -117t-127.5 -87t-129.5 -35q-44 0 -83.5 15.5t-40.5 41.5q0 13 26.5 48.5t35.5 35.5q2 0 2 -4q0 -2 -1 -10t-1 -16 q0 -39 21.5 -67.5t62.5 -28.5q49 0 116.5 50.5t118.5 130t51 151.5q0 36 -13.5 60t-32 36t-37.5 22t-32.5 25t-13.5 38t6 44t11.5 35t25.5 39t30.5 36.5t44 47.5t49.5 53q92 100 92 232q0 35 -16 51.5t-33 16.5q-19 0 -36.5 -9.5t-38 -34.5t-36 -48t-40.5 -72.5t-41.5 -83.5 t-49.5 -104l-177 -368q-148 -308 -268 -519t-217 -333.5t-174.5 -175t-150.5 -52.5q-43 0 -77.5 25t-34.5 59q0 12 19 31t39 19z" glyph-name="germandbls" horiz-adv-x="738" unicode=""/>
<glyph d="M501 551q0 -5 -8 -5q-6 0 -11 14l-50 154q-10 27 -10 42q0 8 8 20t16 12q9 0 12 -15l39 -199q4 -20 4 -23zM652 98q-141 -110 -232 -110q-78 0 -78 82q-121 -75 -187 -75q-44 0 -66 30.5t-22 79.5q0 73 52 154.5t132.5 136.5t155.5 55q43 0 79.5 -24.5t49.5 -70.5 q26 0 26 -22q0 -13 -2.5 -25t-9 -24.5t-11 -21t-15.5 -21.5t-15.5 -18t-18 -19t-16.5 -17q-6 -6 -22 -21t-24 -23q-12 -31 -12 -66q0 -52 56 -52q63 0 172 82q62 48 136 140q4 6 8 6t4 -4q0 -2 -2 -6q-68 -92 -138 -146zM404 427q-63 0 -123.5 -52.5t-95.5 -127t-35 -140.5 q0 -78 55 -78q62 0 139 61q27 96 76 162q60 85 100 100q-13 34 -45 54.5t-71 20.5zM435 166q101 101 101 138q0 8 -8 8q-23 0 -93 -146z" glyph-name="agrave" horiz-adv-x="612" unicode=""/>
<glyph d="M425 573l186 189q24 24 28 24t9.5 -11t5.5 -16q0 -12 -10 -19l-211 -180q-13 -13 -20 -13q-5 0 -5 5q0 4 17 21zM652 98q-141 -110 -232 -110q-78 0 -78 82q-121 -75 -187 -75q-44 0 -66 30.5t-22 79.5q0 73 52 154.5t132.5 136.5t155.5 55q43 0 79.5 -24.5t49.5 -70.5 q26 0 26 -22q0 -13 -2.5 -25t-9 -24.5t-11 -21t-15.5 -21.5t-15.5 -18t-18 -19t-16.5 -17q-6 -6 -22 -21t-24 -23q-12 -31 -12 -66q0 -52 56 -52q63 0 172 82q62 48 136 140q4 6 8 6t4 -4q0 -2 -2 -6q-68 -92 -138 -146zM404 427q-63 0 -123.5 -52.5t-95.5 -127t-35 -140.5 q0 -78 55 -78q62 0 139 61q27 96 76 162q60 85 100 100q-13 34 -45 54.5t-71 20.5zM435 166q101 101 101 138q0 8 -8 8q-23 0 -93 -146z" glyph-name="aacute" horiz-adv-x="612" unicode=""/>
<glyph d="M586 788q6 0 6 -8q0 -22 5 -105t5 -107q0 -9 -4 -14.5t-17 -14.5q-15 -11 -22 -11t-9 48q-1 22 -1.5 52.5t-1.5 65t-1 46.5h-2q-76 -71 -189 -184q-10 -10 -21 -10q-9 0 -9 10q0 8 20 25q129 108 209 190q2 2 18 10l5 2.5t5.5 3t3.5 1.5zM652 98q-141 -110 -232 -110 q-78 0 -78 82q-121 -75 -187 -75q-44 0 -66 30.5t-22 79.5q0 73 52 154.5t132.5 136.5t155.5 55q43 0 79.5 -24.5t49.5 -70.5q26 0 26 -22q0 -13 -2.5 -25t-9 -24.5t-11 -21t-15.5 -21.5t-15.5 -18t-18 -19t-16.5 -17q-6 -6 -22 -21t-24 -23q-12 -31 -12 -66q0 -52 56 -52 q63 0 172 82q62 48 136 140q4 6 8 6t4 -4q0 -2 -2 -6q-68 -92 -138 -146zM404 427q-63 0 -123.5 -52.5t-95.5 -127t-35 -140.5q0 -78 55 -78q62 0 139 61q27 96 76 162q60 85 100 100q-13 34 -45 54.5t-71 20.5zM435 166q101 101 101 138q0 8 -8 8q-23 0 -93 -146z" glyph-name="acircumflex" horiz-adv-x="612" unicode=""/>
<glyph d="M455 729q21 0 39.5 -15t30.5 -33t30 -33t38 -15q32 0 52.5 14.5t38.5 56.5q2 3 5 10.5t5 10.5t5 3q7 0 7 -5q0 -27 -45 -75.5t-91 -48.5q-25 0 -46 15t-32.5 33t-29 33t-35.5 15q-25 0 -50.5 -20.5t-42.5 -56.5q-8 -17 -16 -17q-4 0 -4 4q0 22 49 73t92 51zM652 98 q-141 -110 -232 -110q-78 0 -78 82q-121 -75 -187 -75q-44 0 -66 30.5t-22 79.5q0 73 52 154.5t132.5 136.5t155.5 55q43 0 79.5 -24.5t49.5 -70.5q26 0 26 -22q0 -13 -2.5 -25t-9 -24.5t-11 -21t-15.5 -21.5t-15.5 -18t-18 -19t-16.5 -17q-6 -6 -22 -21t-24 -23 q-12 -31 -12 -66q0 -52 56 -52q63 0 172 82q62 48 136 140q4 6 8 6t4 -4q0 -2 -2 -6q-68 -92 -138 -146zM404 427q-63 0 -123.5 -52.5t-95.5 -127t-35 -140.5q0 -78 55 -78q62 0 139 61q27 96 76 162q60 85 100 100q-13 34 -45 54.5t-71 20.5zM435 166q101 101 101 138 q0 8 -8 8q-23 0 -93 -146z" glyph-name="atilde" horiz-adv-x="612" unicode=""/>
<glyph d="M412 692q18 0 30 -11.5t12 -26.5q0 -24 -19 -42t-41 -18q-33 0 -33 44q0 19 15 36.5t36 17.5zM607 687q34 0 34 -37q0 -24 -16 -40.5t-38 -16.5q-33 0 -33 42q0 18 16.5 35t36.5 17zM652 98q-141 -110 -232 -110q-78 0 -78 82q-121 -75 -187 -75q-44 0 -66 30.5t-22 79.5 q0 73 52 154.5t132.5 136.5t155.5 55q43 0 79.5 -24.5t49.5 -70.5q26 0 26 -22q0 -13 -2.5 -25t-9 -24.5t-11 -21t-15.5 -21.5t-15.5 -18t-18 -19t-16.5 -17q-6 -6 -22 -21t-24 -23q-12 -31 -12 -66q0 -52 56 -52q63 0 172 82q62 48 136 140q4 6 8 6t4 -4q0 -2 -2 -6 q-68 -92 -138 -146zM404 427q-63 0 -123.5 -52.5t-95.5 -127t-35 -140.5q0 -78 55 -78q62 0 139 61q27 96 76 162q60 85 100 100q-13 34 -45 54.5t-71 20.5zM435 166q101 101 101 138q0 8 -8 8q-23 0 -93 -146z" glyph-name="adieresis" horiz-adv-x="612" unicode=""/>
<glyph d="M425 666q0 46 36 80t84 34q32 0 53 -19t21 -49q0 -44 -35 -79t-81 -35q-33 0 -55.5 19t-22.5 49zM525 756q-29 0 -47.5 -23.5t-18.5 -54.5q0 -22 17.5 -40t38.5 -18q28 0 48 21t20 53q0 22 -16.5 42t-41.5 20zM652 98q-141 -110 -232 -110q-78 0 -78 82 q-121 -75 -187 -75q-44 0 -66 30.5t-22 79.5q0 73 52 154.5t132.5 136.5t155.5 55q43 0 79.5 -24.5t49.5 -70.5q26 0 26 -22q0 -13 -2.5 -25t-9 -24.5t-11 -21t-15.5 -21.5t-15.5 -18t-18 -19t-16.5 -17q-6 -6 -22 -21t-24 -23q-12 -31 -12 -66q0 -52 56 -52q63 0 172 82 q62 48 136 140q4 6 8 6t4 -4q0 -2 -2 -6q-68 -92 -138 -146zM404 427q-63 0 -123.5 -52.5t-95.5 -127t-35 -140.5q0 -78 55 -78q62 0 139 61q27 96 76 162q60 85 100 100q-13 34 -45 54.5t-71 20.5zM435 166q101 101 101 138q0 8 -8 8q-23 0 -93 -146z" glyph-name="aring" horiz-adv-x="612" unicode=""/>
<glyph d="M517 359q-15 31 -45.5 49.5t-67.5 18.5q-63 0 -123.5 -52.5t-95.5 -127t-35 -140.5q0 -78 55 -78q39 0 85 25q44 23 80 59q3 67 43.5 130.5t103.5 115.5zM531 371q104 80 179 80q21 0 36.5 -13.5t15.5 -36.5q0 -9 -8 -24.5t-28.5 -36.5t-50.5 -41t-80.5 -39t-111.5 -29 q-32 -64 -32 -127q0 -46 27 -70t70 -24q49 0 118 29t122 69q62 48 136 140q4 6 8 6t4 -4q0 -2 -2 -6q-68 -92 -138 -146q-140 -114 -291 -114q-54 0 -92.5 27.5t-42.5 79.5q-38 -27 -74 -48q-89 -48 -141 -48q-44 0 -66 30.5t-22 79.5q0 73 52 154.5t132.5 136.5t155.5 55 q39 0 73.5 -20.5t50.5 -59.5zM492 252q198 48 198 144q0 11 -6.5 19.5t-19.5 8.5q-42 0 -88 -49t-84 -123z" glyph-name="ae" horiz-adv-x="756" unicode=""/>
<glyph d="M513 98q-80 -58 -147 -89t-145 -31q-26 0 -46 4q-20 -19 -20 -35q0 -13 13 -33t13 -39q0 -33 -40.5 -71t-84.5 -38q-19 0 -33.5 9.5t-14.5 17.5q0 3 9 15q4 6 8.5 14.5t6.5 13.5l3 6q4 0 4 -2v-8q0 -5 2.5 -14t13.5 -20.5t28 -11.5q16 0 30 11t14 34q0 18 -13 38t-13 35 q0 24 59 81q-94 25 -94 124q0 61 38 125.5t92 111t112 76t99 29.5q24 0 38 -16t14 -42q0 -19 -6 -27.5t-32 -22.5q-20 -10 -28 -10q-4 0 -4 2q0 1 1 3.5t2 7.5t1 11q0 26 -15 40t-31 14q-40 0 -87.5 -50t-79.5 -121t-32 -128q0 -108 109 -108q107 0 248 104q62 48 136 140 q4 6 8 6t4 -4q0 -2 -2 -6q-68 -92 -138 -146z" glyph-name="ccedilla" horiz-adv-x="473" unicode=""/>
<glyph d="M439 551q0 -5 -8 -5q-6 0 -11 14l-50 154q-10 27 -10 42q0 8 8 20t16 12q9 0 12 -15l39 -199q4 -20 4 -23zM180 252q198 48 198 144q0 11 -6.5 19.5t-19.5 8.5q-42 0 -88 -49t-84 -123zM193 -16q-57 0 -96 31t-39 88q0 53 25.5 106.5t65 95.5t85.5 76t89.5 52t74.5 18 q21 0 36.5 -13.5t15.5 -36.5q0 -9 -8 -24.5t-28.5 -36.5t-50.5 -41t-80.5 -39t-111.5 -29q-32 -64 -32 -127q0 -46 27 -70t70 -24q49 0 118 29t122 69q62 48 136 140q4 6 8 6t4 -4q0 -2 -2 -6q-68 -92 -138 -146q-140 -114 -291 -114z" glyph-name="egrave" horiz-adv-x="444" unicode=""/>
<glyph d="M363 573l186 189q24 24 28 24t9.5 -11t5.5 -16q0 -12 -10 -19l-211 -180q-13 -13 -20 -13q-5 0 -5 5q0 4 17 21zM180 252q198 48 198 144q0 11 -6.5 19.5t-19.5 8.5q-42 0 -88 -49t-84 -123zM193 -16q-57 0 -96 31t-39 88q0 53 25.5 106.5t65 95.5t85.5 76t89.5 52 t74.5 18q21 0 36.5 -13.5t15.5 -36.5q0 -9 -8 -24.5t-28.5 -36.5t-50.5 -41t-80.5 -39t-111.5 -29q-32 -64 -32 -127q0 -46 27 -70t70 -24q49 0 118 29t122 69q62 48 136 140q4 6 8 6t4 -4q0 -2 -2 -6q-68 -92 -138 -146q-140 -114 -291 -114z" glyph-name="eacute" horiz-adv-x="444" unicode=""/>
<glyph d="M524 788q6 0 6 -8q0 -22 5 -105t5 -107q0 -9 -4 -14.5t-17 -14.5q-15 -11 -22 -11t-9 48q-1 22 -1.5 52.5t-1.5 65t-1 46.5h-2q-76 -71 -189 -184q-10 -10 -21 -10q-9 0 -9 10q0 8 20 25q129 108 209 190q2 2 18 10l5 2.5t5.5 3t3.5 1.5zM180 252q198 48 198 144 q0 11 -6.5 19.5t-19.5 8.5q-42 0 -88 -49t-84 -123zM193 -16q-57 0 -96 31t-39 88q0 53 25.5 106.5t65 95.5t85.5 76t89.5 52t74.5 18q21 0 36.5 -13.5t15.5 -36.5q0 -9 -8 -24.5t-28.5 -36.5t-50.5 -41t-80.5 -39t-111.5 -29q-32 -64 -32 -127q0 -46 27 -70t70 -24 q49 0 118 29t122 69q62 48 136 140q4 6 8 6t4 -4q0 -2 -2 -6q-68 -92 -138 -146q-140 -114 -291 -114z" glyph-name="ecircumflex" horiz-adv-x="444" unicode=""/>
<glyph d="M350 692q18 0 30 -11.5t12 -26.5q0 -24 -19 -42t-41 -18q-33 0 -33 44q0 19 15 36.5t36 17.5zM545 687q34 0 34 -37q0 -24 -16 -40.5t-38 -16.5q-33 0 -33 42q0 18 16.5 35t36.5 17zM180 252q198 48 198 144q0 11 -6.5 19.5t-19.5 8.5q-42 0 -88 -49t-84 -123zM193 -16 q-57 0 -96 31t-39 88q0 53 25.5 106.5t65 95.5t85.5 76t89.5 52t74.5 18q21 0 36.5 -13.5t15.5 -36.5q0 -9 -8 -24.5t-28.5 -36.5t-50.5 -41t-80.5 -39t-111.5 -29q-32 -64 -32 -127q0 -46 27 -70t70 -24q49 0 118 29t122 69q62 48 136 140q4 6 8 6t4 -4q0 -2 -2 -6 q-68 -92 -138 -146q-140 -114 -291 -114z" glyph-name="edieresis" horiz-adv-x="444" unicode=""/>
<glyph d="M372 551q0 -5 -8 -5q-6 0 -11 14l-50 154q-10 27 -10 42q0 8 8 20t16 12q9 0 12 -15l39 -199q4 -20 4 -23zM305 411q0 -42 -71 -166t-71 -167q0 -52 75 -52q59 0 168 82q62 48 136 140q4 6 8 6t4 -4q0 -2 -2 -6q-68 -92 -138 -146q-51 -41 -114.5 -73.5t-119.5 -32.5 q-44 0 -70.5 19.5t-26.5 57.5q0 46 36.5 115.5t72.5 130t36 85.5q0 32 -20 32q-23 0 -74 -34q-9 -6 -10 -6q-4 0 -4 4t6 8q75 56 120 56q29 0 44 -13.5t15 -35.5z" glyph-name="igrave" horiz-adv-x="374" unicode=""/>
<glyph d="M296 573l186 189q24 24 28 24t9.5 -11t5.5 -16q0 -12 -10 -19l-211 -180q-13 -13 -20 -13q-5 0 -5 5q0 4 17 21zM305 411q0 -42 -71 -166t-71 -167q0 -52 75 -52q59 0 168 82q62 48 136 140q4 6 8 6t4 -4q0 -2 -2 -6q-68 -92 -138 -146q-51 -41 -114.5 -73.5 t-119.5 -32.5q-44 0 -70.5 19.5t-26.5 57.5q0 46 36.5 115.5t72.5 130t36 85.5q0 32 -20 32q-23 0 -74 -34q-9 -6 -10 -6q-4 0 -4 4t6 8q75 56 120 56q29 0 44 -13.5t15 -35.5z" glyph-name="iacute" horiz-adv-x="374" unicode=""/>
<glyph d="M457 788q6 0 6 -8q0 -22 5 -105t5 -107q0 -9 -4 -14.5t-17 -14.5q-15 -11 -22 -11t-9 48q-1 22 -1.5 52.5t-1.5 65t-1 46.5h-2q-76 -71 -189 -184q-10 -10 -21 -10q-9 0 -9 10q0 8 20 25q129 108 209 190q2 2 18 10l5 2.5t5.5 3t3.5 1.5zM305 411q0 -42 -71 -166 t-71 -167q0 -52 75 -52q59 0 168 82q62 48 136 140q4 6 8 6t4 -4q0 -2 -2 -6q-68 -92 -138 -146q-51 -41 -114.5 -73.5t-119.5 -32.5q-44 0 -70.5 19.5t-26.5 57.5q0 46 36.5 115.5t72.5 130t36 85.5q0 32 -20 32q-23 0 -74 -34q-9 -6 -10 -6q-4 0 -4 4t6 8q75 56 120 56 q29 0 44 -13.5t15 -35.5z" glyph-name="icircumflex" horiz-adv-x="374" unicode=""/>
<glyph d="M283 692q18 0 30 -11.5t12 -26.5q0 -24 -19 -42t-41 -18q-33 0 -33 44q0 19 15 36.5t36 17.5zM478 687q34 0 34 -37q0 -24 -16 -40.5t-38 -16.5q-33 0 -33 42q0 18 16.5 35t36.5 17zM305 411q0 -42 -71 -166t-71 -167q0 -52 75 -52q59 0 168 82q62 48 136 140q4 6 8 6 t4 -4q0 -2 -2 -6q-68 -92 -138 -146q-51 -41 -114.5 -73.5t-119.5 -32.5q-44 0 -70.5 19.5t-26.5 57.5q0 46 36.5 115.5t72.5 130t36 85.5q0 32 -20 32q-23 0 -74 -34q-9 -6 -10 -6q-4 0 -4 4t6 8q75 56 120 56q29 0 44 -13.5t15 -35.5z" glyph-name="idieresis" horiz-adv-x="374" unicode=""/>
<glyph d="M453 247q2 10 2 30q0 52 -21.5 89.5t-65.5 37.5q-73 0 -152.5 -104.5t-79.5 -193.5q0 -98 64 -98q33 0 79.5 28.5t86.5 77.5q35 43 87 133zM508 1108q0 8 26 20q7 3 16.5 8t15 7.5t8.5 2.5q5 0 16.5 -30.5t23.5 -76t18 -83.5q108 22 148 24q6 0 6 -4t-5.5 -9t-8.5 -5 q-69 -13 -136 -30q14 -91 14 -164q0 -111 -20.5 -213.5t-48.5 -172.5t-67.5 -133.5t-67 -96t-56.5 -61.5q-56 -55 -117 -81t-109 -26q-44 0 -75 25.5t-31 74.5q0 79 62 164t142.5 137.5t139.5 52.5q73 0 110 -90q70 172 70 388q0 113 -12 178q-32 -10 -58.5 -18t-43 -13.5 t-30 -10.5t-20.5 -7.5t-12.5 -4.5t-7.5 -2.5l-4 -1t-4 -0.5l-4 4q0 12 15 25.5t23 16.5q48 16 140 40q-11 56 -25 95t-22.5 53.5t-8.5 17.5z" glyph-name="eth" horiz-adv-x="580" unicode=""/>
<glyph d="M483 729q21 0 39.5 -15t30.5 -33t30 -33t38 -15q32 0 52.5 14.5t38.5 56.5q2 3 5 10.5t5 10.5t5 3q7 0 7 -5q0 -27 -45 -75.5t-91 -48.5q-25 0 -46 15t-32.5 33t-29 33t-35.5 15q-25 0 -50.5 -20.5t-42.5 -56.5q-8 -17 -16 -17q-4 0 -4 4q0 22 49 73t92 51zM305 411 q0 -39 -32 -97q52 50 122.5 94t116.5 44q31 0 54 -22t23 -52q0 -43 -74.5 -164t-74.5 -156q0 -16 9 -27t23 -11q40 0 94 27.5t96 60.5q62 48 136 140q4 6 8 6t4 -4q0 -2 -2 -6q-68 -92 -138 -146q-71 -57 -141.5 -87.5t-111.5 -30.5q-26 0 -43 15.5t-17 41.5q0 41 37 108 t74 129.5t37 94.5q0 21 -12.5 33t-27.5 12q-76 0 -209 -144l-148 -262q-3 -5 -9.5 -7t-19.5 -2.5t-22 -2.5q-12 -3 -24 -7t-16 -4t-4 4q0 1 1.5 2.5l4.5 4.5t6 7q13 18 51 83q63 109 92 162q16 31 38 83t22 69q0 32 -20 32q-23 0 -74 -34q-9 -6 -10 -6q-4 0 -4 4t6 8 q75 56 120 56q29 0 44 -13.5t15 -35.5z" glyph-name="ntilde" horiz-adv-x="630" unicode=""/>
<glyph d="M500 551q0 -5 -8 -5q-6 0 -11 14l-50 154q-10 27 -10 42q0 8 8 20t16 12q9 0 12 -15l39 -199q4 -20 4 -23zM414 451q57 0 90.5 -36t33.5 -96q0 -66 -32.5 -129t-82.5 -107.5t-111.5 -71.5t-117.5 -27t-92 36.5t-36 92.5q0 82 55.5 162t136.5 128t156 48zM385 429 q-53 0 -108 -48t-90.5 -119.5t-35.5 -137.5q0 -49 21 -81.5t53 -32.5q81 0 156.5 102.5t75.5 205.5q0 49 -19.5 80t-52.5 31z" glyph-name="ograve" horiz-adv-x="560" unicode=""/>
<glyph d="M424 573l186 189q24 24 28 24t9.5 -11t5.5 -16q0 -12 -10 -19l-211 -180q-13 -13 -20 -13q-5 0 -5 5q0 4 17 21zM414 451q57 0 90.5 -36t33.5 -96q0 -66 -32.5 -129t-82.5 -107.5t-111.5 -71.5t-117.5 -27t-92 36.5t-36 92.5q0 82 55.5 162t136.5 128t156 48zM385 429 q-53 0 -108 -48t-90.5 -119.5t-35.5 -137.5q0 -49 21 -81.5t53 -32.5q81 0 156.5 102.5t75.5 205.5q0 49 -19.5 80t-52.5 31z" glyph-name="oacute" horiz-adv-x="560" unicode=""/>
<glyph d="M585 788q6 0 6 -8q0 -22 5 -105t5 -107q0 -9 -4 -14.5t-17 -14.5q-15 -11 -22 -11t-9 48q-1 22 -1.5 52.5t-1.5 65t-1 46.5h-2q-76 -71 -189 -184q-10 -10 -21 -10q-9 0 -9 10q0 8 20 25q129 108 209 190q2 2 18 10l5 2.5t5.5 3t3.5 1.5zM414 451q57 0 90.5 -36t33.5 -96 q0 -66 -32.5 -129t-82.5 -107.5t-111.5 -71.5t-117.5 -27t-92 36.5t-36 92.5q0 82 55.5 162t136.5 128t156 48zM385 429q-53 0 -108 -48t-90.5 -119.5t-35.5 -137.5q0 -49 21 -81.5t53 -32.5q81 0 156.5 102.5t75.5 205.5q0 49 -19.5 80t-52.5 31z" glyph-name="ocircumflex" horiz-adv-x="560" unicode=""/>
<glyph d="M454 729q21 0 39.5 -15t30.5 -33t30 -33t38 -15q32 0 52.5 14.5t38.5 56.5q2 3 5 10.5t5 10.5t5 3q7 0 7 -5q0 -27 -45 -75.5t-91 -48.5q-25 0 -46 15t-32.5 33t-29 33t-35.5 15q-25 0 -50.5 -20.5t-42.5 -56.5q-8 -17 -16 -17q-4 0 -4 4q0 22 49 73t92 51zM414 451 q57 0 90.5 -36t33.5 -96q0 -66 -32.5 -129t-82.5 -107.5t-111.5 -71.5t-117.5 -27t-92 36.5t-36 92.5q0 82 55.5 162t136.5 128t156 48zM385 429q-53 0 -108 -48t-90.5 -119.5t-35.5 -137.5q0 -49 21 -81.5t53 -32.5q81 0 156.5 102.5t75.5 205.5q0 49 -19.5 80t-52.5 31z " glyph-name="otilde" horiz-adv-x="560" unicode=""/>
<glyph d="M411 692q18 0 30 -11.5t12 -26.5q0 -24 -19 -42t-41 -18q-33 0 -33 44q0 19 15 36.5t36 17.5zM606 687q34 0 34 -37q0 -24 -16 -40.5t-38 -16.5q-33 0 -33 42q0 18 16.5 35t36.5 17zM414 451q57 0 90.5 -36t33.5 -96q0 -66 -32.5 -129t-82.5 -107.5t-111.5 -71.5 t-117.5 -27t-92 36.5t-36 92.5q0 82 55.5 162t136.5 128t156 48zM385 429q-53 0 -108 -48t-90.5 -119.5t-35.5 -137.5q0 -49 21 -81.5t53 -32.5q81 0 156.5 102.5t75.5 205.5q0 49 -19.5 80t-52.5 31z" glyph-name="odieresis" horiz-adv-x="560" unicode=""/>
<glyph d="M506 482q0 33 22 58t55 25q17 0 29 -11.5t12 -27.5q0 -30 -24.5 -55t-49.5 -25q-19 0 -31.5 9.5t-12.5 26.5zM314 124q0 33 22.5 57.5t55.5 24.5q17 0 27.5 -10.5t10.5 -28.5q0 -31 -24 -56.5t-49 -25.5q-18 0 -30.5 10.5t-12.5 28.5zM582 346q30 0 104 2t76 2q4 0 4 -2 t-9 -22q-2 -4 -3.5 -8t-2.5 -6t-2 -4.5t-1.5 -3.5l-1 -2t-1.5 -1.5t-2 -0.5q-4 0 -161 4t-214 4q-34 0 -103.5 -2t-72.5 -2q-4 0 -4 2q0 1 1 3t5.5 8.5t9.5 14.5q2 4 4.5 8.5t3.5 6.5t2.5 4t2.5 2.5t3 0.5q16 0 156.5 -4t205.5 -4z" glyph-name="divide" horiz-adv-x="736" unicode=""/>
<glyph d="M640 600q10 0 10 -8q0 -4 -6 -10l-147 -160q41 -36 41 -103q0 -66 -32.5 -129t-82.5 -107.5t-111.5 -71.5t-117.5 -27q-44 0 -76 23l-104 -113q-12 -12 -28 -12q-4 0 -4 2q0 4 6 10l115 126q-37 37 -37 93q0 82 55.5 162t136.5 128t156 48q38 0 67 -17l139 152 q14 14 20 14zM385 429q-53 0 -108 -48t-90.5 -119.5t-35.5 -137.5q0 -24 6 -45l285 312q-19 38 -57 38zM450 370l-286 -312q22 -48 61 -48q81 0 156.5 102.5t75.5 205.5q0 31 -7 52z" glyph-name="oslash" horiz-adv-x="560" unicode=""/>
<glyph d="M517 551q0 -5 -8 -5q-6 0 -11 14l-50 154q-10 27 -10 42q0 8 8 20t16 12q9 0 12 -15l39 -199q4 -20 4 -23zM690 98q-56 -47 -125.5 -78t-115.5 -31q-29 0 -46 16t-17 40q0 31 14 67q-1 -1 -12.5 -12t-16 -15.5t-18 -16t-21.5 -17.5t-22.5 -16.5t-25.5 -16.5t-26.5 -13.5 t-29 -11.5t-29.5 -7t-31 -3q-38 0 -68 21.5t-30 67.5q0 41 39.5 108.5t79 130t39.5 89.5q0 32 -20 32q-7 0 -14 -1.5t-12 -3.5t-13 -6.5t-11 -6.5l-12 -8l-12 -8q-9 -6 -10 -6q-4 0 -4 4t6 8q81 56 120 56q58 0 58 -56q0 -25 -38.5 -89t-77 -130t-38.5 -99q0 -60 64 -60 q77 0 202 121q62 131 127 239q35 59 50 59q12 0 29.5 -9t17.5 -23q0 -13 -21 -41.5t-52.5 -69t-47.5 -69.5q-2 -4 -11 -19.5t-12.5 -22t-11 -21t-11 -24.5t-7.5 -23t-6 -25.5t-2 -24.5q0 -21 12.5 -34.5t35.5 -13.5q32 0 83 24t93 59q62 48 136 140q4 6 8 6t4 -4q0 -2 -2 -6 q-68 -92 -138 -146z" glyph-name="ugrave" horiz-adv-x="650" unicode=""/>
<glyph d="M441 573l186 189q24 24 28 24t9.5 -11t5.5 -16q0 -12 -10 -19l-211 -180q-13 -13 -20 -13q-5 0 -5 5q0 4 17 21zM690 98q-56 -47 -125.5 -78t-115.5 -31q-29 0 -46 16t-17 40q0 31 14 67q-1 -1 -12.5 -12t-16 -15.5t-18 -16t-21.5 -17.5t-22.5 -16.5t-25.5 -16.5 t-26.5 -13.5t-29 -11.5t-29.5 -7t-31 -3q-38 0 -68 21.5t-30 67.5q0 41 39.5 108.5t79 130t39.5 89.5q0 32 -20 32q-7 0 -14 -1.5t-12 -3.5t-13 -6.5t-11 -6.5l-12 -8l-12 -8q-9 -6 -10 -6q-4 0 -4 4t6 8q81 56 120 56q58 0 58 -56q0 -25 -38.5 -89t-77 -130t-38.5 -99 q0 -60 64 -60q77 0 202 121q62 131 127 239q35 59 50 59q12 0 29.5 -9t17.5 -23q0 -13 -21 -41.5t-52.5 -69t-47.5 -69.5q-2 -4 -11 -19.5t-12.5 -22t-11 -21t-11 -24.5t-7.5 -23t-6 -25.5t-2 -24.5q0 -21 12.5 -34.5t35.5 -13.5q32 0 83 24t93 59q62 48 136 140q4 6 8 6 t4 -4q0 -2 -2 -6q-68 -92 -138 -146z" glyph-name="uacute" horiz-adv-x="650" unicode=""/>
<glyph d="M602 788q6 0 6 -8q0 -22 5 -105t5 -107q0 -9 -4 -14.5t-17 -14.5q-15 -11 -22 -11t-9 48q-1 22 -1.5 52.5t-1.5 65t-1 46.5h-2q-76 -71 -189 -184q-10 -10 -21 -10q-9 0 -9 10q0 8 20 25q129 108 209 190q2 2 18 10l5 2.5t5.5 3t3.5 1.5zM690 98q-56 -47 -125.5 -78 t-115.5 -31q-29 0 -46 16t-17 40q0 31 14 67q-1 -1 -12.5 -12t-16 -15.5t-18 -16t-21.5 -17.5t-22.5 -16.5t-25.5 -16.5t-26.5 -13.5t-29 -11.5t-29.5 -7t-31 -3q-38 0 -68 21.5t-30 67.5q0 41 39.5 108.5t79 130t39.5 89.5q0 32 -20 32q-7 0 -14 -1.5t-12 -3.5t-13 -6.5 t-11 -6.5l-12 -8l-12 -8q-9 -6 -10 -6q-4 0 -4 4t6 8q81 56 120 56q58 0 58 -56q0 -25 -38.5 -89t-77 -130t-38.5 -99q0 -60 64 -60q77 0 202 121q62 131 127 239q35 59 50 59q12 0 29.5 -9t17.5 -23q0 -13 -21 -41.5t-52.5 -69t-47.5 -69.5q-2 -4 -11 -19.5t-12.5 -22 t-11 -21t-11 -24.5t-7.5 -23t-6 -25.5t-2 -24.5q0 -21 12.5 -34.5t35.5 -13.5q32 0 83 24t93 59q62 48 136 140q4 6 8 6t4 -4q0 -2 -2 -6q-68 -92 -138 -146z" glyph-name="ucircumflex" horiz-adv-x="650" unicode=""/>
<glyph d="M428 692q18 0 30 -11.5t12 -26.5q0 -24 -19 -42t-41 -18q-33 0 -33 44q0 19 15 36.5t36 17.5zM623 687q34 0 34 -37q0 -24 -16 -40.5t-38 -16.5q-33 0 -33 42q0 18 16.5 35t36.5 17zM690 98q-56 -47 -125.5 -78t-115.5 -31q-29 0 -46 16t-17 40q0 31 14 67 q-1 -1 -12.5 -12t-16 -15.5t-18 -16t-21.5 -17.5t-22.5 -16.5t-25.5 -16.5t-26.5 -13.5t-29 -11.5t-29.5 -7t-31 -3q-38 0 -68 21.5t-30 67.5q0 41 39.5 108.5t79 130t39.5 89.5q0 32 -20 32q-7 0 -14 -1.5t-12 -3.5t-13 -6.5t-11 -6.5l-12 -8l-12 -8q-9 -6 -10 -6 q-4 0 -4 4t6 8q81 56 120 56q58 0 58 -56q0 -25 -38.5 -89t-77 -130t-38.5 -99q0 -60 64 -60q77 0 202 121q62 131 127 239q35 59 50 59q12 0 29.5 -9t17.5 -23q0 -13 -21 -41.5t-52.5 -69t-47.5 -69.5q-2 -4 -11 -19.5t-12.5 -22t-11 -21t-11 -24.5t-7.5 -23t-6 -25.5 t-2 -24.5q0 -21 12.5 -34.5t35.5 -13.5q32 0 83 24t93 59q62 48 136 140q4 6 8 6t4 -4q0 -2 -2 -6q-68 -92 -138 -146z" glyph-name="udieresis" horiz-adv-x="650" unicode=""/>
<glyph d="M433 573l186 189q24 24 28 24t9.5 -11t5.5 -16q0 -12 -10 -19l-211 -180q-13 -13 -20 -13q-5 0 -5 5q0 4 17 21zM298 -85q-35 -12 -122 -39t-129 -42q-110 -39 -199.5 -92t-150.5 -127t-61 -151q0 -122 119 -122q100 0 205.5 81t193.5 238q80 140 144 254zM670 98 q-103 -87 -298 -157l-171 -275q-101 -163 -231.5 -261.5t-257.5 -98.5q-75 0 -113 45t-38 100q0 46 18 89.5t45.5 77t70 66t82 55.5t92 46.5t89.5 37.5t84 30q58 20 157 51t112 35l81 145q-116 -93 -235 -93q-30 0 -54.5 17.5t-24.5 47.5q0 40 24.5 90t53.5 90t53.5 85.5 t24.5 76.5q0 26 -28 26q-33 0 -72 -26q-9 -6 -10 -6q-4 0 -4 4t6 8q64 44 110 44q32 0 51 -16t19 -48t-75.5 -151t-75.5 -158q0 -51 50 -51q41 0 102 28t101 62l108 208q8 15 17.5 34l14 28t11 19t13.5 14t16 5q40 4 56 4q6 0 6 -6q0 -4 -15 -30t-39.5 -66.5t-35.5 -59.5 q-108 -192 -173 -300q156 55 275 144q62 48 136 140q4 6 8 6t4 -4q0 -2 -2 -6q-68 -92 -138 -146z" glyph-name="yacute" horiz-adv-x="630" unicode=""/>
<glyph d="M336 750q-30 0 -62 -25q-17 -14 -19 -14q-5 0 -5 5q0 3 19 19q57 45 107 45q31 0 47 -18t16 -46q0 -12 -4.5 -27.5t-16.5 -38l-20 -37.5t-28 -48t-28 -47l-154 -266q202 199 316 199q21 0 39 -16t18 -54q0 -54 -40 -122.5t-115 -136.5q-60 -55 -136 -97.5t-143 -42.5 q-33 0 -33 14q0 5 15 26q2 4 6 11.5t7 12t5 4.5q1 0 2 -2.5t2.5 -6.5t3.5 -7q15 -22 48 -22q50 0 120 58t120 134.5t50 127.5q0 33 -16.5 45.5t-36.5 12.5q-47 0 -124 -64t-148 -150q-55 -97 -89 -160q-56 -105 -195.5 -376.5t-251.5 -471.5q-16 -29 -41 -51.5t-48 -34.5 t-46.5 -19t-36 -9t-17.5 -2q-9 0 -9 4q0 3 2 4.5t6 3t10 3.5t15 7t19 13q21 16 72.5 91.5t180 296.5t307.5 553q55 101 143 268t135 255q3 6 13.5 25t14 26t11.5 22.5t11 24t7.5 21t6 22.5t1.5 20q0 16 -9 27t-24 11z" glyph-name="thorn" horiz-adv-x="524" unicode=""/>
<glyph d="M845 970q0 -5 -8 -5q-6 0 -11 14l-50 154q-10 27 -10 42q0 8 8 20t16 12q9 0 12 -15l39 -199q4 -20 4 -23zM430 -24q-100 0 -186 60t-86 154q0 68 29.5 126t73.5 93.5t96 64t96 43t73.5 24.5t29.5 13q0 8 -12 16q-61 42 -61 117q0 31 19 65t54.5 64.5t95 50t130.5 19.5 q20 0 52 -4t69.5 -12.5t64 -25t26.5 -38.5q0 -9 -3.5 -16t-11 -19t-13.5 -25q-8 -16 -12 -16t-8 12q-12 41 -61.5 80.5t-124.5 39.5q-55 0 -97.5 -13.5t-64 -34.5t-32 -41t-10.5 -37q0 -38 19.5 -77.5t52.5 -58.5q40 -19 40 -24q0 -17 -8 -27t-34 -13q-88 -10 -155 -36 t-106.5 -58.5t-64.5 -74.5t-33.5 -81t-8.5 -82q0 -50 21.5 -88.5t56 -59t70.5 -31t72 -10.5q137 0 215 72t78 163q0 7 -2 15.5t-2 10.5q0 6 4 6q7 0 28 -15t21 -26q0 -23 -16 -56t-49.5 -69.5t-78.5 -67.5t-110 -51.5t-136 -20.5z" glyph-name="uni0400" horiz-adv-x="834" unicode=""/>
<glyph d="M756 1111q18 0 30 -11.5t12 -26.5q0 -24 -19 -42t-41 -18q-33 0 -33 44q0 19 15 36.5t36 17.5zM951 1106q34 0 34 -37q0 -24 -16 -40.5t-38 -16.5q-33 0 -33 42q0 18 16.5 35t36.5 17zM430 -24q-100 0 -186 60t-86 154q0 68 29.5 126t73.5 93.5t96 64t96 43t73.5 24.5 t29.5 13q0 8 -12 16q-61 42 -61 117q0 31 19 65t54.5 64.5t95 50t130.5 19.5q20 0 52 -4t69.5 -12.5t64 -25t26.5 -38.5q0 -9 -3.5 -16t-11 -19t-13.5 -25q-8 -16 -12 -16t-8 12q-12 41 -61.5 80.5t-124.5 39.5q-55 0 -97.5 -13.5t-64 -34.5t-32 -41t-10.5 -37 q0 -38 19.5 -77.5t52.5 -58.5q40 -19 40 -24q0 -17 -8 -27t-34 -13q-88 -10 -155 -36t-106.5 -58.5t-64.5 -74.5t-33.5 -81t-8.5 -82q0 -50 21.5 -88.5t56 -59t70.5 -31t72 -10.5q137 0 215 72t78 163q0 7 -2 15.5t-2 10.5q0 6 4 6q7 0 28 -15t21 -26q0 -23 -16 -56 t-49.5 -69.5t-78.5 -67.5t-110 -51.5t-136 -20.5z" glyph-name="afii10023" horiz-adv-x="834" unicode=""/>
<glyph d="M480 886q85 0 203.5 -11.5t208.5 -11.5q68 0 109 16.5t46 41.5q3 18 10 18q8 0 8 -9q0 -35 -69.5 -75t-151.5 -40q-69 0 -161 11q-29 -50 -122 -224.5t-126 -231.5q61 42 156 85t153 43q33 0 54.5 -4.5t44.5 -19t34 -47.5t11 -85q0 -104 -77.5 -258t-172.5 -254 q-81 -85 -174 -136.5t-180 -51.5q-59 0 -95 15.5t-36 31.5q0 5 1 9.5t2.5 8.5t4 13t5.5 21q2 7 3.5 14.5t2 12t1.5 8.5t2 5.5t2 1.5q4 0 4 -6q0 -3 -0.5 -12.5t-0.5 -11.5q0 -39 40.5 -63.5t93.5 -24.5q131 0 272 184q86 112 148 250t62 227q0 140 -79 140q-137 0 -322 -173 q-32 -58 -118 -232q-14 -29 -26 -41t-20 -14.5t-34 -5.5q-25 -3 -45 -10t-24 -7q-7 0 -7 5q0 3 3 6t12 13t19 25q65 92 133 216q239 438 305 588q-74 8 -149 8q-126 0 -190 -62q-20 -20 -22 -20q-6 0 -6 6t22 28q88 90 232 90z" glyph-name="afii10051" horiz-adv-x="914" unicode=""/>
<glyph d="M723 992l186 189q24 24 28 24t9.5 -11t5.5 -16q0 -12 -10 -19l-211 -180q-13 -13 -20 -13q-5 0 -5 5q0 4 17 21zM545 886q85 0 211.5 -11.5t216.5 -11.5q43 0 79 14.5t40 37.5q3 18 10 18q8 0 8 -9q0 -34 -61 -72t-130 -38q-41 0 -92 4.5t-113 11.5t-93 10 q-92 -155 -225 -406q-107 -201 -192 -373q-14 -29 -26 -41t-20 -14.5t-34 -5.5q-25 -3 -45 -10t-24 -7q-7 0 -7 5q0 3 3 6t12 13t19 25q65 92 133 216q10 18 75 137.5t94 174.5t73.5 142.5t68.5 143.5q-19 1 -29 1q-49 0 -98 -17t-80 -48q-20 -20 -22 -20q-6 0 -6 6t22 28 q88 90 232 90z" glyph-name="afii10052" horiz-adv-x="746" unicode=""/>
<glyph d="M944 744q-5 -8 -10 -8q-6 0 -6 8q0 34 -46 66t-98 32q-175 0 -300 -114q-145 -133 -195 -288q76 70 135 70q46 0 127 -42.5t108 -42.5q22 0 41.5 6.5t28 12.5t27.5 21q5 4 13.5 12t14 12.5t11.5 8.5t9 4q7 0 7 -8q0 -9 -72 -65q-69 -54 -126 -54q-30 0 -111 42.5 t-125 42.5q-51 0 -97 -49q-17 -66 -17 -136q0 -102 52 -175q65 -91 185 -91q86 0 158.5 46.5t114.5 112.5q13 20 13 31q0 5 -1.5 8.5t-1.5 5.5q0 4 5 4q2 0 3.5 -1.5t7 -6.5t12.5 -10q5 -4 11 -7.5t9.5 -5.5t5.5 -4.5t2 -5.5q0 -12 -17 -35q-54 -76 -153 -118.5t-209 -42.5 q-72 0 -134.5 22t-99.5 68q-62 78 -62 185q0 138 80.5 265.5t215.5 226.5q189 139 388 139q29 0 54.5 -7t41.5 -17t27 -21.5t16 -20t5 -12.5q0 -10 -20.5 -31t-27.5 -33z" glyph-name="afii10053" horiz-adv-x="860" unicode=""/>
<glyph d="M76 136q0 6 24 30q14 14 28.5 31.5t22 27t9.5 9.5q6 0 6 -4l-9 -14q-9 -15 -9 -26q0 -42 15.5 -75t39 -52.5t53.5 -32.5t56.5 -17.5t51.5 -4.5q115 0 187.5 73t72.5 147q0 44 -21 89t-51.5 84t-61 77t-51.5 80t-21 80q0 66 54.5 125t130 91t143.5 32q32 0 59 -9t44 -22 t29 -27t17 -24t5 -14t-7 -10t-20 -15t-19 -13q-17 -12 -18 -12q-6 0 -6 6q0 36 -42.5 66t-105.5 30q-90 0 -142 -49.5t-52 -112.5q0 -36 22.5 -76t54.5 -77t64 -75t54.5 -81.5t22.5 -84.5q0 -80 -66 -156t-161 -120t-183 -44q-58 0 -103 16.5t-69 43t-36 54.5t-12 56z" glyph-name="afii10054" horiz-adv-x="752" unicode=""/>
<glyph d="M229 142q-28 -55 -63 -138q-4 -10 -17 -11.5t-36.5 -2t-42.5 -8.5q-10 -4 -17 -9t-11 -5q-10 0 -10 6q0 3 6.5 11t16.5 19.5t13 15.5q36 47 106 177q120 220 277 521q42 81 42 102q0 18 -19 23q-3 1 -9 2t-8.5 2t-2.5 4q0 13 16 13q44 0 103.5 4.5t68.5 4.5q4 0 7 -4 t3 -7q0 -4 -3.5 -4.5t-14 -4.5t-22.5 -14q-27 -22 -85 -129q-135 -249 -298 -568z" glyph-name="afii10055" horiz-adv-x="400" unicode=""/>
<glyph d="M556 1112q18 0 30 -11.5t12 -26.5q0 -24 -19 -42t-41 -18q-33 0 -33 44q0 19 15 36.5t36 17.5zM751 1107q34 0 34 -37q0 -24 -16 -40.5t-38 -16.5q-33 0 -33 42q0 18 16.5 35t36.5 17zM229 142q-28 -55 -63 -138q-4 -10 -17 -11.5t-36.5 -2t-42.5 -8.5q-10 -4 -17 -9 t-11 -5q-10 0 -10 6q0 3 6.5 11t16.5 19.5t13 15.5q36 47 106 177q120 220 277 521q42 81 42 102q0 18 -19 23q-3 1 -9 2t-8.5 2t-2.5 4q0 13 16 13q44 0 103.5 4.5t68.5 4.5q4 0 7 -4t3 -7q0 -4 -3.5 -4.5t-14 -4.5t-22.5 -14q-27 -22 -85 -129q-135 -249 -298 -568z" glyph-name="afii10056" horiz-adv-x="400" unicode=""/>
<glyph d="M506 886q19 0 75.5 -15.5t96.5 -15.5q60 0 96 9.5t52.5 18.5t28.5 9q8 0 8 -6q0 -3 -4.5 -6l-12 -8t-11.5 -10q-38 -45 -73 -97t-59 -91t-56 -103t-46.5 -94.5t-49.5 -107.5t-47 -103q-118 -256 -266 -432q-200 -237 -377 -237q-78 0 -121.5 40.5t-43.5 80.5q0 25 4 37 t18 33q3 4 6 10t5 9.5t4.5 6t5.5 2.5q6 0 6 -5q0 -3 -3.5 -10.5t-3.5 -12.5q0 -23 14 -51t52.5 -53.5t93.5 -25.5q87 0 140 32.5t124 117.5q62 74 237 425q20 40 70.5 147.5t91 185t80.5 138.5l77 116q-33 -5 -64 -5q-56 0 -107 16t-97 16q-59 0 -124 -65q-20 -20 -22 -20 q-6 0 -6 6t22 28q45 45 98 67.5t88 22.5z" glyph-name="afii10057" horiz-adv-x="576" unicode=""/>
<glyph d="M727 -13q-88 0 -127.5 21t-39.5 68q0 61 141 432q20 51 45.5 122t42.5 120t17 52q0 6 -3 6q-7 0 -33 -32l-398 -470q-171 -202 -270 -284q-29 -22 -86 -28q-3 0 -22.5 -4t-31.5 -4t-12 8q0 10 16 14q38 13 64 36q151 132 315 297.5t401 442.5q16 18 26.5 30.5t21.5 22.5 t16 14.5t15.5 10.5t13.5 7.5t17 7t20 7.5q3 1 20.5 9.5t23.5 8.5q8 0 8 -10q0 -8 -4 -19.5t-11 -25.5t-9 -19q-119 -305 -164 -431q187 109 270 109q72 0 118 -35t46 -117q0 -120 -158 -254q-55 -46 -132.5 -79.5t-156.5 -33.5zM738 9q71 0 150 46.5t137.5 135.5t58.5 193 q0 41 -28.5 66.5t-77.5 25.5q-96 0 -255 -126q-66 -186 -66 -253q0 -49 20.5 -68.5t60.5 -19.5z" glyph-name="afii10058" horiz-adv-x="1172" unicode=""/>
<glyph d="M1128 476q-66 0 -123.5 -28t-96 -66.5t-85.5 -101.5q-62 -125 -93 -213q29 -25 41 -33.5t41.5 -16.5t75.5 -8q71 0 150 46.5t137.5 135.5t58.5 193q0 41 -28.5 66.5t-77.5 25.5zM877 -13q-57 1 -107.5 12.5t-75.5 11.5q-27 0 -60.5 -16.5t-40.5 -16.5t-7 7q0 3 3 8.5 t12.5 23t20.5 38.5q122 247 173 361q-27 13 -141 13q-231 0 -266 -20q0 -1 -2 -3.5t-2 -3.5q-190 -367 -202 -392q-4 -7 -16 -10.5t-34 -5.5t-31 -4q-16 -3 -25.5 -11.5t-13.5 -8.5t-4 6t71 130q91 158 163 285q-3 19 -8.5 36.5t-5.5 22.5q0 10 6 10q22 0 46 -1 q45 84 57 110q74 155 74 224q0 53 -50 53q-73 0 -137 -64q-20 -20 -22 -20q-6 0 -6 6t22 28q44 46 97 68t89 22q39 0 68 -25.5t29 -69.5q0 -73 -91 -247q-6 -12 -47 -87q43 -1 170 -1q169 1 237 7q88 167 184 379q4 9 11.5 12.5t28.5 6t27 3.5q18 3 34.5 9t25 9.5t11.5 3.5 q6 0 6 -6q0 -2 -2 -3.5t-7 -6t-11.5 -11.5t-17 -21.5t-22.5 -33.5q-29 -47 -59.5 -103t-50 -95.5t-53 -107.5t-50.5 -103q147 111 285 111q72 0 118 -35t46 -117q0 -120 -158 -254q-55 -46 -132.5 -79.5t-156.5 -33.5z" glyph-name="afii10059" horiz-adv-x="1322" unicode=""/>
<glyph d="M480 886q85 0 193.5 -11.5t198.5 -11.5q68 0 109 16.5t46 41.5q3 18 10 18q8 0 8 -9q0 -35 -69.5 -75t-151.5 -40q-69 0 -161 11q-29 -50 -122 -224.5t-126 -231.5q183 128 309 128q59 0 89.5 -29t30.5 -72q0 -39 -38 -104t-75.5 -127t-37.5 -95q0 -21 11.5 -36t31.5 -15 q40 0 94 27.5t96 60.5q62 48 136 140q4 6 8 6t4 -4q0 -2 -2 -6q-68 -92 -138 -146q-71 -57 -141.5 -87.5t-111.5 -30.5q-79 0 -79 73q0 35 23.5 84t51 90t51 86.5t23.5 73.5q0 36 -22 55.5t-52 19.5q-82 0 -162.5 -49t-132.5 -109q-47 -84 -125 -243q-14 -29 -26 -41 t-20 -14.5t-34 -5.5q-25 -3 -45 -10t-24 -7q-7 0 -7 5q0 3 3 6t12 13t19 25q65 92 133 216q239 438 305 588q-74 8 -129 8q-126 0 -190 -62q-20 -20 -22 -20q-6 0 -6 6t22 28q88 90 232 90z" glyph-name="afii10060" horiz-adv-x="894" unicode=""/>
<glyph d="M718 993l186 189q24 24 28 24t9.5 -11t5.5 -16q0 -12 -10 -19l-211 -180q-13 -13 -20 -13q-5 0 -5 5q0 4 17 21zM484 471q70 -42 118 -173q14 -39 34.5 -114t41.5 -133.5t49 -101.5q88 -133 207 -133q92 0 186 72q4 4 8 4q2 0 2 -2q0 -29 -72.5 -62.5t-145.5 -33.5 q-86 0 -146 24.5t-107 79.5q-36 43 -55 88.5t-39.5 122t-40.5 131.5q-57 156 -139 186q-43 -85 -123 -230t-113 -198q-5 -8 -12.5 -12.5t-36.5 -9t-80 -4.5q-14 0 -14 6q0 2 6.5 5t19.5 11t24 22q86 105 180 271q53 92 133 241q82 154 82 230q0 44 -17.5 69t-51.5 25 q-19 0 -54 -15.5t-74 -54.5q-20 -20 -22 -20q-6 0 -6 6t22 28q44 46 97 68t89 22q54 0 81 -31.5t27 -74.5q0 -13 -5.5 -33t-18 -49t-22.5 -52t-28.5 -59t-27 -52.5t-26.5 -50.5t-19 -35q179 109 320 202q33 22 142 94.5t179 117.5q24 15 37 15q10 0 33 -11q5 -2 11.5 -4 t9.5 -3.5t3 -3.5t-4 -3.5t-11 -3.5t-11 -3q-17 -7 -34 -16q-173 -93 -335 -194q-124 -77 -251 -164v-1z" glyph-name="afii10061" horiz-adv-x="860" unicode=""/>
<glyph d="M874 971q0 -5 -8 -5q-6 0 -11 14l-50 154q-10 27 -10 42q0 8 8 20t16 12q9 0 12 -15l39 -199q4 -20 4 -23zM561 778q0 -38 -43 -119.5t-94.5 -162.5t-94.5 -176.5t-43 -158.5q0 -66 31.5 -99.5t87.5 -33.5q97 0 206.5 93.5t209.5 238.5q49 108 117.5 247.5t73.5 149.5 q13 28 26.5 41.5t39.5 21.5q75 24 87 24q8 0 8 -8q0 -3 -5.5 -6t-15.5 -10t-18 -19q-44 -66 -121.5 -204.5t-118.5 -234.5q-53 -122 -69.5 -171.5t-16.5 -97.5q0 -28 13 -47.5t40 -19.5q65 0 174 82q62 48 136 140q4 6 8 6t4 -4q0 -2 -2 -6q-68 -92 -138 -146 q-143 -108 -236 -108q-94 0 -94 97q0 19 8 46t16.5 46t22 47t15.5 33h-1q-49 -57 -94 -101t-99 -86.5t-110.5 -65.5t-110.5 -23q-75 0 -120 39t-45 115q0 59 43.5 158.5t96 187.5t96 174t43.5 122q0 25 -13 46t-40 21q-63 0 -127 -64q-20 -20 -22 -20q-6 0 -6 6t22 28 q87 90 176 90q39 0 68 -29t29 -79z" glyph-name="uni040D" unicode=""/>
<glyph d="M834 1000q-44 0 -62 21.5t-18 52.5q0 17 10 44q3 7 20 16.5t26 9.5l2 -2l-2 -6q-3 -7 -5.5 -17.5t-2.5 -20.5q0 -33 22.5 -51.5t55.5 -18.5q84 0 144 88q13 12 30 20q15 6 18 6h2q0 -8 -34 -41.5t-93.5 -67t-112.5 -33.5zM608 -71q-267 -52 -422 -137 q-194 -108 -194 -294q0 -64 37.5 -109.5t104.5 -45.5q40 0 81 20.5t76 51.5t72.5 79.5t64.5 91t59 100.5t49.5 94.5t41.5 86t30 62.5zM286 161q0 -63 34 -96t85 -33q49 0 105 26t108.5 70t93.5 86t79 88q30 64 70.5 153t56.5 122.5t40.5 81.5t44 77.5t46.5 63.5 q17 21 41 39.5t43 18.5q12 0 12 -8q0 -36 -78 -171t-130 -215q-20 -30 -64.5 -117t-111.5 -224t-80 -163q197 42 344 148q11 8 22.5 17t19 15.5t18.5 18.5t15.5 16.5t16.5 18.5t14 16.5t15.5 19.5t14.5 18q4 6 8 6t4 -4q0 -2 -2 -6q-68 -92 -138 -146q-61 -48 -160 -92.5 t-201 -64.5q-12 -22 -40.5 -76t-50.5 -95.5t-58 -101t-68 -104t-75.5 -93t-85 -79.5t-91.5 -51.5t-101 -20.5q-92 0 -145.5 50t-53.5 123q0 111 86.5 206.5t196.5 140.5q136 55 433 108q135 260 140 272q-58 -55 -93 -85t-91 -71.5t-110 -61t-107 -19.5q-73 0 -118.5 42 t-45.5 114q0 59 44 158.5t96 186.5t96 173t44 122q0 25 -13 46t-40 21q-63 0 -127 -64q-20 -20 -22 -20q-6 0 -6 6t22 28q87 90 176 90q39 0 68 -29t29 -79q0 -38 -43 -119.5t-94.5 -162.5t-94.5 -176.5t-43 -158.5z" glyph-name="afii10062" unicode=""/>
<glyph d="M561 778q0 -38 -43 -119.5t-94.5 -162.5t-94.5 -176.5t-43 -158.5q0 -66 31.5 -99.5t87.5 -33.5q97 0 206.5 93.5t209.5 238.5q49 108 117.5 247.5t73.5 149.5q13 28 26.5 41.5t39.5 21.5q75 24 87 24q8 0 8 -8q0 -3 -5.5 -6t-15.5 -10t-18 -19q-44 -66 -121.5 -204.5 t-118.5 -234.5q-53 -122 -69.5 -171.5t-16.5 -97.5q0 -28 13 -47.5t40 -19.5q65 0 174 82q62 48 136 140q4 6 8 6t4 -4q0 -2 -2 -6q-68 -92 -138 -146q-143 -108 -236 -108q-94 0 -94 97q0 19 8 46t16.5 46t22 47t15.5 33h-1q-144 -165 -256 -229q-65 -41 -139.5 -134 t-74.5 -168q0 -36 13.5 -55t26.5 -19q3 0 3 -4q0 -1 -25 -10q-6 -2 -18.5 -7.5t-21.5 -8t-16 -2.5q-6 0 -16 8.5t-19.5 28t-9.5 43.5q0 77 68.5 155.5t158.5 140.5q-44 -15 -88 -15q-75 0 -120 39t-45 115q0 59 43.5 158.5t96 187.5t96 174t43.5 122q0 25 -13 46t-40 21 q-63 0 -127 -64q-20 -20 -22 -20q-6 0 -6 6t22 28q87 90 176 90q39 0 68 -29t29 -79z" glyph-name="afii10145" unicode=""/>
<glyph d="M1020 98q-24 -20 -53.5 -39.5t-83.5 -43t-97 -23.5q-58 0 -77 37.5t-19 124.5q0 58 12 142q-90 -10 -120 -10q-41 0 -107 11t-83 11q-14 0 -20 -2q-192 -219 -270 -284q-29 -22 -86 -28q-5 -1 -15.5 -3t-20 -3t-18.5 -1q-12 0 -12 7q0 6 16 10q30 10 64 40 q151 132 315 297.5t401 442.5q16 18 26.5 30.5t21.5 22.5t16 14.5t15.5 10.5t13.5 7.5t17 7t20 7.5q3 1 20.5 9.5t23.5 8.5q8 0 8 -10q0 -8 -4.5 -20.5t-10.5 -26t-7 -15.5q-29 -74 -63 -220.5t-51 -277.5q31 9 65 28t55 33.5t24 14.5q6 0 6 -6q0 -5 -22 -21t-59 -35.5 t-71 -31.5q-10 -87 -10 -136q0 -83 15.5 -116t45.5 -33t78.5 23t92.5 56q62 48 136 140q4 6 8 6t4 -4q0 -2 -2 -6q-68 -92 -138 -146zM404 342h34q40 0 117 -12t111 -12q24 0 40 2q7 58 20 128.5t26.5 130t25.5 110.5t20 81.5t8 31.5q0 6 -3 6q-7 0 -33 -32z" glyph-name="afii10017" horiz-adv-x="980" unicode=""/>
<glyph d="M204 69q36 -32 76 -46t107 -14q68 0 137 34t119 84t81.5 107.5t31.5 103.5q0 138 -116 138q-95 0 -171 -56t-152 -154q-21 -26 -40 -59.5t-41 -77t-32 -60.5zM178 11q-27 0 -68 -16.5t-48 -16.5t-7 7q0 3 6 9.5t19 23t26 37.5q34 57 109 193q247 451 311 598q-19 1 -29 1 q-47 0 -96.5 -17t-81.5 -48q-20 -20 -22 -20q-6 0 -6 6t22 28q88 90 236 90q50 0 142.5 -6.5t165.5 -6.5q107 0 115 42q3 18 10 18q8 0 8 -9q0 -33 -60.5 -66t-130.5 -33q-102 0 -183 12q-63 -106 -241 -442q147 111 293 111q79 0 127.5 -49.5t48.5 -131.5q0 -88 -74 -168 t-181 -125t-209 -45q-58 0 -118 12t-84 12z" glyph-name="afii10018" horiz-adv-x="840" unicode=""/>
<glyph d="M396 476q-113 -217 -219 -449q-6 -15 -16 -20.5t-40 -13.5q-24 -7 -40.5 -15t-23 -12t-11.5 -4q-7 0 -7 5q0 2 4 6.5t13 16.5t19 27q43 66 85.5 144t92 174.5t73.5 141.5q11 19 45.5 89.5t44.5 87.5q65 110 163 171t183 61q60 0 101 -40t41 -106q0 -157 -268 -259l1 -2 q23 1 32 1q68 0 119.5 -50.5t51.5 -113.5q0 -132 -124.5 -231.5t-292.5 -99.5q-85 0 -142 22t-57 45q0 5 15 25q3 4 8.5 13t9.5 15t6 6q3 0 3 -4q0 -32 48.5 -65t106.5 -33q127 0 229 103.5t102 227.5q0 59 -37.5 90t-82.5 31q-33 0 -54.5 -13t-37.5 -13q-5 0 -16.5 9 t-11.5 14q0 6 8 9t23.5 5t21.5 4q93 28 172.5 94.5t79.5 148.5q0 57 -34 91t-85 34q-49 0 -84 -22.5t-78 -89.5q-33 -52 -140 -256z" glyph-name="afii10019" horiz-adv-x="850" unicode=""/>
<glyph d="M545 886q85 0 211.5 -11.5t216.5 -11.5q43 0 79 14.5t40 37.5q3 18 10 18q8 0 8 -9q0 -34 -61 -72t-130 -38q-41 0 -92 4.5t-113 11.5t-93 10q-92 -155 -225 -406q-107 -201 -192 -373q-14 -29 -26 -41t-20 -14.5t-34 -5.5q-25 -3 -45 -10t-24 -7q-7 0 -7 5q0 3 3 6 t12 13t19 25q65 92 133 216q10 18 75 137.5t94 174.5t73.5 142.5t68.5 143.5q-19 1 -29 1q-49 0 -98 -17t-80 -48q-20 -20 -22 -20q-6 0 -6 6t22 28q88 90 232 90z" glyph-name="afii10020" horiz-adv-x="746" unicode=""/>
<glyph d="M430 122q40 -28 65.5 -43t67 -29.5t82.5 -14.5q119 0 225 74t165 184.5t59 221.5q0 149 -73 234.5t-203 105.5q-24 -127 -148 -382q-40 -82 -104.5 -179.5t-135.5 -171.5zM370 129q-52 54 -108 54q-39 0 -79 -37.5t-40 -86.5q0 -50 58 -53h3q67 0 166 123zM717 886 q200 0 319.5 -110t119.5 -308q0 -131 -65.5 -243t-182 -178.5t-256.5 -66.5q-49 0 -89 9.5t-70 28t-49 35t-42 41.5q-113 -106 -212 -106q-41 0 -72.5 27.5t-31.5 64.5q0 60 49.5 93t106.5 34q63 0 146 -56q86 114 190 319q124 247 157 391h-2q-130 0 -220.5 -67t-90.5 -129 q0 -6 1 -10.5t1.5 -7t1.5 -4.5t1 -3q0 -4 -5 -4q-2 0 -6 2.5t-10.5 6.5t-11.5 7q-30 17 -30 32q0 72 108 137t245 65z" glyph-name="afii10021" horiz-adv-x="1140" unicode=""/>
<glyph d="M430 -24q-100 0 -186 60t-86 154q0 68 29.5 126t73.5 93.5t96 64t96 43t73.5 24.5t29.5 13q0 8 -12 16q-61 42 -61 117q0 31 19 65t54.5 64.5t95 50t130.5 19.5q20 0 52 -4t69.5 -12.5t64 -25t26.5 -38.5q0 -9 -3.5 -16t-11 -19t-13.5 -25q-8 -16 -12 -16t-8 12 q-12 41 -61.5 80.5t-124.5 39.5q-55 0 -97.5 -13.5t-64 -34.5t-32 -41t-10.5 -37q0 -38 19.5 -77.5t52.5 -58.5q40 -19 40 -24q0 -17 -8 -27t-34 -13q-88 -10 -155 -36t-106.5 -58.5t-64.5 -74.5t-33.5 -81t-8.5 -82q0 -50 21.5 -88.5t56 -59t70.5 -31t72 -10.5 q137 0 215 72t78 163q0 7 -2 15.5t-2 10.5q0 6 4 6q7 0 28 -15t21 -26q0 -23 -16 -56t-49.5 -69.5t-78.5 -67.5t-110 -51.5t-136 -20.5z" glyph-name="afii10022" horiz-adv-x="834" unicode=""/>
<glyph d="M693 491q78 54 247.5 171.5t222.5 153.5q60 41 105 50q28 6 72 6q14 0 14 -6q0 -4 -3 -4q-1 0 -3.5 0.5t-4.5 0.5q-18 0 -79 -34q-192 -107 -592 -381q78 -241 124 -326q74 -144 156 -144q35 0 55 17q5 4 9 10t6 9.5t3 3.5q3 0 3 -4q0 -16 -16 -35q-33 -40 -90 -40 q-59 0 -109.5 32t-76.5 95q-48 117 -107 303q-7 -14 -49 -94.5t-68 -132.5q-28 -55 -63 -138q-4 -10 -15 -12.5t-32 -4t-40 -9.5q-10 -4 -17 -9t-11 -5q-10 0 -10 6q0 3 6.5 11t15.5 18.5t13 16.5q18 26 35.5 53.5t36.5 59.5t31.5 53.5t33 60t28 52.5t30.5 57.5t27 50.5 q-301 -219 -518 -390q-16 -13 -41 -13q-20 0 -50 -8q-9 -3 -16 -6l-10.5 -4.5t-6.5 -3t-6 -1.5q-5 0 -5 4t8 9q6 4 41 25.5t51 31.5q63 41 155.5 106t220.5 156t199 141q-10 30 -81 224q-29 80 -57 120t-61 40q-55 0 -107 -52q-20 -20 -22 -20q-6 0 -6 6t22 28q90 90 158 90 q45 0 75.5 -38.5t57.5 -121.5q5 -14 28 -84t36 -111q81 165 92 187q12 23 27.5 63t15.5 54q0 12 -6 16q-2 2 -6.5 2.5t-7 1t-2.5 2.5q0 7 11 7q44 0 82 1.5t47 1.5q8 0 8 -4q0 -1 -2 -2.5t-4.5 -3t-8 -7.5t-10.5 -15q-27 -42 -72 -125q-27 -48 -66.5 -123.5t-50.5 -95.5z " glyph-name="afii10024" horiz-adv-x="978" unicode=""/>
<glyph d="M496 742q-4 -12 -8 -12t-12 16q-4 10 -9 20t-6.5 14t-3 9.5t-1.5 12.5q0 35 72.5 59.5t145.5 24.5q55 0 93.5 -15.5t56.5 -41.5t25 -49.5t7 -49.5q0 -32 -13.5 -61t-29 -47t-42 -35.5t-39 -23.5t-32.5 -15q12 -11 26.5 -29t32 -63t17.5 -96q0 -83 -44 -159t-111.5 -126.5 t-146 -80.5t-148.5 -30q-96 0 -173 47t-77 125q0 6 24 30q14 14 28.5 31.5t22 27t9.5 9.5q6 0 6 -4l-9 -16q-9 -15 -9 -26q0 -62 73 -119t179 -57q77 0 137.5 31.5t94 80t50 98.5t16.5 96q0 57 -23 109t-65 73q-7 4 -17 5.5t-16.5 1.5t-11.5 2.5t-5 8.5q0 8 17 29t27 21 q9 0 26.5 -4t27.5 -4q48 0 88 39.5t40 106.5q0 62 -38 101t-110 39q-24 0 -44.5 -4.5t-34 -11t-24.5 -16t-17.5 -18.5t-11 -18.5t-6.5 -16.5t-3 -13z" glyph-name="afii10025" horiz-adv-x="800" unicode=""/>
<glyph d="M561 778q0 -38 -43 -119.5t-94.5 -162.5t-94.5 -176.5t-43 -158.5q0 -66 31.5 -99.5t87.5 -33.5q97 0 206.5 93.5t209.5 238.5q49 108 117.5 247.5t73.5 149.5q13 28 26.5 41.5t39.5 21.5q75 24 87 24q8 0 8 -8q0 -3 -5.5 -6t-15.5 -10t-18 -19q-44 -66 -121.5 -204.5 t-118.5 -234.5q-53 -122 -69.5 -171.5t-16.5 -97.5q0 -28 13 -47.5t40 -19.5q65 0 174 82q62 48 136 140q4 6 8 6t4 -4q0 -2 -2 -6q-68 -92 -138 -146q-143 -108 -236 -108q-94 0 -94 97q0 19 8 46t16.5 46t22 47t15.5 33h-1q-49 -57 -94 -101t-99 -86.5t-110.5 -65.5 t-110.5 -23q-75 0 -120 39t-45 115q0 59 43.5 158.5t96 187.5t96 174t43.5 122q0 25 -13 46t-40 21q-63 0 -127 -64q-20 -20 -22 -20q-6 0 -6 6t22 28q87 90 176 90q39 0 68 -29t29 -79z" glyph-name="afii10026" unicode=""/>
<glyph d="M834 1000q-44 0 -62 21.5t-18 52.5q0 17 10 44q3 7 20 16.5t26 9.5l2 -2l-2 -6q-3 -7 -5.5 -17.5t-2.5 -20.5q0 -33 22.5 -51.5t55.5 -18.5q84 0 144 88q13 12 30 20q15 6 18 6h2q0 -8 -34 -41.5t-93.5 -67t-112.5 -33.5zM561 778q0 -38 -43 -119.5t-94.5 -162.5 t-94.5 -176.5t-43 -158.5q0 -66 31.5 -99.5t87.5 -33.5q97 0 206.5 93.5t209.5 238.5q49 108 117.5 247.5t73.5 149.5q13 28 26.5 41.5t39.5 21.5q75 24 87 24q8 0 8 -8q0 -3 -5.5 -6t-15.5 -10t-18 -19q-44 -66 -121.5 -204.5t-118.5 -234.5q-53 -122 -69.5 -171.5 t-16.5 -97.5q0 -28 13 -47.5t40 -19.5q65 0 174 82q62 48 136 140q4 6 8 6t4 -4q0 -2 -2 -6q-68 -92 -138 -146q-143 -108 -236 -108q-94 0 -94 97q0 19 8 46t16.5 46t22 47t15.5 33h-1q-49 -57 -94 -101t-99 -86.5t-110.5 -65.5t-110.5 -23q-75 0 -120 39t-45 115 q0 59 43.5 158.5t96 187.5t96 174t43.5 122q0 25 -13 46t-40 21q-63 0 -127 -64q-20 -20 -22 -20q-6 0 -6 6t22 28q87 90 176 90q39 0 68 -29t29 -79z" glyph-name="afii10027" unicode=""/>
<glyph d="M484 471q70 -42 118 -173q14 -39 34.5 -114t41.5 -133.5t49 -101.5q88 -133 207 -133q92 0 186 72q4 4 8 4q2 0 2 -2q0 -29 -72.5 -62.5t-145.5 -33.5q-86 0 -146 24.5t-107 79.5q-36 43 -55 88.5t-39.5 122t-40.5 131.5q-57 156 -139 186q-43 -85 -123 -230t-113 -198 q-5 -8 -12.5 -12.5t-36.5 -9t-80 -4.5q-14 0 -14 6q0 2 6.5 5t19.5 11t24 22q86 105 180 271q53 92 133 241q82 154 82 230q0 44 -17.5 69t-51.5 25q-19 0 -54 -15.5t-74 -54.5q-20 -20 -22 -20q-6 0 -6 6t22 28q44 46 97 68t89 22q54 0 81 -31.5t27 -74.5q0 -13 -5.5 -33 t-18 -49t-22.5 -52t-28.5 -59t-27 -52.5t-26.5 -50.5t-19 -35q179 109 320 202q33 22 142 94.5t179 117.5q24 15 37 15q10 0 33 -11q5 -2 11.5 -4t9.5 -3.5t3 -3.5t-4 -3.5t-11 -3.5t-11 -3q-17 -7 -34 -16q-173 -93 -335 -194q-124 -77 -251 -164v-1z" glyph-name="afii10028" horiz-adv-x="860" unicode=""/>
<glyph d="M906 830q-125 -426 -125 -652q0 -83 15 -116t45 -33t78.5 23t92.5 56q62 48 136 140q4 6 8 6t4 -4q0 -2 -2 -6q-68 -92 -138 -146q-24 -20 -53.5 -39.5t-83.5 -43t-97 -23.5q-57 0 -78.5 45.5t-21.5 130.5q0 92 30 246.5t60 271.5l30 116q0 6 -3 6q-7 0 -33 -32 l-398 -470q-171 -202 -270 -284q-29 -22 -86 -28q-3 0 -22.5 -4t-31.5 -4t-12 8q0 10 16 14q38 13 64 36q151 132 315 297.5t401 442.5q16 18 26.5 30.5t21.5 22.5t16 14.5t15.5 10.5t13.5 7.5t17 7t20 7.5q3 1 20.5 9.5t23.5 8.5q8 0 8 -10q0 -11 -11 -36t-11 -26z" glyph-name="afii10029" horiz-adv-x="980" unicode=""/>
<glyph d="M1127 -8q-149 0 -149 130q0 32 10 74.5t20 71.5t28 75.5t22 58.5q-180 -233 -231 -278q-148 -132 -271 -132q-55 0 -83.5 41.5t-28.5 108.5q0 88 76 278q-167 -231 -268 -329.5t-172 -98.5q-35 0 -51.5 23t-16.5 55q0 18 4 22q16 12 35.5 30t31.5 29t13 11q6 0 6 -6 l-4 -4q-3 -4 -6.5 -11t-3.5 -15q0 -31 11.5 -45.5t43.5 -14.5q66 0 170.5 124t229.5 334l151 288q7 16 21 28q9 9 19.5 15.5t21.5 11.5l10 5q38 16 49 16q4 0 13 -6v-2v-2q0 -11 -12 -30l-107 -172q-38 -79 -58 -124t-49.5 -119.5t-43.5 -138t-14 -119.5q0 -57 19.5 -94 t61.5 -37q34 0 93 32t109 83q63 64 120 136t144 209q21 43 46.5 90t41 74t43.5 74t33 56q5 11 16 26t33 32.5t44 17.5q11 0 24.5 -7.5t14.5 -12.5q0 -5 -22.5 -34.5t-59.5 -84t-64 -107.5q-7 -14 -35 -69t-40 -80t-34 -76t-32.5 -85.5t-19.5 -78.5t-9 -82q0 -128 102 -128 q30 0 78.5 23t92.5 56q62 48 136 140q4 6 8 6t4 -4q0 -2 -2 -6q-68 -92 -138 -146q-132 -106 -225 -106z" glyph-name="afii10030" horiz-adv-x="1312" unicode=""/>
<glyph d="M386 409q0 -1 -1.5 -3.5t-2.5 -3.5q-190 -367 -202 -392q-4 -7 -15.5 -10.5t-33 -5.5t-30.5 -4q-16 -3 -25.5 -11.5t-13.5 -8.5t-4 6t71 130q91 158 163 285q-3 19 -8.5 36.5t-5.5 22.5q0 10 6 10q22 0 46 -1q45 84 57 110q74 155 74 224q0 53 -50 53q-73 0 -137 -64 q-20 -20 -22 -20q-6 0 -6 6t22 28q44 46 97 68t89 22q39 0 67 -25.5t28 -69.5q0 -73 -91 -247q-6 -12 -47 -87q43 -1 172 -1q171 1 239 7q29 55 209 379q4 6 11 10t12.5 5.5t19.5 3.5t22 3q18 3 34.5 9t25 9.5t11.5 3.5q6 0 6 -6q0 -2 -2 -3.5t-7 -6t-11.5 -11.5t-18 -21.5 t-23.5 -33.5q-139 -210 -211 -355q-44 -87 -68 -137t-47.5 -113.5t-23.5 -95.5q0 -37 20.5 -58t55.5 -21q42 0 105.5 22.5t114.5 61.5q62 48 136 140q4 6 8 6t4 -4q0 -2 -2 -6q-68 -92 -138 -146q-163 -122 -300 -122q-51 0 -78 30t-27 78q0 17 3.5 36t12.5 43t16.5 43 t23 50.5t24.5 49.5t28.5 55.5t28.5 54.5q-27 13 -143 13q-233 0 -268 -20z" glyph-name="afii10031" horiz-adv-x="1025" unicode=""/>
<glyph d="M1029 620q0 -196 -182 -403q-101 -114 -226 -176.5t-248 -62.5q-133 0 -202 71t-69 185q0 117 64 237t139 202q78 91 198.5 152t224.5 61q64 0 104.5 -35t40.5 -79q0 -5 -4.5 -9.5t-13.5 -12.5t-16 -16t-14 -20t-11 -19t-7 -7q-5 0 -5 7q0 25 -7 51q-15 54 -51 77t-77 23 q-77 0 -167 -58t-152 -146q-145 -199 -145 -380q0 -108 58 -175.5t168 -67.5q108 0 210.5 62.5t174.5 177.5q47 75 84 174t37 200q0 94 -23 158t-86 88q-8 3 -8 6q0 2 4 2q22 0 65 -21.5t67 -47.5q75 -80 75 -198z" glyph-name="afii10032" horiz-adv-x="960" unicode=""/>
<glyph d="M540 886q85 0 250 -11.5t255 -11.5q68 0 109 16.5t46 41.5q3 18 10 18q8 0 8 -9q0 -35 -70.5 -75.5t-152.5 -40.5h-34q-72 -119 -153.5 -285.5t-118.5 -260.5q-36 -92 -36 -162q0 -29 22.5 -54.5t63.5 -25.5t101.5 22t111.5 60q62 48 136 140q4 6 8 6t4 -4q0 -2 -2 -6 q-68 -92 -138 -146q-59 -45 -135 -79.5t-140 -34.5q-55 0 -90 24.5t-35 73.5q0 67 45 176q31 76 76.5 169t107.5 212t91 178q-52 2 -154.5 8t-132.5 8q-97 -220 -191 -399q-107 -201 -192 -373q-14 -29 -26 -41t-20 -14.5t-34 -5.5q-25 -3 -45 -10t-24 -7q-7 0 -7 5q0 3 3 6 t12 13t19 25q65 92 133 216q6 12 47.5 87.5t56.5 102.5t50.5 95t54.5 108t43 95t40 101q-6 1 -11 1q-72 0 -114.5 -12.5t-73.5 -43.5q-20 -20 -22 -20q-6 0 -6 6t22 28q90 90 232 90z" glyph-name="afii10033" horiz-adv-x="920" unicode=""/>
<glyph d="M90 34q71 116 152 278q114 228 144 311q25 71 25 110q0 6 -5 11.5t-5 7.5q0 4 5 5.5t33 5.5q20 3 37.5 8.5t27 9.5t10.5 4q14 0 14 -10q0 -7 -22 -65.5t-43 -102.5l2 -1q29 38 62.5 75t89 89t118.5 84t121 32q65 0 107.5 -47t42.5 -127q0 -99 -81 -193t-210 -151 t-263 -57q-71 0 -124 16q-27 -55 -53.5 -117t-54.5 -132t-30 -74q-4 -10 -17 -11.5t-36.5 -2.5t-42.5 -8q-10 -4 -17 -9t-11 -5q-10 0 -10 6q0 3 6.5 14t16 26.5t11.5 19.5zM351 374q78 -36 165 -36q102 0 199 53.5t155 134.5t58 161q0 63 -36 103t-92 40q-66 0 -136 -46.5 t-129.5 -121t-104.5 -146t-79 -142.5z" glyph-name="afii10034" horiz-adv-x="820" unicode=""/>
<glyph d="M944 744q-5 -8 -10 -8q-6 0 -6 8q0 34 -46 66t-98 32q-175 0 -300 -114q-221 -201 -221 -453q0 -102 52 -175q65 -91 185 -91q86 0 158.5 46.5t114.5 112.5q13 20 13 31q0 5 -1.5 8.5t-1.5 5.5q0 4 5 4q2 0 3.5 -1.5t7 -6.5t12.5 -10q5 -4 11 -7.5t9.5 -5.5t5.5 -4.5 t2 -5.5q0 -12 -17 -35q-54 -76 -153 -118.5t-209 -42.5q-72 0 -134.5 22t-99.5 68q-62 78 -62 185q0 138 80.5 265.5t215.5 226.5q189 139 388 139q29 0 54.5 -7t41.5 -17t27 -21.5t16 -20t5 -12.5q0 -10 -20.5 -31t-27.5 -33z" glyph-name="afii10035" horiz-adv-x="860" unicode=""/>
<glyph d="M480 886q85 0 430 -11.5t435 -11.5q68 0 109 16.5t46 41.5q3 18 10 18q8 0 8 -9q0 -35 -70.5 -75.5t-152.5 -40.5h-34q-124 -205 -273 -566q-41 -99 -41 -150q0 -28 16 -50t56 -22q35 0 88.5 21.5t104.5 60.5q62 48 136 140q4 6 8 6t4 -4q0 -2 -2 -6q-68 -92 -138 -146 q-150 -114 -255 -114q-51 0 -79.5 23t-28.5 64q0 53 47 167q20 49 44.5 103.5t58.5 125t53.5 110.5t64 129t54.5 110q-44 1 -262 8q-72 -167 -187 -416t-171 -361q-6 -12 -12 -20t-10 -13t-12.5 -8t-13 -4t-17.5 -3.5t-20 -3.5q-11 -2 -20.5 -5t-14.5 -4.5t-8 -1.5 q-7 0 -7 6q0 3 5 10t14.5 21.5t17.5 28.5q178 317 377 777q-182 6 -244 8q-98 -220 -192 -401q-107 -201 -192 -373q-14 -29 -26 -41t-20 -14.5t-34 -5.5q-25 -3 -45 -10t-24 -7q-7 0 -7 5q0 3 3 6t12 13t19 25q65 92 133 216q11 20 48.5 88t55.5 101t51 96.5t53.5 106.5 t44.5 97t40 100q-29 1 -72 1q-132 0 -188 -56q-20 -20 -22 -20q-6 0 -6 6t22 28q88 90 232 90z" glyph-name="afii10036" horiz-adv-x="1180" unicode=""/>
<glyph d="M608 -71q-267 -52 -422 -137q-194 -108 -194 -294q0 -64 37.5 -109.5t104.5 -45.5q40 0 81 20.5t76 51.5t72.5 79.5t64.5 91t59 100.5t49.5 94.5t41.5 86t30 62.5zM286 161q0 -63 34 -96t85 -33q49 0 105 26t108.5 70t93.5 86t79 88q30 64 70.5 153t56.5 122.5t40.5 81.5 t44 77.5t46.5 63.5q17 21 41 39.5t43 18.5q12 0 12 -8q0 -36 -78 -171t-130 -215q-20 -30 -64.5 -117t-111.5 -224t-80 -163q197 42 344 148q11 8 22.5 17t19 15.5t18.5 18.5t15.5 16.5t16.5 18.5t14 16.5t15.5 19.5t14.5 18q4 6 8 6t4 -4q0 -2 -2 -6q-68 -92 -138 -146 q-61 -48 -160 -92.5t-201 -64.5q-12 -22 -40.5 -76t-50.5 -95.5t-58 -101t-68 -104t-75.5 -93t-85 -79.5t-91.5 -51.5t-101 -20.5q-92 0 -145.5 50t-53.5 123q0 111 86.5 206.5t196.5 140.5q136 55 433 108q135 260 140 272q-58 -55 -93 -85t-91 -71.5t-110 -61t-107 -19.5 q-73 0 -118.5 42t-45.5 114q0 59 44 158.5t96 186.5t96 173t44 122q0 25 -13 46t-40 21q-63 0 -127 -64q-20 -20 -22 -20q-6 0 -6 6t22 28q87 90 176 90q39 0 68 -29t29 -79q0 -38 -43 -119.5t-94.5 -162.5t-94.5 -176.5t-43 -158.5z" glyph-name="afii10037" unicode=""/>
<glyph d="M319 65q-118 16 -178.5 87.5t-60.5 169.5q0 46 12 89.5t41 90.5t73.5 88t114.5 80.5t159 69.5q45 15 54 15q13 0 13 -8q0 -3 -8 -4.5t-27 -6t-37 -11.5q-66 -25 -134 -82q-84 -69 -127 -153.5t-43 -164.5q0 -75 42.5 -134t122.5 -83q19 44 49 101t73 133.5t64 115.5 q14 26 44 81t44.5 82.5t35.5 67.5t34.5 69.5t22.5 55.5q-40 8 -92 8q-88 0 -160 -47q-17 -10 -22 -10q-12 0 -12 9q0 26 108.5 51t172.5 25h17q8 30 8 51q0 30 -17 48t-40 18q-35 0 -75 -30q-12 -9 -18 -9q-1 0 -3.5 2t-2.5 4t15 14q32 25 69 39t61 14q44 0 71 -27.5 t27 -62.5q0 -26 -16 -71q113 -24 173.5 -103.5t60.5 -196.5q0 -136 -121 -261.5t-307 -184.5q-95 -31 -199 -34q-7 -25 -7 -47q0 -30 17 -48t39 -18q33 0 75 31q12 9 18 9q1 0 3.5 -2.5t2.5 -3.5q0 -2 -15 -14q-32 -25 -69 -39.5t-60 -14.5q-44 0 -71.5 27.5t-27.5 62.5 q0 23 13 62zM592 117q151 45 246.5 158.5t95.5 242.5q0 211 -159 276q-18 -40 -46.5 -92.5t-70.5 -127t-66 -118.5q-8 -16 -33.5 -62.5t-36.5 -67t-32 -60.5t-32.5 -64t-24.5 -54t-21 -53q8 -1 25 -1q74 0 155 23z" glyph-name="afii10038" horiz-adv-x="933" unicode=""/>
<glyph d="M1050 829q-196 -132 -465 -371q24 -267 56 -369q43 -144 127 -144q38 0 59 17q4 3 9 9t8 10t4 4q4 0 4 -5q0 -8 -12 -23.5t-39.5 -30t-61.5 -14.5q-138 0 -179 143q-17 59 -47 338q-271 -248 -410 -389q-13 -13 -38 -13q-30 0 -57 -8q-10 -3 -17 -7t-11 -6t-7 -2 q-8 0 -7 4v1l1 1q2 3 18 14t38.5 26t34.5 24q115 92 451 388q-13 125 -30 248q-11 81 -29 120.5t-51 39.5q-50 0 -102 -52q-20 -20 -22 -20q-6 0 -6 6t22 28q90 90 164 90q89 0 107 -160q4 -37 21 -235q199 178 370 325q47 41 90 50q26 6 71 6q6 0 11 -2t4 -5q0 -3 -3 -3h-2 q-2 1 -4 1q-19 0 -70 -34z" glyph-name="afii10039" horiz-adv-x="796" unicode=""/>
<glyph d="M561 778q0 -38 -43 -119.5t-94.5 -162.5t-94.5 -176.5t-43 -158.5q0 -66 31.5 -99.5t87.5 -33.5q97 0 206.5 93.5t209.5 238.5q49 108 117.5 247.5t73.5 149.5q13 28 26.5 41.5t39.5 21.5q75 24 87 24q8 0 8 -8q0 -3 -5.5 -6t-15.5 -10t-18 -19q-44 -66 -121.5 -204.5 t-118.5 -234.5q-53 -122 -69.5 -171.5t-16.5 -97.5q0 -28 13 -47.5t40 -19.5q65 0 174 82q62 48 136 140q4 6 8 6t4 -4q0 -2 -2 -6q-68 -92 -138 -146q-54 -42 -109 -70q-66 -42 -138.5 -134t-72.5 -166q0 -36 13.5 -55t26.5 -19q3 0 3 -4q0 -1 -25 -10q-6 -2 -18.5 -7.5 t-21.5 -8t-16 -2.5q-6 0 -16 8.5t-19.5 28t-9.5 43.5q0 41 22 85.5t59 84.5t74 71t77 59q-39 -12 -65 -12q-94 0 -94 97q0 19 8 46t16.5 46t22 47t15.5 33h-1q-49 -57 -94 -101t-99 -86.5t-110.5 -65.5t-110.5 -23q-75 0 -120 39t-45 115q0 59 43.5 158.5t96 187.5t96 174 t43.5 122q0 25 -13 46t-40 21q-63 0 -127 -64q-20 -20 -22 -20q-6 0 -6 6t22 28q87 90 176 90q39 0 68 -29t29 -79z" glyph-name="afii10040" unicode=""/>
<glyph d="M768 540q17 35 57 110.5t54 106.5q13 28 26.5 41.5t39.5 21.5q75 24 87 24q8 0 8 -8q0 -3 -5.5 -6t-15.5 -10t-18 -19q-177 -270 -250 -439q-53 -122 -69.5 -171.5t-16.5 -97.5q0 -27 18 -47t45 -20q31 0 82 22t102 60q62 48 136 140q4 6 8 6t4 -4q0 -2 -2 -6 q-68 -92 -138 -146q-57 -43 -126 -75.5t-120 -32.5q-48 0 -76 24t-28 73q0 11 3 26t10 34.5t14 36.5t18.5 43t19.5 43t22 46.5t21 43.5q10 21 32.5 62.5t30.5 59.5q-185 -176 -317 -176q-68 0 -101 28.5t-33 89.5q0 51 40 129.5t79.5 145.5t39.5 91q0 56 -48 56 q-63 0 -127 -64q-20 -20 -22 -20q-6 0 -6 6t22 28q87 90 176 90q41 0 69 -20.5t28 -66.5q0 -26 -24.5 -73t-54 -91.5t-54 -99.5t-24.5 -95q0 -48 20 -65t68 -17q121 0 296 182z" glyph-name="afii10041" horiz-adv-x="880" unicode=""/>
<glyph d="M363 362q-4 -8 -16 -30t-16.5 -31t-15 -29t-15 -29.5t-12.5 -27.5t-12 -28t-9.5 -25t-7.5 -25.5t-4 -22t-2 -21.5q0 -26 11 -45.5t33 -19.5q97 0 206.5 93.5t209.5 238.5q35 79 94.5 219.5t81.5 186.5q12 27 26.5 41t40.5 22q57 17 72 17q8 0 8 -8q0 -2 -2 -3.5t-8.5 -7 t-14.5 -17.5q-33 -51 -106.5 -196t-119.5 -252q-70 -161 -80 -201q-9 -34 -9 -67q0 -25 11 -44.5t32 -19.5q97 0 205.5 92.5t208.5 237.5q49 108 117.5 247.5t73.5 149.5q13 28 26.5 41.5t39.5 21.5q75 24 87 24q8 0 8 -8q0 -3 -5.5 -6t-15.5 -10t-18 -19 q-44 -66 -121.5 -204.5t-118.5 -234.5q-53 -122 -69.5 -171.5t-16.5 -97.5q0 -28 13 -47.5t40 -19.5q65 0 174 82q62 48 136 140q4 6 8 6t4 -4q0 -2 -2 -6q-68 -92 -138 -146q-143 -108 -236 -108q-94 0 -94 97q0 19 8 46t16.5 46t22 47t15.5 33h-1q-49 -57 -94 -101 t-99 -86.5t-110.5 -65.5t-110.5 -23q-49 0 -70 20t-21 69q0 15 5 35.5t14 44t16.5 40.5t18 40t12.5 27h-1q-49 -57 -94 -101t-99 -86.5t-110.5 -65.5t-110.5 -23q-48 0 -71 23t-23 72q0 15 3 32t12.5 40t15.5 38.5t22.5 47t22.5 43.5t27 50t26 47q57 104 85 159.5t55 127.5 t27 116q0 25 -13 46t-40 21q-63 0 -127 -64q-20 -20 -22 -20q-6 0 -6 6t22 28q87 90 176 90q40 0 69 -25t29 -75q0 -34 -8 -69.5t-31 -86t-36.5 -78t-52.5 -97.5t-51 -93z" glyph-name="afii10042" horiz-adv-x="1335" unicode=""/>
<glyph d="M363 362q-4 -8 -16 -30t-16.5 -31t-15 -29t-15 -29.5t-12.5 -27.5t-12 -28t-9.5 -25t-7.5 -25.5t-4 -22t-2 -21.5q0 -26 11 -45.5t33 -19.5q97 0 206.5 93.5t209.5 238.5q35 79 94.5 219.5t81.5 186.5q12 27 26.5 41t40.5 22q57 17 72 17q8 0 8 -8q0 -2 -2 -3.5t-8.5 -7 t-14.5 -17.5q-33 -51 -106.5 -196t-119.5 -252q-70 -161 -80 -201q-9 -34 -9 -67q0 -25 11 -44.5t32 -19.5q97 0 205.5 92.5t208.5 237.5q49 108 117.5 247.5t73.5 149.5q13 28 26.5 41.5t39.5 21.5q75 24 87 24q8 0 8 -8q0 -3 -5.5 -6t-15.5 -10t-18 -19 q-44 -66 -121.5 -204.5t-118.5 -234.5q-53 -122 -69.5 -171.5t-16.5 -97.5q0 -28 13 -47.5t40 -19.5q65 0 174 82q62 48 136 140q4 6 8 6t4 -4q0 -2 -2 -6q-68 -92 -138 -146q-54 -42 -109 -70q-66 -42 -138.5 -134t-72.5 -166q0 -36 13.5 -55t26.5 -19q3 0 3 -4 q0 -1 -25 -10q-6 -2 -18.5 -7.5t-21.5 -8t-16 -2.5q-6 0 -16 8.5t-19.5 28t-9.5 43.5q0 41 22 85.5t59 84.5t74 71t77 59q-39 -12 -65 -12q-94 0 -94 97q0 19 8 46t16.5 46t22 47t15.5 33h-1q-49 -57 -94 -101t-99 -86.5t-110.5 -65.5t-110.5 -23q-49 0 -70 20t-21 69 q0 15 5 35.5t14 44t16.5 40.5t18 40t12.5 27h-1q-49 -57 -94 -101t-99 -86.5t-110.5 -65.5t-110.5 -23q-48 0 -71 23t-23 72q0 15 3 32t12.5 40t15.5 38.5t22.5 47t22.5 43.5t27 50t26 47q57 104 85 159.5t55 127.5t27 116q0 25 -13 46t-40 21q-63 0 -127 -64 q-20 -20 -22 -20q-6 0 -6 6t22 28q87 90 176 90q40 0 69 -25t29 -75q0 -34 -8 -69.5t-31 -86t-36.5 -78t-52.5 -97.5t-51 -93z" glyph-name="afii10043" horiz-adv-x="1335" unicode=""/>
<glyph d="M640 891q8 0 8 -7q0 -2 -5.5 -5t-17 -13.5t-23.5 -30.5q-41 -69 -240 -447q65 45 144 81.5t145 36.5q72 0 118 -35t46 -117q0 -120 -158 -254q-55 -46 -132.5 -79.5t-156.5 -33.5q-57 0 -115 12t-83 12q-27 0 -68 -16.5t-48 -16.5t-7 7q0 3 6 9.5t19 23t26 37.5 q116 194 182 318q181 331 248 485q-141 0 -219.5 -32.5t-148.5 -125.5q-13 -17 -22 -32l-12 -20t-5 -5q-5 0 -5 6q0 10 39 65q59 82 107.5 127t95.5 45q25 0 89.5 -1.5t96.5 -1.5q31 0 57.5 4t38.5 4zM379 9q71 0 150 46.5t137.5 135.5t58.5 193q0 41 -28.5 66.5t-77.5 25.5 q-66 0 -156 -59t-144 -120l-123 -228q36 -32 76 -46t107 -14z" glyph-name="afii10044" horiz-adv-x="813" unicode=""/>
<glyph d="M1036 463q96 177 208 379q4 6 10 10t10.5 5.5t18.5 3.5l21 3q18 3 34.5 9t25 9.5t11.5 3.5q6 0 6 -6q0 -2 -2 -3.5t-7 -6t-11.5 -11.5t-18 -21.5t-23.5 -33.5q-139 -210 -211 -355q-44 -87 -68 -137t-47.5 -113.5t-23.5 -95.5q0 -37 20.5 -58t55.5 -21q41 0 104.5 23 t115.5 61q62 48 136 140q4 6 8 6t4 -4q0 -2 -2 -6q-68 -92 -138 -146q-163 -122 -300 -122q-51 0 -75.5 28.5t-24.5 77.5q0 17 5 38.5t16 50t21.5 53t28.5 61t30 59.5t32.5 62.5t29.5 56.5zM379 9q71 0 150 46.5t137.5 135.5t58.5 193q0 41 -28.5 66.5t-77.5 25.5 q-66 0 -156 -59t-144 -120l-123 -228q36 -32 76 -46t107 -14zM368 -13q-57 0 -115 12t-83 12q-27 0 -68 -16.5t-48 -16.5t-7 7q0 3 6 9.5t19 23t26 37.5q80 133 178 318q123 232 191 372q35 72 35 91q0 22 -17 25q-3 1 -7 1.5t-7.5 1l-7 1t-6 1t-4.5 1.5t-3 2t-1 3 q0 3 14.5 4t44 2.5t46.5 2.5q17 2 36 4.5t31.5 4t19.5 1.5t7 -7q0 -2 -5.5 -5t-17 -13.5t-23.5 -30.5q-41 -69 -240 -447q65 45 144 81.5t145 36.5q72 0 118 -35t46 -117q0 -120 -158 -254q-55 -46 -132.5 -79.5t-156.5 -33.5z" glyph-name="afii10045" horiz-adv-x="1233" unicode=""/>
<glyph d="M379 9q71 0 150 46.5t137.5 135.5t58.5 193q0 41 -28.5 66.5t-77.5 25.5q-66 0 -156 -59t-144 -120l-123 -228q36 -32 76 -46t107 -14zM368 -13q-57 0 -115 12t-83 12q-27 0 -68 -16.5t-48 -16.5t-7 7q0 3 6 9.5t19 23t26 37.5q80 133 178 318q123 232 191 372 q35 72 35 91q0 22 -17 25q-3 1 -7 1.5t-7.5 1l-7 1t-6 1t-4.5 1.5t-3 2t-1 3q0 3 14.5 4t44 2.5t46.5 2.5q17 2 36 4.5t31.5 4t19.5 1.5t7 -7q0 -2 -5.5 -5t-17 -13.5t-23.5 -30.5q-41 -69 -240 -447q65 45 144 81.5t145 36.5q72 0 118 -35t46 -117q0 -120 -158 -254 q-55 -46 -132.5 -79.5t-156.5 -33.5z" glyph-name="afii10046" horiz-adv-x="813" unicode=""/>
<glyph d="M303 -29q-90 0 -158.5 44t-68.5 121q0 6 24 30q14 14 28.5 31.5t22 27t9.5 9.5q6 0 6 -4l-9 -16q-9 -15 -9 -26q0 -31 10 -60t31.5 -56t61.5 -43.5t93 -16.5q133 0 272 121.5t211 285.5q-28 -22 -43 -33t-44.5 -23.5t-57.5 -12.5q-30 0 -111 42.5t-125 42.5 q-25 0 -42 -7.5t-23 -15t-16 -22.5q-3 -4 -6.5 -13.5t-7 -15.5t-9.5 -6t-6 7q0 8 13 29q26 39 66.5 66.5t77.5 27.5q46 0 127 -42.5t108 -42.5q26 0 48 9t33.5 17.5t31.5 26.5q35 94 35 174q0 221 -216 221q-67 0 -139.5 -42t-98.5 -83q-10 -14 -13 -14q-5 0 -5 5 q0 3 3.5 13t8 23.5t6.5 21.5q13 51 25 60q16 12 74 32t110 20q145 0 229 -80.5t84 -222.5q0 -125 -57 -240t-148.5 -195t-206.5 -127.5t-229 -47.5z" glyph-name="afii10047" horiz-adv-x="900" unicode=""/>
<glyph d="M601 428q-185 -3 -213 -19q0 -1 -2 -3.5t-2 -3.5q-190 -367 -202 -392q-4 -7 -16 -10.5t-34 -5.5t-31 -4q-16 -3 -25.5 -11.5t-13.5 -8.5t-4 6t71 130q91 158 163 285q-3 19 -8.5 36.5t-5.5 22.5q0 10 6 10q22 0 46 -1q45 84 57 110q74 155 74 224q0 53 -50 53 q-73 0 -137 -64q-20 -20 -22 -20q-6 0 -6 6t22 28q44 46 97 68t89 22q39 0 68 -25.5t29 -69.5q0 -73 -91 -247q-6 -12 -47 -87l200 -1q58 123 146 219q192 211 459 211q118 0 192.5 -72t74.5 -190q0 -196 -184 -405q-101 -114 -226 -176.5t-248 -62.5t-199 64t-76 180 q0 92 49 204zM883 19q108 0 210.5 62.5t174.5 177.5q45 71 79 164t34 185q0 113 -66 176t-161 63q-92 0 -185 -52t-167 -153q-148 -202 -148 -399q0 -109 64.5 -166.5t164.5 -57.5z" glyph-name="afii10048" horiz-adv-x="1416" unicode=""/>
<glyph d="M691 439q-43 -55 -115.5 -135.5t-116.5 -122.5q-212 -202 -349 -202q-34 0 -57 19t-23 46q0 20 22 56q33 57 39 57q4 0 4 -4q0 -1 -5.5 -13.5t-5.5 -27.5q0 -29 23.5 -47t53.5 -18q73 0 175 66t177 149q89 98 129 172q-71 0 -129.5 43.5t-58.5 119.5q0 63 35 119 t88.5 91.5t114.5 56.5t116 21q44 0 114 -4t98 -4q14 0 43 0.5t60 0.5q30 0 30 -9q0 -3 -3 -4.5l-9 -4.5t-12 -8q-3 -3 -33 -48q-135 -204 -210 -355q-138 -274 -138 -352q0 -79 70 -79q46 0 108 25t117 65q62 48 136 140q4 6 8 6t4 -4q0 -2 -2 -6q-68 -92 -138 -146 q-156 -117 -282 -117q-123 0 -123 99q0 39 33.5 121.5t60.5 135t78 149.5q-55 -33 -127 -47zM837 520q26 48 76.5 136.5t80.5 144.5q12 21 12 29q0 9 -21 13q-52 11 -205 11q-109 0 -177.5 -68t-68.5 -142q0 -80 58.5 -121t131.5 -41q15 0 27.5 1t21 2t17 4t13 5t11 6.5 t8.5 6t8 7t7 6.5z" glyph-name="afii10049" horiz-adv-x="1013" unicode=""/>
<glyph d="M652 98q-141 -110 -232 -110q-78 0 -78 82q-121 -75 -187 -75q-44 0 -66 30.5t-22 79.5q0 73 52 154.5t132.5 136.5t155.5 55q43 0 79.5 -24.5t49.5 -70.5q26 0 26 -22q0 -13 -2.5 -25t-9 -24.5t-11 -21t-15.5 -21.5t-15.5 -18t-18 -19t-16.5 -17q-6 -6 -22 -21t-24 -23 q-12 -31 -12 -66q0 -52 56 -52q63 0 172 82q62 48 136 140q4 6 8 6t4 -4q0 -2 -2 -6q-68 -92 -138 -146zM404 427q-63 0 -123.5 -52.5t-95.5 -127t-35 -140.5q0 -78 55 -78q62 0 139 61q27 96 76 162q60 85 100 100q-13 34 -45 54.5t-71 20.5zM435 166q101 101 101 138 q0 8 -8 8q-23 0 -93 -146z" glyph-name="afii10065" horiz-adv-x="612" unicode=""/>
<glyph d="M754 941q117 209 264 209q34 0 97 -19.5t104 -19.5q39 0 63 8.5t33 16.5t11 8q3 0 3 -5q0 -1 -5 -8t-17.5 -18.5t-29.5 -21.5t-44.5 -17.5t-58.5 -7.5q-48 0 -102.5 16.5t-88.5 16.5q-67 0 -113.5 -43.5t-80.5 -162.5q-6 -20 -23.5 -81.5t-24 -81.5t-22 -70t-26.5 -78 t-28 -73t-36.5 -87t-43.5 -89q-42 -84 -103.5 -160.5t-146.5 -133.5t-165 -57q-108 0 -108 102q0 61 34.5 126.5t86 116t113.5 83t114 32.5q23 0 41.5 -6.5t28.5 -15.5t17 -19.5t9 -17t2 -8.5q0 -1 -22 -16q-3 -2 -9 -6.5t-10.5 -8t-6.5 -3.5q-4 0 -4 10q0 8 -6.5 21 t-25.5 27.5t-46 14.5q-92 0 -165 -107t-73 -213q0 -76 76 -76q48 0 96.5 32t88.5 86t69 103t53 103q48 106 89.5 228t74 215.5t67.5 155.5z" glyph-name="afii10066" horiz-adv-x="602" unicode=""/>
<glyph d="M502 332q0 42 -27.5 60t-56.5 18q-35 0 -88.5 -29.5t-107.5 -85.5q-5 -11 -24 -47t-26 -51.5t-19 -42.5t-16.5 -47.5t-4.5 -38.5q0 -59 58 -59q83 0 157.5 56t114.5 130t40 137zM131 248q44 82 127.5 226.5t134 234t92.5 186t42 146.5q0 73 -53 73q-47 0 -100 -43 q-17 -14 -19 -14q-5 0 -5 5q0 3 19 19q41 33 80 51.5t61 18.5q39 0 64.5 -24.5t25.5 -66.5q0 -28 -14.5 -71.5t-44.5 -103.5t-52.5 -102t-63 -113.5t-51.5 -90.5l-133 -240q150 112 239 112q40 0 69 -28.5t29 -73.5q0 -58 -35.5 -122.5t-93 -118t-138.5 -89t-163 -35.5 q-96 0 -96 81q0 14 5.5 33t16 42t18.5 38t22 40t17 30z" glyph-name="afii10067" horiz-adv-x="600" unicode=""/>
<glyph d="M197 -8q-66 0 -111.5 29.5t-45.5 74.5q0 58 41 95t120 78q49 26 70.5 57t21.5 56q0 19 -12.5 32.5t-35.5 13.5q-35 0 -80 -30q-9 -6 -10 -6q-4 0 -4 4t6 8q69 52 132 52q29 0 53.5 -17t24.5 -47q0 -22 -7.5 -39.5t-26 -33.5t-33.5 -26.5t-45.5 -29t-46.5 -28.5 q-87 -57 -87 -117q0 -39 33 -67.5t91 -28.5q90 0 202 86q62 48 136 140q4 6 8 6t4 -4q0 -2 -2 -6q-68 -92 -138 -146q-65 -53 -123.5 -79.5t-134.5 -26.5z" glyph-name="afii10068" horiz-adv-x="415" unicode=""/>
<glyph d="M-341 -856q-84 0 -151 61.5t-67 156.5q0 62 25.5 119t64 101.5t98.5 87t114.5 72t127 59t122 46.5t111.5 37q48 14 51 14q9 0 9 -7q0 -3 -2 -5.5t-6.5 -5t-8 -3.5t-11 -3.5l-10.5 -3.5q-192 -62 -254 -87q-295 -121 -347 -306q-11 -41 -11 -86q0 -89 58.5 -148t145.5 -59 q95 0 176.5 79.5t164.5 222.5q302 526 400 690h-1q-69 -73 -156 -124.5t-160 -51.5q-42 0 -63.5 28.5t-21.5 75.5q0 71 52.5 156t131.5 144.5t147 59.5q102 0 162 -132l6 12q6 13 10 17.5t13 5.5t10 1t6.5 2t7.5 2q1 0 3.5 -2t2.5 -4q0 -6 -6 -12q-4 -4 -9 -13.5 t-12.5 -23.5t-12.5 -23q6 -12 6 -20t-6 -8q-1 0 -8 14l-423 -787q-31 -57 -81 -116.5t-112.5 -112.5t-138.5 -86.5t-147 -33.5zM542 320q-60 108 -152 108q-49 0 -107.5 -47.5t-100.5 -125.5t-42 -153q0 -24 16.5 -45t39.5 -21q101 0 278 177q25 25 68 107z" glyph-name="afii10069" horiz-adv-x="580" unicode=""/>
<glyph d="M180 252q198 48 198 144q0 11 -6.5 19.5t-19.5 8.5q-42 0 -88 -49t-84 -123zM193 -16q-57 0 -96 31t-39 88q0 53 25.5 106.5t65 95.5t85.5 76t89.5 52t74.5 18q21 0 36.5 -13.5t15.5 -36.5q0 -9 -8 -24.5t-28.5 -36.5t-50.5 -41t-80.5 -39t-111.5 -29q-32 -64 -32 -127 q0 -46 27 -70t70 -24q49 0 118 29t122 69q62 48 136 140q4 6 8 6t4 -4q0 -2 -2 -6q-68 -92 -138 -146q-140 -114 -291 -114z" glyph-name="afii10070" horiz-adv-x="444" unicode=""/>
<glyph d="M275 406q-46 0 -73 -18q-9 -6 -10 -6q-4 0 -4 4t6 8q75 56 120 56q35 0 55 -24t20 -57q0 -48 -14.5 -92t-54.5 -107q100 87 217 230q3 3 11 16.5t10 15.5q8 9 32.5 19.5t39.5 10.5q6 0 6 -4q0 -2 -3 -7t-9 -16t-11 -19q-37 -64 -64.5 -122t-54 -123t-43.5 -101 q16 14 81 84t138 142.5t124 109.5q86 62 118 62q18 0 30.5 -13.5t12.5 -28.5q0 -10 -3 -13t-25 -20q-19 -15 -26 -15q-3 0 -3 2q0 21 -10.5 32t-26.5 11q-41 0 -90 -63q-40 -51 -70 -121.5t-30 -120.5q0 -57 22.5 -80t65.5 -23q46 0 106.5 25.5t115.5 67.5q62 48 136 140 q4 6 8 6t4 -4q0 -2 -2 -6q-64 -88 -138 -146q-155 -123 -270 -123q-119 0 -119 116q0 84 60 176q-126 -118 -203 -218l-35 -49q-4 -4 -11 -7.5t-20 -8t-19 -6.5q-6 -3 -13.5 -6.5t-12 -5.5t-6.5 -2q-6 0 -6 6q0 4 190 384l-234 -239q-47 -46 -107.5 -94.5t-77.5 -48.5 q-5 0 -19 13q-2 2 -7.5 6.5t-9 7t-6 7t-2.5 8.5q0 6 18 13.5t45.5 17.5t41.5 18q46 26 108 109t62 157q0 25 -18.5 51t-42.5 26z" glyph-name="afii10072" horiz-adv-x="950" unicode=""/>
<glyph d="M294 -51q-32 -10 -118 -36.5t-122 -38.5t-105.5 -38t-110.5 -48t-92.5 -56.5t-92.5 -73.5q-145 -138 -145 -274q0 -48 28 -78t62 -30q76 0 154.5 33t146.5 88.5t131 125t113.5 146t88.5 147.5t62 133zM622 98q-30 -27 -108 -64.5t-152 -62.5q-16 -77 -69 -173.5 t-133.5 -191.5t-174 -175t-201 -129.5t-204.5 -49.5q-65 0 -103.5 30t-38.5 86q0 152 186 311q53 45 109 81.5t100.5 59t110.5 46t106.5 35.5t123 34.5t128.5 35.5q22 64 22 97q0 39 -12 66q-45 -18 -65 -18q-31 0 -31 15q0 12 32 24t51 12q15 0 25 -5q48 20 92 73t44 106 q0 31 -18 49.5t-42 18.5q-97 0 -222 -165q-4 -6 -8 -6t-4 4q0 2 2 6q92 120 153 162t122 42q44 0 69 -26.5t25 -68.5q0 -56 -57.5 -113t-141.5 -97q30 -45 30 -121q0 -13 -3 -37q70 21 142.5 56t106.5 63q71 59 136 140q4 6 8 6t4 -4q0 -2 -2 -6q-52 -71 -138 -146z" glyph-name="afii10073" horiz-adv-x="582" unicode=""/>
<glyph d="M690 98q-56 -47 -125.5 -78t-115.5 -31q-29 0 -46 16t-17 40q0 31 14 67q-1 -1 -12.5 -12t-16 -15.5t-18 -16t-21.5 -17.5t-22.5 -16.5t-25.5 -16.5t-26.5 -13.5t-29 -11.5t-29.5 -7t-31 -3q-38 0 -68 21.5t-30 67.5q0 41 39.5 108.5t79 130t39.5 89.5q0 32 -20 32 q-7 0 -14 -1.5t-12 -3.5t-13 -6.5t-11 -6.5l-12 -8l-12 -8q-9 -6 -10 -6q-4 0 -4 4t6 8q81 56 120 56q58 0 58 -56q0 -25 -38.5 -89t-77 -130t-38.5 -99q0 -60 64 -60q77 0 202 121q62 131 127 239q35 59 50 59q12 0 29.5 -9t17.5 -23q0 -13 -21 -41.5t-52.5 -69 t-47.5 -69.5q-2 -4 -11 -19.5t-12.5 -22t-11 -21t-11 -24.5t-7.5 -23t-6 -25.5t-2 -24.5q0 -21 12.5 -34.5t35.5 -13.5q32 0 83 24t93 59q62 48 136 140q4 6 8 6t4 -4q0 -2 -2 -6q-68 -92 -138 -146z" glyph-name="afii10074" horiz-adv-x="650" unicode=""/>
<glyph d="M457 580q-44 0 -62 21.5t-18 52.5q0 17 10 44q3 7 20 16.5t26 9.5l2 -2l-3 -6q-2 -7 -4.5 -17.5t-2.5 -20.5q0 -33 22.5 -51.5t55.5 -18.5q84 0 144 88q13 12 30 20q15 6 18 6h2q0 -8 -34 -41.5t-93.5 -67t-112.5 -33.5zM690 98q-56 -47 -125.5 -78t-115.5 -31 q-29 0 -46 16t-17 40q0 31 14 67q-1 -1 -12.5 -12t-16 -15.5t-18 -16t-21.5 -17.5t-22.5 -16.5t-25.5 -16.5t-26.5 -13.5t-29 -11.5t-29.5 -7t-31 -3q-38 0 -68 21.5t-30 67.5q0 41 39.5 108.5t79 130t39.5 89.5q0 32 -20 32q-7 0 -14 -1.5t-12 -3.5t-13 -6.5t-11 -6.5 l-12 -8l-12 -8q-9 -6 -10 -6q-4 0 -4 4t6 8q81 56 120 56q58 0 58 -56q0 -25 -38.5 -89t-77 -130t-38.5 -99q0 -60 64 -60q77 0 202 121q62 131 127 239q35 59 50 59q12 0 29.5 -9t17.5 -23q0 -13 -21 -41.5t-52.5 -69t-47.5 -69.5q-2 -4 -11 -19.5t-12.5 -22t-11 -21 t-11 -24.5t-7.5 -23t-6 -25.5t-2 -24.5q0 -21 12.5 -34.5t35.5 -13.5q32 0 83 24t93 59q62 48 136 140q4 6 8 6t4 -4q0 -2 -2 -6q-68 -92 -138 -146z" glyph-name="afii10075" horiz-adv-x="650" unicode=""/>
<glyph d="M306 401q0 -17 -15.5 -52t-33.5 -66.5t-38.5 -65.5t-23.5 -40h2l17 17q93 96 199.5 176t160.5 80q44 0 44 -21q0 -3 -1.5 -6t-5 -6.5t-6 -5.5t-9.5 -7t-10 -8q-5 -4 -10 -9.5t-8 -8t-6 -2.5q-4 0 -4 6q0 11 -33 11q-36 0 -76 -24t-115 -87q14 -17 21 -27.5t17.5 -34 t17.5 -55.5q23 -97 35 -116q16 -25 49 -25q27 0 79 27t89 57q62 48 136 140q4 6 8 6t4 -4q0 -2 -2 -6q-68 -92 -138 -146q-49 -41 -115.5 -77.5t-117.5 -36.5q-21 0 -36 8t-24.5 17.5t-17.5 33t-11.5 39t-10.5 51.5q-14 64 -46 94q-48 -44 -106 -118q-32 -54 -55 -101 q-2 -4 -11 -5.5t-27 -3t-20 -1.5q-9 -1 -19.5 -6t-12.5 -5q-4 0 -4 4q0 3 13.5 21t52 81.5t86.5 154.5q64 121 64 144q0 40 -24 40q-23 0 -74 -34q-9 -6 -10 -6q-4 0 -4 4t6 8q75 56 120 56q29 0 44.5 -16.5t15.5 -42.5z" glyph-name="afii10076" horiz-adv-x="610" unicode=""/>
<glyph d="M260 121q-66 -70 -117.5 -97.5t-80.5 -27.5q-66 0 -66 50q0 16 5 27.5t10 16.5t18 14t17 13q12 10 25 22t18 16.5t8 4.5t3 -3q0 -4 -8 -12q-36 -32 -36 -67q0 -20 12 -32t31 -12q26 0 72.5 32t97.5 86q98 104 154 185q9 13 25.5 44.5t28.5 42.5q7 7 46 22q6 2 13.5 6 t12.5 6.5t7 2.5q6 0 6 -6q0 -4 -10.5 -19t-28 -40.5t-28.5 -48.5q-30 -60 -46 -94t-31 -80t-15 -76q0 -31 12 -49.5t46 -18.5q81 0 183 79q62 48 136 140q4 6 8 6t4 -4q0 -2 -2 -6q-68 -92 -138 -146q-132 -103 -246 -103q-41 0 -64.5 23t-23.5 59q0 38 19 82t66 129 q-106 -128 -143 -167z" glyph-name="afii10077" horiz-adv-x="612" unicode=""/>
<glyph d="M699 97q0 -68 60 -68q81 0 183 79q62 48 136 140q4 6 8 6t4 -4q0 -2 -2 -6q-68 -92 -138 -146q-132 -103 -246 -103q-41 0 -65 23t-24 59q0 53 59 166q-28 -33 -105 -117q-116 -126 -192 -126q-61 0 -61 64q0 87 69 220q-4 -6 -29 -41.5t-48.5 -66t-47.5 -55.5 q-66 -70 -117.5 -97.5t-80.5 -27.5q-66 0 -66 50q0 16 5 27.5t10 16.5t18 14t17 13q12 10 25 22t18 16.5t8 4.5t3 -3q0 -4 -8 -12q-36 -32 -36 -67q0 -20 12 -32t31 -12q26 0 72.5 32t97.5 86q25 26 47.5 55.5t33 45t31 48t23.5 36.5q8 12 23.5 44.5t28.5 43.5q12 11 52 25 q6 2 12.5 6t8.5 4q4 0 4 -6q0 -4 -8 -18.5t-23 -40t-26 -48.5q-34 -69 -55 -142.5t-21 -122.5q0 -36 30 -36q48 0 130 88q92 97 151 188q8 12 21.5 36t24.5 41.5t20 26.5q10 10 42 22q27 11 43 11q6 0 6 -9q0 -4 -12.5 -17.5t-31.5 -37.5t-31 -48q-31 -60 -47 -94t-31.5 -80 t-15.5 -76z" glyph-name="afii10078" horiz-adv-x="910" unicode=""/>
<glyph d="M305 411q0 -19 -20.5 -64.5t-40.5 -81.5l-20 -36q38 -3 62 -3q86 0 169 37q59 95 98 148q17 24 66 32q6 1 22.5 5t22.5 4q5 0 5 -4q0 -2 -8 -7.5t-29.5 -27t-46.5 -54.5q-61 -82 -103 -163.5t-42 -127.5q0 -55 54 -55q59 0 183 95q62 48 136 140q4 6 8 6t4 -4q0 -2 -2 -6 q-68 -92 -138 -146q-71 -58 -127.5 -89.5t-115.5 -31.5q-81 0 -81 73q0 59 78 182q-79 -31 -233 -39q-26 -56 -109 -192q-2 -3 -5.5 -5.5t-10.5 -4t-11.5 -2.5t-14.5 -2t-15 -2q-10 -2 -21 -8t-13 -6q-6 0 -6 5q0 2 4.5 8t16 21.5t23.5 35.5q44 69 84 144q-2 16 -7 30.5 t-5 18.5q0 3 3 7t4 4q3 0 15.5 -2.5t19.5 -3.5q70 124 70 161q0 32 -20 32q-23 0 -74 -34q-9 -6 -10 -6q-4 0 -4 4t6 8q75 56 120 56q29 0 44 -13.5t15 -35.5z" glyph-name="afii10079" horiz-adv-x="645" unicode=""/>
<glyph d="M414 451q57 0 90.5 -36t33.5 -96q0 -66 -32.5 -129t-82.5 -107.5t-111.5 -71.5t-117.5 -27t-92 36.5t-36 92.5q0 82 55.5 162t136.5 128t156 48zM385 429q-53 0 -108 -48t-90.5 -119.5t-35.5 -137.5q0 -49 21 -81.5t53 -32.5q81 0 156.5 102.5t75.5 205.5q0 49 -19.5 80 t-52.5 31z" glyph-name="afii10080" horiz-adv-x="560" unicode=""/>
<glyph d="M305 411q0 -39 -32 -97q52 50 122.5 94t116.5 44q31 0 54 -22t23 -52q0 -43 -74.5 -164t-74.5 -156q0 -16 9 -27t23 -11q40 0 94 27.5t96 60.5q62 48 136 140q4 6 8 6t4 -4q0 -2 -2 -6q-68 -92 -138 -146q-71 -57 -141.5 -87.5t-111.5 -30.5q-26 0 -43 15.5t-17 41.5 q0 41 37 108t74 129.5t37 94.5q0 21 -12.5 33t-27.5 12q-76 0 -209 -144l-148 -262q-3 -5 -9.5 -7t-19.5 -2.5t-22 -2.5q-12 -3 -24 -7t-16 -4t-4 4q0 1 1.5 2.5l4.5 4.5t6 7q13 18 51 83q63 109 92 162q16 31 38 83t22 69q0 32 -20 32q-23 0 -74 -34q-9 -6 -10 -6 q-4 0 -4 4t6 8q75 56 120 56q29 0 44 -13.5t15 -35.5z" glyph-name="afii10081" horiz-adv-x="630" unicode=""/>
<glyph d="M643 98q-75 -60 -148 -95t-119 -35q-26 0 -45 15t-19 41q0 34 18 71t44 68t52.5 60.5t44.5 58t18 49.5q0 33 -16.5 45.5t-36.5 12.5q-43 0 -117.5 -63.5t-144.5 -149.5q-55 -97 -89 -160q-56 -105 -195.5 -376.5t-251.5 -471.5q-16 -29 -41 -51.5t-48 -34.5t-46.5 -19 t-36 -9t-17.5 -2q-9 0 -9 4q0 3 2 4.5t6 3t10 3.5t15 7t19 13q20 15 71 91t178.5 294.5t308.5 551.5q74 136 103 201.5t29 96.5q0 50 -20 65q-8 6 -8 7q0 2 2.5 4t7.5 5t8 5q7 6 13.5 11.5t9 8.5t7 4.5t10.5 1.5q15 0 24.5 -18t9.5 -52q0 -52 -32 -112q199 198 306 198 q21 0 39 -16t18 -54q0 -35 -30.5 -85t-67 -91.5t-67 -85t-30.5 -66.5q0 -44 44 -44q40 0 102.5 33t106.5 67q62 48 136 140q5 6 8 6q4 0 4 -4q0 -3 -2 -6q-68 -92 -138 -146z" glyph-name="afii10082" horiz-adv-x="603" unicode=""/>
<glyph d="M513 98q-80 -58 -147 -89t-145 -31q-66 0 -110.5 30.5t-44.5 100.5q0 61 38 125.5t92 111t112 76t99 29.5q24 0 38 -16t14 -42q0 -19 -6 -27.5t-32 -22.5q-20 -10 -28 -10q-4 0 -4 2q0 1 1 3.5t2 7.5t1 11q0 26 -15 40t-31 14q-40 0 -87.5 -50t-79.5 -121t-32 -128 q0 -108 109 -108q107 0 248 104q62 48 136 140q4 6 8 6t4 -4q0 -2 -2 -6q-68 -92 -138 -146z" glyph-name="afii10083" horiz-adv-x="473" unicode=""/>
<glyph d="M305 411q0 -38 -29 -92q1 1 31 28.5t49.5 43.5t48.5 33t49 17q17 0 27 -13t10 -34q0 -17 -5.5 -38.5t-10.5 -34.5l-5 -13l15.5 15.5t38 33.5t55.5 42.5t61.5 33.5t61.5 15q25 0 42 -14t17 -36q0 -26 -35 -80.5t-76.5 -113t-76.5 -149t-35 -179.5q0 -76 41 -134.5 t119 -58.5q77 0 169 66t143 141q4 6 8 6t4 -4q0 -2 -2 -6q-70 -95 -169.5 -163.5t-188.5 -68.5q-83 0 -137.5 59t-54.5 151q0 81 30 168t66 145.5t66 113t30 79.5q0 26 -24 26q-66 0 -190 -129q-1 -2 -7.5 -8.5l-8.5 -8.5t-8 -7.5t-9 -8t-8.5 -7t-10 -6t-10 -4t-11 -3.5 t-11.5 -1q-3 0 -3 3q0 6 8 11.5t10 11.5q41 90 41 122q0 28 -23 28q-26 0 -63.5 -32.5t-71.5 -78.5q-49 -64 -150 -269q-3 -7 -12.5 -8.5t-23.5 -1.5t-23 -3l-33 -12q-5 0 -5 5q0 1 1 2.5t3.5 4t4.5 5.5q44 64 144 247q60 107 60 152q0 32 -20 32q-23 0 -74 -34 q-9 -6 -10 -6q-4 0 -4 4t6 8q75 56 120 56q29 0 44 -13.5t15 -35.5z" glyph-name="afii10084" horiz-adv-x="750" unicode=""/>
<glyph d="M298 -85q-35 -12 -122 -39t-129 -42q-110 -39 -199.5 -92t-150.5 -127t-61 -151q0 -122 119 -122q100 0 205.5 81t193.5 238q80 140 144 254zM670 98q-103 -87 -298 -157l-171 -275q-101 -163 -231.5 -261.5t-257.5 -98.5q-75 0 -113 45t-38 100q0 46 18 89.5t45.5 77 t70 66t82 55.5t92 46.5t89.5 37.5t84 30q58 20 157 51t112 35l81 145q-116 -93 -235 -93q-30 0 -54.5 17.5t-24.5 47.5q0 40 24.5 90t53.5 90t53.5 85.5t24.5 76.5q0 26 -28 26q-33 0 -72 -26q-9 -6 -10 -6q-4 0 -4 4t6 8q64 44 110 44q32 0 51 -16t19 -48t-75.5 -151 t-75.5 -158q0 -51 50 -51q41 0 102 28t101 62l108 208q8 15 17.5 34l14 28t11 19t13.5 14t16 5q40 4 56 4q6 0 6 -6q0 -4 -15 -30t-39.5 -66.5t-35.5 -59.5q-108 -192 -173 -300q156 55 275 144q62 48 136 140q4 6 8 6t4 -4q0 -2 -2 -6q-68 -92 -138 -146z" glyph-name="afii10085" horiz-adv-x="630" unicode=""/>
<glyph d="M237 14q141 283 204 415q-67 0 -130 -48t-99.5 -118t-36.5 -136q0 -85 62 -113zM633 357q3 -10 3 -23q0 -144 -98.5 -237t-238.5 -110q-85 -172 -207 -372q-81 -133 -154 -222t-135.5 -132.5t-112 -60t-103.5 -16.5q-49 0 -87 28.5t-38 79.5q0 38 23 70q7 11 29.5 23.5 t32.5 12.5q4 0 4 -2t-5.5 -10t-11 -24t-5.5 -38q0 -48 34 -73t80 -25q107 0 217 134.5t264 429.5q11 22 101 201q-63 13 -93 53.5t-30 96.5q0 115 107 208t242 101q117 244 166 330q98 171 181 247.5t166 76.5q32 0 54 -20.5t29.5 -41t7.5 -35.5q0 -34 -9 -59t-31 -59 q-9 -15 -37 -27q-24 -9 -22 -1q22 33 29.5 56t7.5 58q0 37 -25 63t-57 26q-61 0 -113.5 -67t-130.5 -223q-61 -121 -161 -344q-135 -297 -197 -423q115 10 189.5 104.5t74.5 218.5q0 30 -5 50q-2 9 -8.5 18.5t-6.5 11.5q0 4 6 7t18 7t20 9q22 14 23 14q3 0 6 -3.5 t11.5 -14.5t18.5 -23q14 -16 42.5 -31t52.5 -15q65 0 128 44q9 6 10 6q4 0 4 -4t-6 -8q-91 -62 -174 -62q-47 0 -80 21z" glyph-name="afii10086" horiz-adv-x="753" unicode=""/>
<glyph d="M208 432q-23 0 -74 -34q-9 -6 -10 -6q-4 0 -4 4t6 8q75 56 120 56q79 0 79 -120q0 -11 -5 -86q31 25 92 73t98.5 79t58.5 54q1 1 2.5 3t2 4t2 3t2.5 1q3 0 3 -6q0 -1 -1.5 -8t-3 -16t-1.5 -15q-1 -6 -50 -40q-112 -75 -206 -156q-3 -63 -3 -64q0 -147 84 -147q37 0 94 29 t97 60q62 48 136 140q4 6 8 6t4 -4q0 -2 -2 -6q-68 -92 -138 -146q-70 -57 -146 -92.5t-109 -35.5q-97 0 -97 188v20q-182 -165 -272 -281q-14 -17 -17 -17q-4 0 -4 4q0 3 2.5 9t6 15t4.5 13q4 10 6 19.5t3 13.5t5 10.5t12 15.5q79 82 256 227q7 103 7 127q0 43 -12 70.5 t-36 27.5z" glyph-name="afii10087" horiz-adv-x="559" unicode=""/>
<glyph d="M523 4q-71 -63 -125 -141.5t-54 -137.5q0 -21 9.5 -35t24.5 -14q7 0 14 6t8 6q3 0 3 -3q0 -6 -22 -17t-38 -11q-24 0 -41.5 15.5t-17.5 48.5q0 34 21.5 73t61.5 80t67 65.5t68 57.5q-32 -8 -53 -8q-29 0 -46 16t-17 40q0 31 14 67q-1 -1 -12.5 -12t-16 -15.5t-18 -16 t-21.5 -17.5t-22.5 -16.5t-25.5 -16.5t-26.5 -13.5t-29 -11.5t-29.5 -7t-31 -3q-38 0 -68 21.5t-30 67.5q0 41 39.5 108.5t79 130t39.5 89.5q0 32 -20 32q-7 0 -14 -1.5t-12 -3.5t-13 -6.5t-11 -6.5l-12 -8l-12 -8q-9 -6 -10 -6q-4 0 -4 4t6 8q81 56 120 56q58 0 58 -56 q0 -25 -38.5 -89t-77 -130t-38.5 -99q0 -60 64 -60q77 0 202 121q62 131 127 239q35 59 50 59q12 0 29.5 -9t17.5 -23q0 -13 -21 -41.5t-52.5 -69t-47.5 -69.5q-2 -4 -11 -19.5t-12.5 -22t-11 -21t-11 -24.5t-7.5 -23t-6 -25.5t-2 -24.5q0 -21 12.5 -34.5t35.5 -13.5 q32 0 83 24t93 59q62 48 136 140q4 6 8 6t4 -4q0 -2 -2 -6q-68 -92 -138 -146q-76 -64 -167 -94z" glyph-name="afii10088" horiz-adv-x="650" unicode=""/>
<glyph d="M419 300l43 86q7 15 10.5 22t9.5 16t10.5 12.5t9.5 3.5q13 0 29.5 -6.5t16.5 -20.5q0 -16 -17.5 -42t-46.5 -63.5t-45 -68.5q-1 -2 -15 -27.5t-19 -36t-14.5 -31t-13 -36t-3.5 -29.5q0 -52 52 -52q31 0 84.5 23.5t94.5 57.5q62 48 136 140q4 6 8 6t4 -4q0 -2 -2 -6 q-68 -92 -138 -146q-57 -48 -123.5 -79.5t-110.5 -31.5q-34 0 -53.5 18.5t-19.5 55.5q0 10 3 23t6 23.5t11 26.5t12.5 25.5t15 27t14 24t15.5 25t13 20.5q-37 -28 -88 -53t-90 -25q-30 0 -46.5 16t-16.5 41q0 29 40 92t40 74q0 31 -27 31q-7 0 -14 -1.5t-12 -3.5t-13 -6.5 t-11 -6.5l-12 -8l-12 -8q-9 -6 -10 -6q-4 0 -4 4t6 8q81 56 120 56q26 0 40 -15t14 -37q0 -16 -36 -74t-36 -80q0 -41 36 -41q33 0 79.5 29t75.5 58z" glyph-name="afii10089" horiz-adv-x="573" unicode=""/>
<glyph d="M690 112q-139 -125 -251 -125q-68 0 -68 54q0 40 13 73q-146 -131 -244 -131q-28 0 -48 16t-20 50q0 41 39 114.5t78 141.5t39 95q0 32 -20 32q-7 0 -14 -1.5t-12 -3.5t-13 -6.5t-11 -6.5l-12 -8l-12 -8q-9 -6 -10 -6q-4 0 -4 4t6 8q81 56 120 56q58 0 58 -56 q0 -25 -38 -91.5t-76 -137t-38 -106.5q0 -25 10 -34.5t33 -9.5q49 0 111 46t90 79q107 236 132 262q32 34 68 34q9 0 9 -8q0 -15 -25 -60.5t-55.5 -94.5t-55.5 -108.5t-25 -98.5q0 -54 52 -54q54 0 117 47t93 83q58 129 113 234q24 46 33 52q3 2 7 2q13 0 28 -6.5t15 -20.5 q0 -21 -43.5 -81.5t-57.5 -92.5q-52 -116 -52 -162q0 -50 41 -50q30 0 80 23.5t92 57.5q62 48 136 140q4 6 8 6t4 -4q0 -2 -2 -6q-68 -92 -138 -146q-58 -48 -121.5 -79t-108.5 -31q-30 0 -47.5 13.5t-17.5 39.5q0 32 15 71z" glyph-name="afii10090" horiz-adv-x="930" unicode=""/>
<glyph d="M690 112q-139 -125 -251 -125q-68 0 -68 54q0 40 13 73q-146 -131 -244 -131q-28 0 -48 16t-20 50q0 41 39 114.5t78 141.5t39 95q0 32 -20 32q-7 0 -14 -1.5t-12 -3.5t-13 -6.5t-11 -6.5l-12 -8l-12 -8q-9 -6 -10 -6q-4 0 -4 4t6 8q81 56 120 56q58 0 58 -56 q0 -25 -38 -91.5t-76 -137t-38 -106.5q0 -25 10 -34.5t33 -9.5q49 0 111 46t90 79q107 236 132 262q32 34 68 34q9 0 9 -8q0 -15 -25 -60.5t-55.5 -94.5t-55.5 -108.5t-25 -98.5q0 -54 52 -54q54 0 117 47t93 83q58 129 113 234q24 46 33 52q3 2 7 2q13 0 28 -6.5t15 -20.5 q0 -21 -43.5 -81.5t-57.5 -92.5q-52 -116 -52 -162q0 -50 41 -50q30 0 80 23.5t92 57.5q62 48 136 140q4 6 8 6t4 -4q0 -2 -2 -6q-68 -92 -138 -146q-72 -62 -153 -93q-72 -63 -126.5 -141.5t-54.5 -138.5q0 -21 9.5 -35t24.5 -14q7 0 14 6t8 6q3 0 3 -3q0 -6 -22 -17 t-38 -11q-24 0 -41.5 15.5t-17.5 48.5q0 34 21.5 73t61.5 80t67 65.5t68 57.5q-30 -9 -54 -9q-30 0 -47.5 13.5t-17.5 39.5q0 32 15 71z" glyph-name="afii10091" horiz-adv-x="930" unicode=""/>
<glyph d="M704 398q-193 -130 -233 -133q4 -16 4 -41q0 -93 -85 -165.5t-191 -72.5q-49 0 -81 31t-32 85q0 47 48.5 110.5t103.5 105.5q49 39 49 57q0 3 -4 3q-14 0 -58 -8.5t-62 -8.5q-13 0 -28 9t-15 26q0 4 6 8q24 16 38 30q4 4 7 8t4.5 5.5t3.5 1.5q3 0 3 -3q0 -1 -0.5 -6.5 t-0.5 -8.5q0 -44 61 -44q39 0 72 19q5 3 22.5 28.5t22.5 25.5q6 0 16 -5.5t10 -10.5q0 -12 -18.5 -30.5t-52 -49t-55.5 -56.5q-90 -108 -90 -198q0 -42 26.5 -67.5t64.5 -25.5q68 0 109 53.5t41 121.5q0 46 -21 71q-48 16 -48 19q0 5 6 11.5t18 15t14 10.5l5.5 5.5l3.5 3.5 t2 2.5t2 2t1.5 0.5h2.5q4 0 10 -4t13 -10.5t9 -7.5q22 -15 43 -15q68 0 225 108q9 6 10 6q4 0 4 -4t-6 -8z" glyph-name="afii10092" horiz-adv-x="570" unicode=""/>
<glyph d="M684 440q13 0 28 -6.5t15 -20.5q0 -20 -48 -80t-63 -94q-54 -121 -54 -165q0 -23 14.5 -35t31.5 -12q35 0 88.5 23.5t95.5 57.5q62 48 136 140q4 6 8 6t4 -4q0 -2 -2 -6q-68 -92 -138 -146q-56 -47 -126.5 -79t-116.5 -32q-30 0 -48.5 15t-18.5 42q0 13 4 30.5t8.5 32 t14 37t15 33.5t17 34.5t14.5 29.5q-24 -12 -57 -12l-43 6q-16 -95 -101.5 -169.5t-176.5 -74.5q-55 1 -80 28.5t-25 83.5q0 97 144 301q7 11 20 13q29 5 57.5 14t39.5 9q7 0 7 -8q0 -1 -8.5 -5t-23.5 -15.5t-28 -28.5q-130 -176 -130 -278q0 -87 70 -87q66 0 119 69.5 t53 126.5q0 33 -14 49q-45 30 -45 36q0 5 3.5 8.5t12 7.5t12.5 6q9 5 18 11.5t13 9t7 2.5q2 0 4 -4t4 -10t4 -9q31 -45 57 -59q22 -12 46 -12q32 0 50 10q3 6 12 25t15.5 32.5t16.5 33.5t18.5 34t17.5 27.5t17 20.5t15 7z" glyph-name="afii10093" horiz-adv-x="760" unicode=""/>
<glyph d="M348 432q0 -1 -8.5 -5t-23.5 -15.5t-28 -28.5q-130 -176 -130 -278q0 -87 70 -87q66 0 119 69.5t53 126.5q0 33 -14 49q-4 1 -20.5 5t-28.5 7.5t-12 6.5q0 5 6 11.5t18 15t14 10.5l5.5 5.5l3.5 3.5t2 2.5t2 2t1.5 0.5h2.5q4 0 10 -4t13 -10.5t9 -7.5q22 -15 53 -15 q20 0 43.5 7.5t50 22.5t43 25.5t43.5 30.5t31 22q9 6 10 6q4 0 4 -4t-6 -8t-43.5 -30.5t-65.5 -46t-61 -37.5t-49 -19q0 -68 -42.5 -133.5t-108 -105.5t-130.5 -40q-104 0 -104 117q0 97 144 301q7 11 20 13q29 5 57.5 14t39.5 9q7 0 7 -8z" glyph-name="afii10094" horiz-adv-x="550" unicode=""/>
<glyph d="M351 229q29 0 49 14q4 23 4 44q0 57 -35 93t-78 36q-42 0 -69 -18q-9 -6 -10 -6q-4 0 -4 4t6 8q73 50 116 50q57 0 99.5 -40.5t42.5 -111.5q0 -76 -59.5 -150t-142 -117t-154.5 -43q-55 0 -87.5 17t-32.5 47q0 9 2.5 16t8.5 14t10.5 11t14.5 12t14 11q5 4 17 15t21 19 t10 8q6 0 6 -4q0 -7 -8 -12q-32 -26 -32 -66q0 -27 25 -42t59 -15q83 0 153.5 55t95.5 137q-28 -19 -66 -19q-11 0 -38 7.5t-45 7.5q-16 0 -28 -10q-1 -1 -2.5 -3t-3 -3.5l-3 -3t-3 -2.5t-3.5 -1t-2 4t5 14q10 18 26 29.5t32 11.5q19 0 48.5 -9t40.5 -9z" glyph-name="afii10095" horiz-adv-x="470" unicode=""/>
<glyph d="M714 324q0 48 -18.5 76.5t-50.5 28.5q-55 0 -113.5 -51.5t-96 -125t-37.5 -136.5q0 -47 20 -76.5t51 -29.5q55 0 113 51.5t95 125t37 137.5zM77 -19q-13 0 -35.5 9.5t-22.5 19.5q0 9 13.5 27t35.5 45.5t36 49.5q12 19 64 116q22 42 31 59t19 45t10 48q0 32 -20 32 q-23 0 -74 -34q-9 -6 -10 -6q-4 0 -4 4t6 8q75 56 120 56q47 0 47 -62q0 -44 -56 -152q12 -3 25 -3q32 0 67.5 10.5t49.5 21.5q55 76 137 126t158 50q52 0 85 -33.5t33 -85.5q0 -88 -55.5 -170t-137.5 -130t-161 -48q-59 0 -90.5 34.5t-31.5 81.5q0 66 41 140 q-44 -1 -88 -13t-60 -32q-59 -106 -65 -117q-2 -4 -12 -22.5t-15 -27.5t-13 -22t-15 -19t-12 -6z" glyph-name="afii10096" horiz-adv-x="786" unicode=""/>
<glyph d="M106 38q28 0 72.5 29.5t90.5 84.5q31 37 31 64q0 13 -11 21q-57 30 -57 72q0 71 67.5 111t137.5 40q23 0 56.5 -2t48.5 -2q8 0 26 0.5t35 0.5q16 0 16 -5q0 -2 -2 -3.5l-6 -4.5t-7 -5q-9 -9 -21 -25q-59 -81 -108 -181q-51 -104 -51 -156q0 -41 38 -41q40 0 96 24t85 48 q62 48 136 140q4 6 8 6t4 -4q0 -2 -2 -6q-68 -92 -138 -146q-37 -31 -115.5 -67t-132.5 -36q-62 0 -62 52q0 70 80 212q15 26 42 69.5t43 70.5t16 33q0 11 -46 11h-29q-58 0 -97.5 -36.5t-39.5 -81.5q0 -58 38 -69q4 -1 13.5 -2.5t15.5 -3t6 -4.5t-2 -5t-10 -7.5t-15 -10.5 q-11 -9 -96 -102q-118 -125 -192 -125q-31 0 -52.5 22t-21.5 50q0 9 13 18q16 12 32 25t23.5 20t8.5 7q6 0 6 -6q0 -2 -2 -4l-6 -6t-7 -9q-7 -11 -7 -26q0 -18 16 -33.5t35 -15.5z" glyph-name="afii10097" horiz-adv-x="611" unicode=""/>
<glyph d="M429 551q0 -5 -8 -5q-6 0 -11 14l-50 154q-10 27 -10 42q0 8 8 20t16 12q9 0 12 -15l39 -199q4 -20 4 -23zM180 252q198 48 198 144q0 11 -6.5 19.5t-19.5 8.5q-42 0 -88 -49t-84 -123zM193 -16q-57 0 -96 31t-39 88q0 53 25.5 106.5t65 95.5t85.5 76t89.5 52t74.5 18 q21 0 36.5 -13.5t15.5 -36.5q0 -9 -8 -24.5t-28.5 -36.5t-50.5 -41t-80.5 -39t-111.5 -29q-32 -64 -32 -127q0 -46 27 -70t70 -24q49 0 118 29t122 69q62 48 136 140q4 6 8 6t4 -4q0 -2 -2 -6q-68 -92 -138 -146q-140 -114 -291 -114z" glyph-name="uni0450" horiz-adv-x="444" unicode=""/>
<glyph d="M340 692q18 0 30 -11.5t12 -26.5q0 -24 -19 -42t-41 -18q-33 0 -33 44q0 19 15 36.5t36 17.5zM535 687q34 0 34 -37q0 -24 -16 -40.5t-38 -16.5q-33 0 -33 42q0 18 16.5 35t36.5 17zM180 252q198 48 198 144q0 11 -6.5 19.5t-19.5 8.5q-42 0 -88 -49t-84 -123zM193 -16 q-57 0 -96 31t-39 88q0 53 25.5 106.5t65 95.5t85.5 76t89.5 52t74.5 18q21 0 36.5 -13.5t15.5 -36.5q0 -9 -8 -24.5t-28.5 -36.5t-50.5 -41t-80.5 -39t-111.5 -29q-32 -64 -32 -127q0 -46 27 -70t70 -24q49 0 118 29t122 69q62 48 136 140q4 6 8 6t4 -4q0 -2 -2 -6 q-68 -92 -138 -146q-140 -114 -291 -114z" glyph-name="afii10071" horiz-adv-x="444" unicode=""/>
<glyph d="M628 352q0 -115 -75 -259t-185 -264.5t-243.5 -203t-241.5 -82.5q-37 0 -46.5 2.5t-17.5 17.5q-25 47 -25 91q0 11 3 11t4.5 -4t3.5 -11.5t5 -12.5q12 -21 43.5 -36.5t77.5 -15.5q98 0 211 78t200.5 190.5t146.5 242.5t59 229q0 81 -69 81q-49 0 -109 -42t-107 -100 q-61 -76 -142 -258q-3 -8 -16 -8q-23 0 -53 -7t-31 -7h-1q-3 0 -3 4q0 1 4 6.5t12 18t15 25.5q95 166 120 210q30 58 89 163t93 168q5 9 16.5 30t14.5 27q-20 -2 -49 -5t-48.5 -5t-22.5 -2q-13 0 -13 6q0 5 7.5 11t14.5 7q30 2 75 6t48 4q159 294 159 385q0 32 -18.5 57 t-44.5 25q-48 0 -115 -54q-17 -14 -19 -14q-5 0 -5 5q0 3 19 19q41 33 87 51.5t75 18.5q52 0 74 -33.5t22 -76.5q0 -66 -157 -349q-5 -10 -8.5 -16.5t-7.5 -13.5q197 12 230 12q12 0 12 -5q0 -3 -21 -13q-2 -1 -7 -4t-10.5 -5t-13.5 -2q-17 -1 -87 -2t-114 -3 q-12 -21 -34 -61q-35 -65 -85 -160.5t-73 -137.5q32 32 54 51.5t63 50t84.5 46.5t87.5 16t66 -25t22 -68z" glyph-name="afii10099" horiz-adv-x="649" unicode=""/>
<glyph d="M337 542l186 189q24 24 28 24t9.5 -11t5.5 -16q0 -12 -10 -19l-211 -180q-13 -13 -20 -13q-5 0 -5 5q0 4 17 21zM197 -8q-66 0 -111.5 29.5t-45.5 74.5q0 58 41 95t120 78q49 26 70.5 57t21.5 56q0 19 -12.5 32.5t-35.5 13.5q-35 0 -80 -30q-9 -6 -10 -6q-4 0 -4 4t6 8 q69 52 132 52q29 0 53.5 -17t24.5 -47q0 -22 -7.5 -39.5t-26 -33.5t-33.5 -26.5t-45.5 -29t-46.5 -28.5q-87 -57 -87 -117q0 -39 33 -67.5t91 -28.5q90 0 202 86q62 48 136 140q4 6 8 6t4 -4q0 -2 -2 -6q-68 -92 -138 -146q-65 -53 -123.5 -79.5t-134.5 -26.5z" glyph-name="afii10100" horiz-adv-x="415" unicode=""/>
<glyph d="M533 98q-165 -120 -310 -120q-66 0 -111.5 30.5t-45.5 100.5q0 61 38 125.5t92 111t112 76t99 29.5q25 0 44 -16.5t19 -41.5q0 -7 -0.5 -10l-1 -6t-3.5 -5t-5.5 -3.5t-10 -5.5t-13.5 -7t-17 -14.5t-14 -11.5q-4 0 -4 2l1 4q0 3 1 9t1 12q0 27 -15.5 40.5t-36.5 13.5 q-48 0 -100 -56.5t-82 -131.5q15 11 39.5 21t36.5 10q19 0 50.5 -13t42.5 -13q13 0 30 14q17 15 18 15q3 0 3 -3q0 -4 -12 -19q-36 -45 -68 -45q-19 0 -48.5 17t-46.5 17q-27 0 -54 -24q-16 -50 -16 -88q0 -52 31 -80t87 -28q57 0 129.5 30t132.5 74q62 48 136 140q4 6 8 6 t4 -4q0 -2 -2 -6q-68 -92 -138 -146z" glyph-name="afii10101" horiz-adv-x="493" unicode=""/>
<glyph d="M340 420q-33 0 -49 -18t-16 -47q0 -23 14 -47t31.5 -41.5t31.5 -45.5t14 -59q0 -71 -59.5 -124t-134.5 -53q-71 0 -107 34.5t-36 72.5q0 10 8 18q16 12 31.5 26.5t23 22.5t8.5 8q6 0 6 -6q0 -2 -2 -4.5t-5.5 -7.5t-6.5 -11q-7 -16 -7 -32q0 -37 28 -67t77 -30 q43 0 73 31.5t30 75.5q0 36 -11.5 64.5t-26 43.5t-26 38t-11.5 48q0 61 48 101t107 40q37 0 56 -20t19 -40q0 -7 -20 -30q-3 -3 -6.5 -9t-5.5 -9.5t-3 -3.5q-4 0 -4 4q0 1 0.5 4t0.5 6q-1 24 -22 45.5t-48 21.5z" glyph-name="afii10102" horiz-adv-x="430" unicode=""/>
<glyph d="M400 734q17 0 26 -13t9 -30q0 -24 -17.5 -42.5t-39.5 -18.5q-16 0 -26.5 13t-10.5 32t19 39t40 20zM305 411q0 -42 -76 -165t-76 -165q0 -55 75 -55q59 0 168 82q62 48 136 140q4 6 8 6t4 -4q0 -2 -2 -6q-68 -92 -138 -146q-51 -41 -114.5 -73.5t-119.5 -32.5 q-44 0 -70.5 19.5t-26.5 57.5q0 43 38.5 114t77.5 133t39 84q0 32 -20 32q-23 0 -74 -34q-9 -6 -10 -6q-4 0 -4 4t6 8q75 56 120 56q29 0 44 -13.5t15 -35.5z" glyph-name="afii10103" horiz-adv-x="364" unicode=""/>
<glyph d="M283 692q18 0 30 -11.5t12 -26.5q0 -24 -19 -42t-41 -18q-33 0 -33 44q0 19 15 36.5t36 17.5zM478 687q34 0 34 -37q0 -24 -16 -40.5t-38 -16.5q-33 0 -33 42q0 18 16.5 35t36.5 17zM305 411q0 -42 -71 -166t-71 -167q0 -52 75 -52q59 0 168 82q62 48 136 140q4 6 8 6 t4 -4q0 -2 -2 -6q-68 -92 -138 -146q-51 -41 -114.5 -73.5t-119.5 -32.5q-44 0 -70.5 19.5t-26.5 57.5q0 46 36.5 115.5t72.5 130t36 85.5q0 32 -20 32q-23 0 -74 -34q-9 -6 -10 -6q-4 0 -4 4t6 8q75 56 120 56q29 0 44 -13.5t15 -35.5z" glyph-name="afii10104" horiz-adv-x="374" unicode=""/>
<glyph d="M416 734q17 0 26.5 -12.5t9.5 -28.5q0 -25 -18 -44t-40 -19q-16 0 -26 13t-10 33q0 19 18.5 38.5t39.5 19.5zM7 -44q-173 -32 -251 -57q-66 -21 -124.5 -47.5t-117.5 -65t-101 -82.5t-68 -103t-26 -124q0 -75 46.5 -131.5t124.5 -56.5q45 0 90.5 25t84 67t67 82.5 t52.5 84.5zM388 98q-45 -39 -133.5 -75t-165.5 -54l-244 -414q-31 -53 -71.5 -102t-91.5 -94t-113.5 -72.5t-124.5 -27.5q-72 0 -130 57t-58 135q0 76 32.5 144t82 116.5t117.5 90t131 67t131 44.5q92 26 265 57q210 381 210 431q0 19 -23 19q-35 0 -68 -22q-9 -6 -10 -6 q-4 0 -4 4t6 8q63 42 172 42q24 0 24 -20q0 -24 -87.5 -190.5t-137.5 -251.5q32 8 73 21t103.5 41.5t106.5 61.5q62 48 136 140q4 6 8 6t4 -4q0 -2 -2 -6q-68 -92 -138 -146z" glyph-name="afii10105" horiz-adv-x="348" unicode=""/>
<glyph d="M496 347q-6 -13 -27.5 -52t-34 -65.5t-24.5 -65.5t-12 -71q0 -34 24 -54.5t59 -20.5q74 0 121.5 54t47.5 120q0 46 -21 71q-48 16 -48 19q0 5 6 11.5t18 15t14 10.5l5.5 5.5l3.5 3.5t2 2.5t2 2t1.5 0.5h2.5q4 0 10 -4t13 -10.5t9 -7.5q22 -15 43 -15q68 0 225 108 q9 6 10 6q4 0 4 -4t-6 -8q-193 -130 -233 -133q4 -16 4 -41q0 -93 -85 -165.5t-191 -72.5q-50 0 -82.5 26.5t-32.5 78.5q0 14 2 28t8 30t10 27t14.5 30t14.5 27t16.5 29t15.5 26q-92 -111 -145 -167q-66 -70 -117.5 -97.5t-80.5 -27.5q-66 0 -66 50q0 16 5 27.5t10 16.5 t18 14t17 13q12 10 25 22t18 16.5t8 4.5t3 -3q0 -4 -8 -12q-36 -32 -36 -67q0 -20 12 -32t31 -12q26 0 72.5 32t97.5 86q105 111 156 185q7 10 25.5 42.5t31.5 44.5q9 9 43 22q6 2 13 6t11 6.5t6 2.5q6 0 6 -6q0 -4 -10 -19l-27 -40.5t-28 -48.5z" glyph-name="afii10106" horiz-adv-x="810" unicode=""/>
<glyph d="M326 84q0 55 60 161q-67 -34 -180 -52q-6 -13 -44 -86t-48 -97q-3 -5 -11 -7.5t-23.5 -3.5t-17.5 -1q-8 -1 -20.5 -7t-15.5 -6q-6 0 -6 5q0 2 5 10.5t15 24.5t18 30q4 6 70 130q-2 16 -7 30.5t-5 18.5q0 3 3 7t4 4q3 0 15.5 -2.5t19.5 -3.5q72 128 72 157q0 28 -24 28 q-33 0 -72 -26q-9 -6 -10 -6q-4 0 -4 4t6 8q64 44 110 44q64 0 64 -63q0 -12 -19 -51t-38 -72l-19 -33q52 0 90.5 9t87.5 38l63 116q8 16 20 25.5t19.5 12.5t23.5 7q5 2 19 8.5t18 6.5q10 0 10 -7q0 -4 -7.5 -12.5t-25.5 -33.5t-37 -58q-40 -68 -57 -99.5t-32 -70t-15 -65.5 q0 -41 23 -64.5t58 -23.5q74 0 121.5 54t47.5 120q0 46 -21 71q-48 16 -48 19q0 5 6 11.5t18 15t14 10.5l5.5 5.5l3.5 3.5t2 2.5t2 2t1.5 0.5h2.5q4 0 10 -4t13 -10.5t9 -7.5q22 -15 43 -15q68 0 225 108q9 6 10 6q4 0 4 -4t-6 -8q-193 -130 -233 -133q4 -16 4 -41 q0 -93 -85 -165.5t-191 -72.5q-114 0 -114 98z" glyph-name="afii10107" horiz-adv-x="811" unicode=""/>
<glyph d="M168 248q31 60 90.5 165.5t91.5 165.5q5 9 16.5 30t14.5 27q-20 -2 -49 -5t-48.5 -5t-22.5 -2q-13 0 -13 6q0 5 7.5 11t14.5 7q30 2 75 6t48 4q159 294 159 385q0 32 -18.5 57t-44.5 25q-48 0 -115 -54q-17 -14 -19 -14q-5 0 -5 5q0 3 19 19q41 33 87 51.5t75 18.5 q52 0 74 -33.5t22 -76.5q0 -66 -157 -349q-5 -10 -8.5 -16.5t-7.5 -13.5q197 12 230 12q12 0 12 -5q0 -3 -21 -13q-2 -1 -7 -4t-10.5 -5t-13.5 -2q-17 -1 -87 -2t-114 -3q-12 -21 -34 -61q-64 -119 -158 -298q92 81 143 112q85 52 159 52q38 0 58.5 -24.5t20.5 -57.5 q0 -25 -21.5 -66t-52 -89.5t-61.5 -104t-52.5 -125t-21.5 -136.5q0 -101 55 -163t169 -62q53 0 106.5 28t93.5 88q4 6 8 6t4 -4q0 -2 -2 -6q-46 -70 -111 -103.5t-131 -33.5q-104 0 -182 77t-78 195q0 74 30 157.5t66.5 142t66.5 114.5t30 83q0 20 -14.5 32.5t-41.5 12.5 q-48 0 -113.5 -44t-115.5 -98q-52 -56 -142 -258q-3 -8 -16 -8q-23 0 -53 -7t-31 -7q-4 0 -4 4q0 1 4 6.5t12 18t15 25.5q95 166 120 210z" glyph-name="afii10108" horiz-adv-x="649" unicode=""/>
<glyph d="M413 573l186 189q24 24 28 24t9.5 -11t5.5 -16q0 -12 -10 -19l-211 -180q-13 -13 -20 -13q-5 0 -5 5q0 4 17 21zM306 401q0 -17 -15.5 -52t-33.5 -66.5t-38.5 -65.5t-23.5 -40h2l17 17q93 96 199.5 176t160.5 80q44 0 44 -21q0 -3 -1.5 -6t-5 -6.5t-6 -5.5t-9.5 -7 t-10 -8q-5 -4 -10 -9.5t-8 -8t-6 -2.5q-4 0 -4 6q0 11 -33 11q-36 0 -76 -24t-115 -87q14 -17 21 -27.5t17.5 -34t17.5 -55.5q23 -97 35 -116q16 -25 49 -25q27 0 79 27t89 57q62 48 136 140q4 6 8 6t4 -4q0 -2 -2 -6q-68 -92 -138 -146q-49 -41 -115.5 -77.5t-117.5 -36.5 q-21 0 -36 8t-24.5 17.5t-17.5 33t-11.5 39t-10.5 51.5q-14 64 -46 94q-48 -44 -106 -118q-32 -54 -55 -101q-2 -4 -11 -5.5t-27 -3t-20 -1.5q-9 -1 -19.5 -6t-12.5 -5q-4 0 -4 4q0 3 13.5 21t52 81.5t86.5 154.5q64 121 64 144q0 40 -24 40q-23 0 -74 -34q-9 -6 -10 -6 q-4 0 -4 4t6 8q75 56 120 56q29 0 44.5 -16.5t15.5 -42.5z" glyph-name="afii10109" horiz-adv-x="610" unicode=""/>
<glyph d="M497 551q0 -5 -8 -5q-6 0 -11 14l-50 154q-10 27 -10 42q0 8 8 20t16 12q9 0 12 -15l39 -199q4 -20 4 -23zM690 98q-56 -47 -125.5 -78t-115.5 -31q-29 0 -46 16t-17 40q0 31 14 67q-1 -1 -12.5 -12t-16 -15.5t-18 -16t-21.5 -17.5t-22.5 -16.5t-25.5 -16.5t-26.5 -13.5 t-29 -11.5t-29.5 -7t-31 -3q-38 0 -68 21.5t-30 67.5q0 41 39.5 108.5t79 130t39.5 89.5q0 32 -20 32q-7 0 -14 -1.5t-12 -3.5t-13 -6.5t-11 -6.5l-12 -8l-12 -8q-9 -6 -10 -6q-4 0 -4 4t6 8q81 56 120 56q58 0 58 -56q0 -25 -38.5 -89t-77 -130t-38.5 -99q0 -60 64 -60 q77 0 202 121q62 131 127 239q35 59 50 59q12 0 29.5 -9t17.5 -23q0 -13 -21 -41.5t-52.5 -69t-47.5 -69.5q-2 -4 -11 -19.5t-12.5 -22t-11 -21t-11 -24.5t-7.5 -23t-6 -25.5t-2 -24.5q0 -21 12.5 -34.5t35.5 -13.5q32 0 83 24t93 59q62 48 136 140q4 6 8 6t4 -4q0 -2 -2 -6 q-68 -92 -138 -146z" glyph-name="uni045D" horiz-adv-x="650" unicode=""/>
<glyph d="M469 580q-44 0 -62 21.5t-18 52.5q0 17 10 44q3 7 20 16.5t26 9.5l2 -2l-3 -6q-2 -7 -4.5 -17.5t-2.5 -20.5q0 -33 22.5 -51.5t55.5 -18.5q84 0 144 88q13 12 30 20q15 6 18 6h2q0 -8 -34 -41.5t-93.5 -67t-112.5 -33.5zM298 -85q-35 -12 -122 -39t-129 -42 q-110 -39 -199.5 -92t-150.5 -127t-61 -151q0 -122 119 -122q100 0 205.5 81t193.5 238q80 140 144 254zM670 98q-103 -87 -298 -157l-171 -275q-101 -163 -231.5 -261.5t-257.5 -98.5q-75 0 -113 45t-38 100q0 46 18 89.5t45.5 77t70 66t82 55.5t92 46.5t89.5 37.5t84 30 q58 20 157 51t112 35l81 145q-116 -93 -235 -93q-30 0 -54.5 17.5t-24.5 47.5q0 40 24.5 90t53.5 90t53.5 85.5t24.5 76.5q0 26 -28 26q-33 0 -72 -26q-9 -6 -10 -6q-4 0 -4 4t6 8q64 44 110 44q32 0 51 -16t19 -48t-75.5 -151t-75.5 -158q0 -51 50 -51q41 0 102 28t101 62 l108 208q8 15 17.5 34l14 28t11 19t13.5 14t16 5q40 4 56 4q6 0 6 -6q0 -4 -15 -30t-39.5 -66.5t-35.5 -59.5q-108 -192 -173 -300q156 55 275 144q62 48 136 140q4 6 8 6t4 -4q0 -2 -2 -6q-68 -92 -138 -146z" glyph-name="afii10110" horiz-adv-x="630" unicode=""/>
<glyph d="M690 98q-56 -47 -125.5 -78t-115.5 -31q-29 0 -46 16t-17 40q0 31 14 67q-82 -79 -142 -107q-71 -63 -125.5 -142t-54.5 -138q0 -21 9.5 -35t24.5 -14q7 0 14 6t8 6q3 0 3 -3q0 -6 -22 -17t-38 -11q-24 0 -41.5 15.5t-17.5 48.5q0 27 16 59.5t36.5 59t54.5 59.5t55 51 t53 44q-33 -11 -65 -11q-38 0 -68 21.5t-30 67.5q0 41 39.5 108.5t79 130t39.5 89.5q0 32 -20 32q-7 0 -14 -1.5t-12 -3.5t-13 -6.5t-11 -6.5l-12 -8l-12 -8q-9 -6 -10 -6q-4 0 -4 4t6 8q81 56 120 56q58 0 58 -56q0 -25 -38.5 -89t-77 -130t-38.5 -99q0 -60 64 -60 q77 0 202 121q62 131 127 239q35 59 50 59q12 0 29.5 -9t17.5 -23q0 -13 -21 -41.5t-52.5 -69t-47.5 -69.5q-2 -4 -11 -19.5t-12.5 -22t-11 -21t-11 -24.5t-7.5 -23t-6 -25.5t-2 -24.5q0 -21 12.5 -34.5t35.5 -13.5q32 0 83 24t93 59q62 48 136 140q4 6 8 6t4 -4q0 -2 -2 -6 q-68 -92 -138 -146z" glyph-name="afii10193" horiz-adv-x="650" unicode=""/>
<glyph d="M557 745q190 -11 233 -11q107 0 115 42q3 18 10 18q8 0 8 -9q0 -33 -60.5 -66t-130.5 -33q-56 0 -198 16q-33 -62 -91.5 -176t-67.5 -131q147 111 293 111q79 0 127.5 -49.5t48.5 -131.5q0 -88 -74 -168t-181 -125t-209 -45q-58 0 -118 12t-84 12q-27 0 -68 -16.5 t-48 -16.5t-7 7q0 3 6 9.5t19 23t26 37.5q34 57 109 193q170 312 244 460h-29q-47 0 -96.5 -17t-81.5 -48q-20 -20 -22 -20q-6 0 -6 6t22 28q87 89 232 90q10 21 32 65q4 9 12.5 15.5t15.5 9t17.5 5.5t12.5 4q19 7 37 15t25.5 11t11.5 3q9 0 9 -8q0 -2 -7 -4.5t-20 -12.5 t-24 -29q-22 -37 -43 -76zM204 69q36 -32 76 -46t107 -14q68 0 137 34t119 84t81.5 107.5t31.5 103.5q0 138 -116 138q-95 0 -171 -56t-152 -154q-21 -26 -40 -59.5t-41 -77t-32 -60.5z" glyph-name="afii10146" horiz-adv-x="840" unicode=""/>
<glyph d="M391 78q0 46 28.5 102t57 106t28.5 82q0 20 -12.5 32.5t-27.5 12.5q-76 0 -209 -144l-148 -262q-3 -5 -9.5 -7t-19.5 -2.5t-22 -2.5q-12 -3 -24 -7t-16 -4t-4 4q0 1 1.5 2.5l4.5 4.5t6 7q13 18 51 83q63 109 92 162q16 31 38 83t22 69q0 32 -20 32q-23 0 -74 -34 q-9 -6 -10 -6q-4 0 -4 4t6 8q75 56 120 56q29 0 44 -13.5t15 -35.5q0 -39 -32 -97q52 50 122.5 94t116.5 44q31 0 54 -22t23 -52q0 -39 -60.5 -137.5t-60.5 -139.5t22.5 -61.5t58.5 -20.5q74 0 121.5 54t47.5 120q0 46 -21 71q-48 16 -48 19q0 5 6 11.5t18 15t14 10.5 l5.5 5.5l3.5 3.5t2 2.5t2 2t1.5 0.5h2.5q4 0 10 -4t13 -10.5t9 -7.5q22 -15 43 -15q68 0 225 108q9 6 10 6q4 0 4 -4t-6 -8q-193 -130 -233 -133q4 -16 4 -41q0 -93 -85 -165.5t-191 -72.5q-52 0 -84 23t-32 69z" glyph-name="afii10194" horiz-adv-x="878" unicode=""/>
<glyph d="M623 764q13 -66 36.5 -185.5t25.5 -130.5q0 -3 4 -3q6 0 77 67q162 152 274 264q53 53 53 59t-7 6q-396 -4 -442 -9q-29 -3 -29 -11q0 -15 8 -57zM1196 869q9 0 9 -14q0 -2 -6.5 -3.5t-22 -8.5t-32.5 -21q-27 -22 -65.5 -56t-69.5 -62.5t-100.5 -92t-114.5 -105.5 q-67 -61 -94 -94q54 -8 84 -41t35.5 -75.5t9 -91t5 -88.5t23 -66.5t63.5 -26.5q81 0 192 85q62 48 136 140q4 6 8 6t4 -4q0 -2 -2 -6q-61 -83 -138 -146q-149 -119 -259 -119q-56 0 -81 36.5t-27 91.5t-2 111.5t-16 104t-57 61.5q-40 -69 -167 -323q-14 -29 -26 -41 t-20 -14.5t-34 -5.5q-25 -3 -40.5 -10t-19.5 -7q-8 0 -8 6q0 7 26 43q68 95 210 357q-73 -6 -124 -36.5t-121 -100.5l-57 -57t-77.5 -75t-70 -61t-78.5 -55t-60 -17t-43.5 14.5t-17.5 35.5q0 4 2 7.5t4.5 5.5t9.5 6.5t12 8.5q8 5 14 10t8.5 8t4.5 5t3.5 2.5t2.5 0.5 q3 0 3 -2t-1 -7.5t-1 -8.5q0 -22 7 -32.5t31 -10.5q38 0 73.5 27.5t91 91.5t83.5 92q123 122 247 158q29 8 66 13q-9 60 -15 90q-9 55 -47 241q-4 20 -9.5 45t-8.5 39t-3 20q0 9 15.5 11.5t64.5 3.5q68 1 218.5 1t249.5 2z" glyph-name="uni046A" horiz-adv-x="1080" unicode=""/>
<glyph d="M449 367q39 -71 58 -101q1 -1 3 -1t45 26q69 44 150 99q28 18 28 20q0 3 -5 3q-21 0 -98.5 1.5t-110.5 1.5q-89 0 -89 -8q0 -6 19 -41zM225 121q72 77 113.5 104t104.5 27q-35 65 -73 131q-22 39 -22 40q0 7 52 7q213 0 336 1l77 2q4 0 4 -4q0 -2 -3.5 -3t-11.5 -4 t-16 -8q-80 -46 -208 -125q-36 -22 -55 -37q43 -4 64 -29.5t24 -59.5t3 -67.5t9.5 -56.5t35.5 -23q75 0 193 91q62 48 136 140q4 6 8 6t4 -4q0 -2 -2 -6q-61 -83 -138 -146q-72 -58 -135 -87.5t-102 -29.5q-37 0 -54.5 21.5t-20 53.5t-3 65t-11 61t-36.5 37l-114 -211 q-3 -5 -9.5 -7t-19.5 -2.5t-22 -2.5q-12 -3 -24 -7t-16 -4t-4 4q0 1 1.5 2.5l4.5 4.5t6 7q13 19 51 83q29 50 79 139q-86 -1 -183 -103q-71 -74 -110 -99.5t-70 -25.5t-52.5 22t-21.5 50q0 9 13 18q16 12 32 25t23.5 20t8.5 7q6 0 6 -6q0 -2 -2 -4l-6 -6t-7 -9 q-9 -13 -9 -29q0 -20 16 -36.5t35 -16.5q24 0 47.5 18t73.5 72z" glyph-name="uni046B" horiz-adv-x="820" unicode=""/>
<glyph d="M1040 818q-99 0 -437 -389q-113 -131 -235 -311q-7 -11 -15 -23t-12 -17.5t-8.5 -12t-5.5 -8.5t-3.5 -6t-3 -5t-2.5 -4.5t-3 -5.5l-3.5 -7l-5.5 -11q-2 -5 -9 -9.5t-13 -7.5t-17.5 -7t-15.5 -6q-5 -2 -17.5 -8t-21.5 -10t-13 -4q-14 0 -14 12q0 16 15.5 50.5t40 80.5 t31.5 61q64 146 101.5 305.5t37.5 282.5q0 92 -69 92q-11 0 -26.5 -4t-45 -20.5t-56.5 -43.5q-20 -20 -22 -20q-6 0 -6 6t22 28q87 90 180 90q55 0 84.5 -31.5t29.5 -73.5q0 -114 -48.5 -307.5t-97.5 -311.5q104 151 221 282q195 219 298 312q142 129 207 129q78 0 78 -81 q0 -9 -7.5 -18.5t-23 -25.5t-25.5 -28q-2 -2 -5 -6.5t-5 -7t-4 -2.5q-5 0 -5 6q0 1 3 5t6 15t3 28q0 48 -57 48z" glyph-name="afii10148" horiz-adv-x="798" unicode=""/>
<glyph d="M504 397q-39 0 -156 -126q-59 -64 -107 -131t-72 -108t-27 -44q-1 -1 -28 -8q-24 -4 -25 -4q-9 0 -9 21q0 43 88 251q54 125 54 152q0 26 -22 26q-24 0 -66 -28q-9 -6 -10 -6q-4 0 -4 4t6 8q64 48 118 48q25 0 36.5 -16.5t11.5 -39.5q0 -28 -21 -82t-53 -123t-44 -101 q62 79 160 199q135 164 210 164q55 0 55 -55q0 -13 -19 -36q-8 -9 -14.5 -20t-9.5 -16.5t-4 -5.5q-5 0 -5 3q0 1 1 5t1 7q0 18 -2 29.5t-12.5 22t-30.5 10.5z" glyph-name="afii10196" horiz-adv-x="530" unicode=""/>
<glyph d="M561 778q0 -38 -43 -119.5t-94.5 -162.5t-94.5 -176.5t-43 -158.5q0 -66 31.5 -99.5t87.5 -33.5q97 0 206.5 93.5t209.5 238.5q49 108 117.5 247.5t73.5 149.5q13 28 26.5 41.5t39.5 21.5q75 24 87 24q8 0 8 -8q0 -3 -5.5 -6t-15.5 -10t-18 -19q-44 -66 -121.5 -204.5 t-118.5 -234.5q-53 -122 -69.5 -171.5t-16.5 -97.5q0 -28 13 -47.5t40 -19.5q65 0 174 82q62 48 136 140q4 6 8 6t4 -4q0 -2 -2 -6q-68 -92 -138 -146q-54 -42 -109 -70q-66 -42 -138.5 -134t-72.5 -166q0 -36 13.5 -55t26.5 -19q3 0 3 -4q0 -1 -25 -10q-6 -2 -18.5 -7.5 t-21.5 -8t-16 -2.5q-6 0 -16 8.5t-19.5 28t-9.5 43.5q0 41 22 85.5t59 84.5t74 71t77 59q-39 -12 -65 -12q-94 0 -94 97q0 19 8 46t16.5 46t22 47t15.5 33h-1q-49 -57 -94 -101t-99 -86.5t-110.5 -65.5t-110.5 -23q-75 0 -120 39t-45 115q0 59 43.5 158.5t96 187.5t96 174 t43.5 122q0 25 -13 46t-40 21q-63 0 -127 -64q-20 -20 -22 -20q-6 0 -6 6t22 28q87 90 176 90q39 0 68 -29t29 -79zM834 1000q-44 0 -62 21.5t-18 52.5q0 17 10 44q3 7 20 16.5t26 9.5l2 -2l-2 -6q-3 -7 -5.5 -17.5t-2.5 -20.5q0 -33 22.5 -51.5t55.5 -18.5q84 0 144 88 q13 12 30 20q15 6 18 6h2q0 -8 -34 -41.5t-93.5 -67t-112.5 -33.5z" glyph-name="uni048A" unicode=""/>
<glyph d="M457 580q-44 0 -62 21.5t-18 52.5q0 17 10 44q3 7 20 16.5t26 9.5l2 -2l-3 -6q-2 -7 -4.5 -17.5t-2.5 -20.5q0 -33 22.5 -51.5t55.5 -18.5q84 0 144 88q13 12 30 20q15 6 18 6h2q0 -8 -34 -41.5t-93.5 -67t-112.5 -33.5zM523 4q-71 -63 -125 -141.5t-54 -137.5 q0 -21 9.5 -35t24.5 -14q7 0 14 6t8 6q3 0 3 -3q0 -6 -22 -17t-38 -11q-24 0 -41.5 15.5t-17.5 48.5q0 34 21.5 73t61.5 80t67 65.5t68 57.5q-32 -8 -53 -8q-29 0 -46 16t-17 40q0 31 14 67q-1 -1 -12.5 -12t-16 -15.5t-18 -16t-21.5 -17.5t-22.5 -16.5t-25.5 -16.5 t-26.5 -13.5t-29 -11.5t-29.5 -7t-31 -3q-38 0 -68 21.5t-30 67.5q0 41 39.5 108.5t79 130t39.5 89.5q0 32 -20 32q-7 0 -14 -1.5t-12 -3.5t-13 -6.5t-11 -6.5l-12 -8l-12 -8q-9 -6 -10 -6q-4 0 -4 4t6 8q81 56 120 56q58 0 58 -56q0 -25 -38.5 -89t-77 -130t-38.5 -99 q0 -60 64 -60q77 0 202 121q62 131 127 239q35 59 50 59q12 0 29.5 -9t17.5 -23q0 -13 -21 -41.5t-52.5 -69t-47.5 -69.5q-2 -4 -11 -19.5t-12.5 -22t-11 -21t-11 -24.5t-7.5 -23t-6 -25.5t-2 -24.5q0 -21 12.5 -34.5t35.5 -13.5q32 0 83 24t93 59q62 48 136 140q4 6 8 6 t4 -4q0 -2 -2 -6q-68 -92 -138 -146q-76 -64 -167 -94z" glyph-name="uni048B" horiz-adv-x="650" unicode=""/>
<glyph d="M736 698q5 0 5 -4q0 -1 -1 -2t-3 -4t-5 -8q-2 -4 -4.5 -9.5t-3.5 -8t-3 -5.5t-4 -4t-5 -1q-88 0 -210 2q-30 -56 -78.5 -149.5t-61.5 -116.5q65 45 144 81.5t145 36.5q72 0 118 -35t46 -117q0 -120 -158 -254q-55 -46 -132.5 -79.5t-156.5 -33.5q-57 0 -115 12t-83 12 q-27 0 -68 -16.5t-48 -16.5t-7 7q0 3 6 9.5t19 23t26 37.5q80 133 178 318q123 236 147 283q-10 0 -72.5 1.5t-94.5 1.5q-17 0 -17 13q0 12 57 12q50 0 142 2q20 40 29 59q35 72 35 91q0 22 -17 25q-3 1 -7 1.5t-7.5 1l-7 1t-6 1t-4.5 1.5t-3 2t-1 3q0 3 14.5 4t44 2.5 t46.5 2.5q17 2 36 4.5t31.5 4t19.5 1.5t7 -7q0 -2 -5.5 -5t-17 -13.5t-23.5 -30.5q-23 -40 -81 -146q47 2 98.5 4t80.5 3.5t36 1.5zM379 9q71 0 150 46.5t137.5 135.5t58.5 193q0 41 -28.5 66.5t-77.5 25.5q-66 0 -156 -59t-144 -120l-123 -228q36 -32 76 -46t107 -14z" glyph-name="uni048C" horiz-adv-x="813" unicode=""/>
<glyph d="M532 572q95 7 98 7q4 0 4 -3q0 -4 -4 -13q-1 -3 -4 -5.5t-9.5 -3.5t-10.5 -1t-14 -0.5t-14 -0.5q-90 -3 -188 -11q-46 -77 -105 -158q-127 -180 -127 -278q0 -87 70 -87q66 0 119 69.5t53 126.5q0 33 -14 49q-4 1 -20.5 5t-28.5 7.5t-12 6.5q0 5 6 11.5t18 15t14 10.5 l5.5 5.5l3.5 3.5t2 2.5t2 2t1.5 0.5h2.5q4 0 10 -4t13 -10.5t9 -7.5q22 -15 53 -15q20 0 43.5 7.5t50 22.5t43 25.5t43.5 30.5t31 22q9 6 10 6q4 0 4 -4t-6 -8t-43.5 -30.5t-65.5 -46t-61 -37.5t-49 -19q0 -68 -42.5 -133.5t-108 -105.5t-130.5 -40q-104 0 -104 117 q0 23 8 50.5t18 49.5t28.5 52.5t28 44.5t29.5 42t22 30q67 94 110 163q-17 -2 -50 -6t-48 -5q-19 -3 -35.5 -7.5t-26 -8t-11.5 -3.5q-3 0 -3 3q0 1 1 2.5t4.5 5t7.5 9.5q15 23 37 25q33 3 140 10q75 126 75 185q0 34 -28 34q-18 0 -33 -8q-7 -4 -13 -10t-10 -9.5t-7 -3.5 q-5 0 -5 6t28 25q52 32 81 32q23 0 39 -16t16 -39q0 -61 -78 -192q16 1 61 3.5t66 4.5z" glyph-name="uni048D" horiz-adv-x="550" unicode=""/>
<glyph d="M837 243q0 -2 -1.5 -2.5t-7 -2t-10.5 -2.5q-23 -7 -26 -7q-1 0 -2 1l-3.5 3.5t-5 6t-8 10.5t-11.5 14q-15 18 -40 49t-36 44q-117 -46 -234 -46q-71 0 -124 16q-27 -55 -53.5 -117t-54.5 -132t-30 -74q-4 -10 -17 -11.5t-36.5 -2.5t-42.5 -8q-10 -4 -17 -9t-11 -5 q-10 0 -10 6q0 3 6.5 14t16 26.5t11.5 19.5q71 116 152 278q114 228 144 311q25 71 25 110q0 6 -5 11.5t-5 7.5q0 4 5 5.5t33 5.5q20 3 37.5 8.5t27 9.5t10.5 4q14 0 14 -10q0 -7 -22 -65.5t-43 -102.5l2 -1q29 38 62.5 75t89 89t118.5 84t121 32q65 0 107.5 -47t42.5 -127 q0 -100 -82 -194t-210 -150l107 -107q16 -16 16 -18zM351 374q78 -36 165 -36q79 0 158 33q-76 90 -95 112q-11 13 -11 21q0 7 7 7q5 0 38 -36q52 -56 86 -92q99 50 164 135t65 169q0 63 -36 103t-92 40q-66 0 -136 -46.5t-129.5 -121t-104.5 -146t-79 -142.5z" glyph-name="uni048E" horiz-adv-x="820" unicode=""/>
<glyph d="M505 154q12 -12 12 -21t-4 -9t-8.5 3.5t-12 12t-9.5 10.5q-16 18 -25 27q-76 -93 -76 -125q0 -44 44 -44q40 0 102.5 33t106.5 67q62 48 136 140q5 6 8 6q4 0 4 -4q0 -3 -2 -6q-68 -92 -138 -146q-75 -60 -148 -95t-119 -35q-26 0 -45 15t-19 41q0 32 19 70t36.5 60 t52.5 62q-40 37 -47 43q-4 4 -4 6q0 1 0.5 3t1.5 4.5t1 3.5q2 10 3 10t3 -2t8 -9t13 -15q17 -18 30 -33q60 69 60 104q0 33 -16.5 45.5t-36.5 12.5q-43 0 -117.5 -63.5t-144.5 -149.5q-55 -97 -89 -160q-56 -105 -195.5 -376.5t-251.5 -471.5q-16 -29 -41 -51.5t-48 -34.5 t-46.5 -19t-36 -9t-17.5 -2q-9 0 -9 4q0 3 2 4.5t6 3t10 3.5t15 7t19 13q20 15 71 91t178.5 294.5t308.5 551.5q74 136 103 201.5t29 96.5q0 50 -20 65q-8 6 -8 7q0 2 2.5 4t7.5 5t8 5q7 6 13.5 11.5t9 8.5t7 4.5t10.5 1.5q15 0 24.5 -18t9.5 -52q0 -52 -32 -112 q199 198 306 198q21 0 39 -16t18 -54q0 -26 -18.5 -62t-37 -61t-53.5 -68q9 -9 37 -35z" glyph-name="uni048F" horiz-adv-x="603" unicode=""/>
<glyph d="M956 863q56 0 98 27t42 54q0 30 -38 30q-13 0 -24.5 -4t-17.5 -8t-7 -4q-3 0 -3 3q0 1 0.5 2t2 3.5t3.5 5.5t5 8.5t6 11.5q13 26 21 30q4 1 8 1q30 0 44 -21.5t14 -46.5q0 -49 -63 -95t-162 -46q-54 0 -147.5 12t-116.5 14q-92 -155 -225 -406q-107 -201 -192 -373 q-14 -29 -26 -41t-20 -14.5t-34 -5.5q-25 -3 -45 -10t-24 -7q-7 0 -7 5q0 3 3 6t12 13t19 25q65 92 133 216q10 18 75 137.5t94 174.5t73.5 142.5t68.5 143.5q-19 1 -29 1q-47 0 -96.5 -17t-81.5 -48q-20 -20 -22 -20q-6 0 -6 6t22 28q88 90 236 90q87 0 205 -11.5 t202 -11.5z" glyph-name="afii10050" horiz-adv-x="746" unicode=""/>
<glyph d="M436 397q-27 0 -54 -14t-57 -45.5t-45.5 -50t-46.5 -62t-33 -45.5q-92 -170 -108 -188q-8 -10 -14 -10q-4 0 -7.5 2t-5.5 4t-6.5 8l-7.5 10q-18 20 -18 26q0 12 17 34q12 15 29.5 35.5t32.5 40.5q73 138 94 184.5t21 69.5q0 31 -28 31q-21 0 -65 -29q-9 -6 -10 -6 q-4 0 -4 4t6 8q75 56 113 56q28 0 42.5 -16.5t14.5 -39.5q0 -30 -49 -128q27 36 47.5 60t52 55t64 47t65.5 16q30 0 67.5 -10.5t52.5 -10.5q20 0 36 16t16 36q0 15 -8 27l-5 5t-5 5.5t-2 4.5q0 7 7 7q10 0 17 -19t7 -35q0 -38 -35.5 -69.5t-67.5 -31.5q-10 0 -52 9t-68 9z " glyph-name="afii10098" horiz-adv-x="530" unicode=""/>
<glyph d="M546 471q6 0 6 -3q0 -1 -1 -2t-3.5 -5t-5.5 -8q-8 -12 -20 -12q-17 0 -37 0.5t-45 1.5t-39 1q-1 -1 -2.5 -5t-2.5 -5q-107 -201 -192 -373q-14 -29 -26 -41t-20 -14.5t-34 -5.5q-25 -3 -45 -10t-24 -7q-7 0 -7 5q0 3 3 6t12 13t19 25q65 92 133 216q103 189 108 199 q-70 2 -97 2q-17 0 -17 7q0 8 57 8q41 0 67 1q146 272 193 381q-19 1 -29 1q-49 0 -98 -17t-80 -48q-20 -20 -22 -20q-6 0 -6 6t22 28q88 90 232 90q85 0 211.5 -11.5t216.5 -11.5q43 0 79 14.5t40 37.5q3 18 10 18q8 0 8 -9q0 -34 -61 -72t-130 -38q-41 0 -92 4.5 t-113 11.5t-93 10q-78 -130 -207 -373q114 4 132 4z" glyph-name="uni0492" horiz-adv-x="746" unicode=""/>
<glyph d="M280 206q12 -12 12 -21t-4 -9t-8.5 3.5t-12 12t-9.5 10.5q-36 39 -38 41q-4 -2 -12 -8q-87 -57 -87 -117q0 -39 33 -67.5t91 -28.5q90 0 202 86q62 48 136 140q4 6 8 6t4 -4q0 -2 -2 -6q-68 -92 -138 -146q-65 -53 -123.5 -79.5t-134.5 -26.5q-66 0 -111.5 29.5 t-45.5 74.5q0 57 40 94.5t116 76.5q-23 23 -48 44q-4 4 -4 6q0 1 0.5 3t1.5 4.5t1 3.5l3 10q1 0 3 -2t8 -9t13 -15q13 -15 36 -38q44 25 63.5 54.5t19.5 53.5q0 19 -12.5 32.5t-35.5 13.5q-35 0 -80 -30q-9 -6 -10 -6q-4 0 -4 4t6 8q69 52 132 52q29 0 53.5 -17t24.5 -47 q0 -14 -3 -26t-12 -24t-14.5 -19t-23 -19.5t-23 -16.5t-29.5 -18.5t-29 -17.5q11 -11 47 -45z" glyph-name="uni0493" horiz-adv-x="415" unicode=""/>
</font>
</defs>
</svg>
